<svg viewBox="0 0 24 17" fill="none" xmlns="http://www.w3.org/2000/svg">
  <path d="M24 3.48c0-.03-2.77-1.14-3.7-1.48A35.83 35.83 0 0 0 16.4.81c-3.6-.82-7.03-.48-9.68.94-2.16 1.17-3.5 2.77-4.83 5.79-.43 1-.67 1.67-1.43 4.1L0 13.07s.02.03.06.05c.05.02.3-.03.56-.12.83-.27 3.94-1.51 4-1.6.04-.04.12-.23.19-.42.5-1.53 1.22-2.98 1.96-4.01a10.55 10.55 0 0 1 .75-.9 5.8 5.8 0 0 1 2.61-1.5c2.19-.78 4.88-.64 8.07.43.53.18.98.34 1 .36.06.05.01.23-.26.95a13.1 13.1 0 0 1-2.09 3.88c-.6.72-.92 1-1.58 1.38a11.23 11.23 0 0 1-2 .82c-.04-.02.12-.67.36-1.46.67-2.24.9-3.09.92-3.3 0-.16 0-.18-.12-.16a86.3 86.3 0 0 0-4.42 1.79c-.05.06-1.51 4.77-1.83 5.91-.08.27-.14.56-.14.65 0 .3.06.32 1.27.47 4.35.57 8.35-.73 10.62-3.45.99-1.2 1.98-3.05 2.64-4.95.25-.73 1.43-4.38 1.43-4.42Z" fill="#89D9C6"/>
</svg>
