<svg width="166" height="78" fill="none" xmlns="http://www.w3.org/2000/svg">
  <path d="M92.73 45.73H83.5L81.73 51h-5.6l9.52-25.6h4.89l9.58 25.6H94.5l-1.78-5.27Zm-7.82-4.27h6.4l-3.22-9.59-3.18 9.59ZM107.54 51h-5.1V24h5.1v27Zm11.3-7.19 3.51-11.83h5.45l-7.64 21.97-.43 1c-1.13 2.49-3 3.73-5.62 3.73a8 8 0 0 1-2.25-.33V54.5l.77.02c.96 0 1.68-.15 2.15-.44.48-.3.85-.78 1.12-1.46l.6-1.57-6.66-19.07h5.47l3.53 11.83Zm16.8 3.1h9.3V51h-15.78v-3.1l8.94-11.8h-8.68v-4.12h15.24v3l-9.02 11.92Zm20.96 4.44c-2.8 0-5.07-.85-6.82-2.56-1.75-1.72-2.62-4-2.62-6.84v-.5c0-1.9.37-3.61 1.1-5.11a8.08 8.08 0 0 1 3.13-3.48 8.8 8.8 0 0 1 4.64-1.23c2.6 0 4.65.82 6.14 2.46 1.5 1.64 2.25 3.97 2.25 6.98v2.07H152.3a4.74 4.74 0 0 0 1.47 3 4.52 4.52 0 0 0 3.15 1.12c1.96 0 3.49-.71 4.59-2.13l2.5 2.8a7.7 7.7 0 0 1-3.1 2.53c-1.3.6-2.74.9-4.32.9Zm-.58-15.6c-1.01 0-1.83.33-2.47 1.01a5.3 5.3 0 0 0-1.2 2.92h7.08v-.4c-.03-1.13-.33-2-.92-2.6-.58-.63-1.42-.94-2.5-.94ZM70.05 25.87c0-.07-7.43-3.03-9.92-3.94a95.88 95.88 0 0 0-10.44-3.2c-9.62-2.18-18.8-1.29-25.9 2.52-5.8 3.12-9.37 7.4-12.92 15.5-1.18 2.67-1.81 4.49-3.84 10.96-.65 2.1-1.2 3.84-1.23 3.86-.02.03.05.1.17.15.11.06.78-.1 1.49-.33 2.2-.73 10.53-4.04 10.72-4.26.1-.11.3-.63.48-1.14a41.03 41.03 0 0 1 5.26-10.74c.5-.68 1.03-1.33 1.53-1.9l.49-.48c2.18-2.09 3.37-2.78 6.99-4.07 5.85-2.07 13.06-1.68 21.6 1.2 1.4.47 2.62.9 2.68.95.15.13.01.61-.71 2.52-1.8 4.75-3.5 7.9-5.6 10.4a13.43 13.43 0 0 1-4.24 3.7 30.06 30.06 0 0 1-5.27 2.19.2.2 0 0 1-.09 0c-.1-.05.33-1.78.97-3.9 1.8-6 2.45-8.27 2.47-8.81.02-.46 0-.5-.31-.45-.55.1-11.68 4.58-11.84 4.77-.13.16-4.04 12.8-4.9 15.84-.2.72-.37 1.5-.38 1.75 0 .77.17.83 3.4 1.26 11.64 1.52 22.36-1.97 28.44-9.26 2.65-3.18 5.31-8.17 7.07-13.25.68-1.96 3.84-11.72 3.83-11.84Z" fill="#89D9C6"/>
</svg>
