<svg width="60" height="60" fill="none" xmlns="http://www.w3.org/2000/svg">
  <g clip-path="url(#a)" fill="#89D9C6">
    <path d="M60 0H0v3.24h60V0Z"/>
    <path d="M60 0h-3.24v10.7H60V0ZM3.24 0H0v60h3.24V0Z"/>
    <path d="M30.97 56.76H0V60h30.97v-3.24ZM19.78 14.1v13.27c0 4.57 3.73 8.3 8.27 8.3a8.31 8.31 0 0 0 0-16.6 8 8 0 0 0-5.02 1.78v-6.74h-3.25ZM28 22.29a5.13 5.13 0 0 1 5.08 5.1c0 2.78-2.3 5.1-5.08 5.1a5.09 5.09 0 0 1 0-10.2ZM60 14.1v13.27c0 4.57-3.72 8.3-8.27 8.3a8.31 8.31 0 0 1 0-16.6 8 8 0 0 1 5.03 1.78v-6.74H60Zm-8.21 8.18a5.13 5.13 0 0 0-5.08 5.1c0 2.78 2.3 5.1 5.08 5.1a5.09 5.09 0 0 0 0-10.2ZM60 43.3h-3.24V60H60V43.3ZM41.51 14.1h-3.24v21.58h3.24V14.1ZM58.38 41.68a1.62 1.62 0 1 0 0-3.25 1.62 1.62 0 0 0 0 3.25ZM36 60a1.62 1.62 0 1 0 0-3.24A1.62 1.62 0 0 0 36 60Z"/>
    <path fill-rule="evenodd" clip-rule="evenodd" d="M51.57 58.26a8.35 8.35 0 1 1 3.24-6.53V60h-3.24v-1.74Zm0-6.53a5.03 5.03 0 1 1-10.06 0 5.03 5.03 0 0 1 10.06 0Z"/>
  </g>
  <defs>
    <clipPath id="a">
      <path fill="#fff" d="M0 0h60v60H0z"/>
    </clipPath>
  </defs>
</svg>
