<svg xmlns="http://www.w3.org/2000/svg" viewBox="0 0 32 32">
  <path fill="#334D4B" d="M26 32H6a6 6 0 0 1-6-6V6a6 6 0 0 1 6-6h20a6 6 0 0 1 6 6v20a6 6 0 0 1-6 6z"/>
  <path fill="#89D9C6" d="M22.67 8H9.33C8.6 8 8 8.6 8 9.33v13.34C8 23.4 8.6 24 9.33 24h13.34c.73 0 1.33-.6 1.33-1.33V9.33C24 8.6 23.4 8 22.67 8zm-4.99 3.9h.02-.03zm1.12 8.15s-.38-.44-.66-.82a3.28 3.28 0 0 0 1.83-1.14 7.49 7.49 0 0 1-6.79.6l-.77-.32c-.02 0-.03-.01-.05-.03 0-.01-.02-.03-.05-.03h-.05l-.27-.16s.5.76 1.77 1.14c-.34.39-.67.82-.67.82-2.26-.06-3.09-1.47-3.09-1.47 0-3.16 1.5-5.71 1.5-5.71 1.48-1.09 2.87-1.04 2.87-1.04l.1.11c-1.82.44-2.65 1.25-2.65 1.25.1 0 3.77-2.14 8.24.06 0 0-.83-.76-2.54-1.25l.15-.15c.24 0 1.49.04 2.83 1.02 0 0 1.5 2.57 1.5 5.72-.05-.07-.93 1.35-3.2 1.4z"/>
  <path fill="#89D9C6" d="M14.1 15.48h-.01c-.58 0-1.05.5-1.05 1.1 0 .6.47 1.08 1.05 1.08.58 0 1.05-.49 1.05-1.09 0-.6-.47-1.09-1.05-1.09zm3.75 0c-.58 0-1.05.5-1.05 1.1 0 .6.47 1.08 1.05 1.08.57 0 1.05-.49 1.05-1.09 0-.6-.47-1.09-1.05-1.09z"/>
</svg>
