<svg width="24" height="24" fill="none" xmlns="http://www.w3.org/2000/svg">
  <g>
    <path fill-rule="evenodd" clip-rule="evenodd" d="M12 0a12 12 0 0 0-3.8 23.39c.6.1.83-.26.83-.57l-.01-2.24c-3.02.56-3.8-.73-4.04-1.41-.14-.35-.72-1.41-1.23-1.7-.42-.22-1.02-.77-.02-.79.95-.02 1.63.87 1.85 1.23 1.08 1.82 2.8 1.3 3.5.99.1-.78.41-1.3.76-1.6-2.67-.3-5.46-1.34-5.46-5.93 0-1.3.46-2.38 1.23-3.22-.12-.3-.54-1.54.12-3.19 0 0 1-.31 3.3 1.24a11.14 11.14 0 0 1 6 0c2.3-1.57 3.3-1.24 3.3-1.24.66 1.66.24 2.88.12 3.18.77.84 1.23 1.91 1.23 3.23 0 4.6-2.8 5.63-5.47 5.93.43.37.8 1.09.8 2.21l-.01 3.3c0 .32.22.7.82.58A12.02 12.02 0 0 0 12 0Z" fill="#89D9C6"/>
  </g>
</svg>
