<svg width="24" height="24" fill="none" xmlns="http://www.w3.org/2000/svg">
  <g transform="matrix(.72758 0 0 .72758 -.37 3.27)">
    <path d="M33.23 1.14a2.44 2.44 0 0 0-.1-.18L33.1.94 33 .81 33 .8a1.51 1.51 0 0 0-.13-.15l-.02-.02a1.5 1.5 0 0 0-.14-.13l-.15-.1V.36L32.5.36a2.34 2.34 0 0 0-.12-.08l-.05-.02-.16-.08h-.01l-.03-.02L32 .11a3.37 3.37 0 0 0-.24-.07h-.02l-.16-.02-.06-.01-.18-.01h-.11l-1.39 1.03-.1.08-12.63 9.24L4.27.94 2.99 0h-.32A2.16 2.16 0 0 0 .51 2.17v19.86l.01.05.02.15.01.05a1.21 1.21 0 0 0 .05.17l.03.1.03.08.04.1.04.08.05.08a1.43 1.43 0 0 0 .1.16l.1.15.05.04.09.1.05.05.09.08.05.05.1.07.06.04.12.08.04.02.18.09a1.86 1.86 0 0 0 .18.07l.07.02.12.03.08.02.13.02.07.01.17.01H4.27V6.1l9.32 6.82 3.07 2.25.03.02.53.4 2.17-1.6 1.36-.99 6.9-5.05 2.09-1.53V24H31.37a1.45 1.45 0 0 0 .21-.02h.03l.13-.02.04-.01h.04l.12-.04.07-.02.13-.05.05-.02.18-.08.04-.03.12-.07.06-.04.1-.07.05-.05.09-.08.03-.03.02-.02.1-.1v-.01l.03-.03c.04-.05.08-.1.1-.15l.05-.07.05-.09.01-.01.04-.07.04-.09.04-.1.03-.07v-.03l.03-.07v-.01l.05-.16v-.06l.03-.14v-.07l.01-.18V2.17c0-.37-.1-.72-.26-1.03z" fill="#89d9c6"/>
  </g>
</svg>
