<svg xmlns="http://www.w3.org/2000/svg" viewBox="0 0 32 32">
  <path fill="#334D4B" d="M26 32H6a6 6 0 0 1-6-6V6a6 6 0 0 1 6-6h20a6 6 0 0 1 6 6v20a6 6 0 0 1-6 6z"/>
  <path fill="#89D9C6" d="M16 8c-.92 0-6.54 3.21-7 4-.45.79-.45 7.21 0 8 .47.79 6.09 4 7 4 .91 0 6.53-3.22 6.99-4 .46-.78.46-7.22 0-8-.46-.78-6.08-4-7-4zm1.9 12.94c-.13 0-1.3-1.11-1.2-1.2.02-.03.2-.05.55-.06l.03-2.7-.02-.18h-2.52c0 .22-.02 1.13.04 2.28 0 .14-.05.18-.18.18h-.96c-.13 0-.18-.05-.18-.2.03-1.04.1-2.62 0-6.64v-.1c-.31-.01-.52-.03-.55-.06-.1-.09 1.1-1.2 1.22-1.2s1.3 1.11 1.2 1.2a1.9 1.9 0 0 1-.52.06v.1c-.08.8-.07 2.49-.09 3.3h2.54c0-.15 0-1.1-.04-2.62 0-.1.03-.16.13-.16h1.05c.11 0 .15.05.14.16-.11 5.98-.02 5.56-.02 6.58.28 0 .53.03.56.05.1.1-1.06 1.21-1.19 1.21z"/>
</svg>
