<svg xmlns="http://www.w3.org/2000/svg" viewBox="0 0 32 32">
  <path fill="#334D4B" d="M26 32H6a6 6 0 0 1-6-6V6a6 6 0 0 1 6-6h20a6 6 0 0 1 6 6v20a6 6 0 0 1-6 6z"/>
  <path fill="#89D9C6" d="M22.67 17.57c0-.5-.38-.9-.84-.9h-6.71c-.47 0-.84.4-.84.9s.37.9.84.9h6.7c.47 0 .85-.4.85-.9z"/>
  <path fill="#89D9C6" d="m10.32 20.12 2.88 2.91a3.5 3.5 0 0 0 2.53.97 3.5 3.5 0 0 0 2.54-1l1.72-1.75a.9.9 0 0 0-.02-1.27.88.88 0 0 0-1.26-.03l-1.78 1.74c-.31.31-.74.44-1.2.44-.48 0-.9-.13-1.21-.44l-2.87-2.9c-.3-.32-.46-.77-.46-1.25 0-.47.15-.9.46-1.22l2.86-2.92c.3-.3.74-.43 1.21-.43s.9.13 1.2.45l1.8 1.73c.33.35.9.33 1.25-.02a.9.9 0 0 0 .03-1.27l-1.73-1.76a3.33 3.33 0 0 0-1.6-.88h-.02l1.63-1.68a.9.9 0 0 0-.02-1.26.89.89 0 0 0-1.26-.03l-6.68 6.73a3.57 3.57 0 0 0-.99 2.56c0 1 .34 1.93 1 2.58z"/>
</svg>
