<svg width="200" height="60" fill="none" xmlns="http://www.w3.org/2000/svg">
  <g fill="#89D9C6">
    <path d="M22.48.87A21.72 21.72 0 0 0 .01 23.34C.41 35.1 10.28 44.3 22.03 44.3h21.41V22.9c0-11.76-9.21-21.62-20.96-22.03ZM53.64 44.3h6.73V6.79h-6.73V44.3ZM66.15 44.3h6.73V19.34h-6.73V44.3ZM154.55 39.07a7.48 7.48 0 1 1-1.2-14.9 7.48 7.48 0 0 1 1.2 14.9Zm-.61-21.64a14.21 14.21 0 0 0-14.16 15.2 14.25 14.25 0 0 0 13.25 13.16c3.09.2 5.97-.61 8.38-2.11v1.66c0 5.05-3.86 6.96-7.19 7.07-2.2.07-5.4-.3-7.63-4.27l-5.87 3.3c2 3.54 5.87 7.7 13.12 7.7l.62-.01c8.05-.25 13.67-5.93 13.67-13.8V20.92h-4.9a14.12 14.12 0 0 0-9.3-3.48h.01ZM186.41 39.07a7.48 7.48 0 1 1-1.2-14.9 7.48 7.48 0 0 1 1.2 14.9Zm.69-21.58a14.21 14.21 0 0 0-15.44 15.43 14.23 14.23 0 0 0 12.85 12.84 14.21 14.21 0 0 0 15.43-15.43 14.23 14.23 0 0 0-12.84-12.84ZM93.08 17.52a12.8 12.8 0 0 0-8.22 1.82h-6.2V44.3h6.73V30.5c0-3.23 2.4-6.02 5.61-6.32a6.2 6.2 0 0 1 6.77 6.17V44.3h6.72V30.57c0-6.6-4.86-12.3-11.41-13.05ZM70.06 7.45a4.17 4.17 0 1 0-1.08 8.27 4.17 4.17 0 0 0 1.08-8.27ZM122.42 39.07a7.48 7.48 0 1 1-1.2-14.9 7.48 7.48 0 0 1 1.2 14.9Zm-.61-21.64a14.21 14.21 0 0 0-14.16 15.2 14.25 14.25 0 0 0 13.25 13.16c3.09.2 5.97-.61 8.38-2.11v1.66c0 5.05-3.86 6.96-7.19 7.07-2.21.07-5.4-.3-7.63-4.27l-5.87 3.3c2 3.54 5.87 7.7 13.12 7.7l.62-.01c8.05-.25 13.67-5.93 13.67-13.8V20.92h-4.9a14.13 14.13 0 0 0-9.29-3.48Z"/>
  </g>
</svg>
