<svg width="192" height="192" viewBox="0 0 192 192" fill="none" xmlns="http://www.w3.org/2000/svg">
<path d="M106.2 186.5C105.12 185.2 103.24 182.84 102.02 181.23C99.8877 178.543 97.6665 175.929 95.36 173.39C82.66 159.34 80.61 157.35 70.43 149.32C63.6 143.92 66.92 147.79 74.69 154.29C82.46 160.77 93.69 172.22 94.04 174.03C94.21 174.86 96.01 177.31 98.78 180.43C103.32 185.58 104.82 187.73 104.15 188.14C103.65 188.45 100.41 185.02 96.37 179.89C88.89 170.39 71.19 153.53 59.67 144.95C56.06 142.26 62.79 148.59 70.43 155.07C78.7 162.07 87.93 171.34 87.93 172.64C87.93 173.16 89.67 175.42 92.03 177.95C96.16 182.39 98.69 185.53 98.69 186.23C98.69 187.61 96.69 185.78 91.83 180C85.33 172.26 72.1 159.24 62.83 151.48C52.83 143.1 48.9 139.88 48.9 140.08C48.9 140.87 51.99 143.85 57.87 148.72C69.87 158.65 81.2 169.15 81.2 170.34C81.2 170.67 83.34 173.31 85.95 176.2C90.62 181.36 92.31 183.72 91.74 184.3C91.44 184.59 89.24 182.34 82.8 175.2C77.5 169.34 65 157.73 51.2 145.89C28.41 126.32 13.72 112.56 11.94 109.12C10.57 106.48 12.12 107.04 15.64 110.45C20.96 115.61 21.66 115.95 17.37 111.27C15.22 108.93 13.46 106.76 13.46 106.45C13.46 105.14 15.91 106.06 18.36 108.3C19.21 109.07 17.86 107.48 15.36 104.77C7.56 96.29 3.88 91.54 5.11 91.54C5.21 91.54 7.99 94.51 11.28 98.15C14.58 101.79 19.87 107.55 23.05 110.95C28.13 116.38 30.23 119.33 27.25 116.85C26.7 116.39 27.25 117.06 28.47 118.35C31.01 121.01 30.94 120.97 30.65 119.85C30.3 118.5 31.29 118.29 33.1 119.34C34.13 119.94 31.35 116.84 25.75 111.19C10.25 95.51 -0.18 83.46 1.76 83.46C2.01 83.46 7.13 89.06 13.15 95.91C24.55 108.91 31.51 115.93 40.72 123.8C45.6 127.96 46.8 129.21 45.95 129.21C45.81 129.21 45.31 129.01 44.83 128.75C43.27 127.91 43.91 128.59 46.77 130.79C48.64 132.24 49.17 132.51 48.34 131.62C46.36 129.47 47.28 128.36 49.94 129.71C50.48 129.98 50.11 129.52 49.12 128.7C42.2232 122.807 35.4484 116.772 28.8 110.6C19.23 101.5 0.45 79.74 0.45 77.75C0.45 76.62 2.72 78.96 6.64 84.14C8.51 86.6 12.35 90.94 15.18 93.78C21.54 100.15 28.26 107.66 28.26 108.39C28.26 109.59 44.73 123.69 56.52 132.59C60.52 135.62 61.4 137.69 57.62 135.21C55.74 133.97 56.42 134.81 58.54 136.33C59.76 137.21 60.44 137.5 60.28 137.08C59.46 134.93 61.43 134.86 64.48 136.93C68.04 139.33 66.42 137.87 61.69 134.41C48.25 124.54 32.49 111.1 25.43 103.46C15.8 93.04 0 74 0 72.83C0 71.75 1.01 72.79 4.77 77.69C6.61 80.08 8.59 82.36 9.19 82.74C9.78 83.14 14.03 87.74 18.62 92.99C23.6864 98.752 29.0014 104.291 34.55 109.59C38.71 113.47 42.23 117.02 42.37 117.48C42.72 118.59 46.38 121.48 58.32 130.09C63.87 134.09 68.92 137.85 69.54 138.43C70.34 139.18 70.98 139.42 71.7 139.23C72.48 139.03 73.56 139.53 76.07 141.28C77.9 142.56 79.39 143.45 79.37 143.25C79.37 143.05 76.3 140.77 72.56 138.18C41.03 116.33 31.48 107.57 8.59 79.46C-0.0799999 68.83 -0.18 68.69 0.18 68.34C0.6 67.92 2.18 69.53 4.8 73.05C6.14 74.85 7.64 76.56 8.13 76.86C8.62 77.16 12.69 81.75 17.18 87.06C29.75 101.9 36.93 108.99 49.46 118.9C52.11 121 54.28 122.91 54.29 123.16C54.29 123.6 66.75 132.75 74.92 138.3C77.26 139.9 79.78 141.3 80.52 141.42C81.26 141.54 82.27 141.8 82.77 142C83.26 142.2 83.57 142.26 83.44 142.13C82.94 141.63 71.24 133.23 66.39 129.9C41.75 112.96 31.41 103.22 9.84 76.6C1.94 66.83 0.22 64.47 0.88 64.25C1.64 64 2.48 64.87 5.18 68.74C6.56 70.69 7.98 72.41 8.35 72.54C8.72 72.69 13.52 78.18 19.03 84.74C33.66 102.21 42.88 110.84 59.63 122.76C62.98 125.14 66.23 127.66 66.84 128.33C69.2 130.94 85.64 141.89 87.46 142.06C88.06 142.12 89.45 142.79 90.52 143.55C91.6 144.31 92.37 144.75 92.22 144.51C91.87 143.94 79.85 135.36 71.1 129.44C42.51 110.08 32.63 100.89 10.8 73.37C6.3 67.7 2.33 62.5 1.97 61.83C0.91 59.81 2.25 60.31 3.81 62.51C4.55 63.55 6.48 65.81 8.09 67.54C9.71 69.27 15.06 75.61 19.99 81.64C36.31 101.62 44.15 108.67 67.66 124.5C73.41 128.37 78.23 131.83 78.36 132.17C78.72 133.12 92.39 142.67 93.38 142.67C93.86 142.67 94.9 142.99 95.68 143.39C97.58 144.35 97.1 143.91 91.51 139.65C86.81 136.05 83.51 133.81 67.51 123.29C43.68 107.61 32.81 97.33 13.61 72.25C9.93 67.45 5.94 62.26 4.75 60.74C1.94 57.12 2.3 56.07 5.18 59.5C6.47843 61.0323 7.83613 62.5135 9.25 63.94C10.26 64.94 12.82 68.17 14.93 71.14C17.04 74.09 20.23 77.93 22 79.65L25.22 82.79L22.2 79C17.63 73.23 3.59 54.5 3.59 54.17C3.59 53.13 5.07 54.3 6.89 56.77C8.05 58.36 9.37 59.77 9.82 59.92C10.27 60.06 11.82 61.83 13.25 63.86L17.02 69.16C17.65 70.05 19.75 72.46 21.69 74.54L25.2 78.32L21.63 73.7C16.1799 66.5434 10.8458 59.2991 5.63 51.97C4.06 49.55 6.05 50.63 7.88 53.2C8.85 54.55 9.98 55.77 10.4 55.9C11.15 56.16 12.83 58.34 21.3 70.02C27.4 78.46 29.7 81.21 33.13 84.22L36.11 86.84L32.81 83.03C26.61 75.85 6.72 49.19 6.74 48.09C6.75 47.61 7.22 47.89 8.14 48.94C9.57745 50.531 11.0342 52.1045 12.51 53.66C14.9479 56.4169 17.2122 59.3225 19.29 62.36C28.04 75.13 44.64 93.5 53.83 100.59C62.26 107.09 80.52 118.64 84.21 119.82C85.14 120.12 86.21 120.73 86.58 121.19C86.95 121.65 89.78 123.56 92.86 125.44C100.12 129.87 104.39 133.05 105.21 134.64C105.91 136 108.51 138.19 109.43 138.19C110.36 138.19 111.91 139.64 115.75 144.06C117.75 146.38 119.74 148.46 120.15 148.68C120.56 148.9 121.49 149.6 122.22 150.25C123.19 151.11 123.06 150.84 121.7 149.18C110.91 136.06 101.84 128.97 78.73 115.58C53.71 101.07 44.67 93.44 28.23 72.94C22.28 65.52 7.86 45.42 8.23 45.04C8.9 44.38 15.57 52.12 19.83 58.5C25.73 67.34 26.5 68.34 31.48 73.5C33.78 75.9 35.44 77.55 35.16 77.19C34.89 76.82 32.39 73.61 29.62 70.04C26.046 65.3987 22.5587 60.6912 19.16 55.92C16.18 51.72 12.86 47.12 11.8 45.72C10.74 44.32 9.87 42.96 9.87 42.7C9.87 41.7 10.81 42.28 12.14 44.12C12.8081 45.0846 13.6409 45.9241 14.6 46.6C15.2 46.91 18.24 51.02 21.36 55.73C24.82 60.95 28.17 65.43 29.97 67.26C32.52 69.84 32.72 69.96 31.45 68.23C27.13 62.33 15.57 46.05 13.71 43.25C11.17 39.43 11.16 37.83 13.7 41.22C14.66 42.51 15.8 43.68 16.26 43.82C16.71 43.96 19.56 47.85 22.6 52.45C27.07 59.23 31.85 65.19 31.85 64C31.85 63.7 21.18 48.35 17.41 43.23C14.59 39.41 13.91 38.18 14.63 38.18C15.49 38.18 20.1 43.66 23.31 48.49C28.35 56.11 29.98 58.29 31.05 58.86C31.61 59.16 30.88 57.82 29.15 55.38C24.55 48.85 17.49 38.15 17.49 37.7C17.49 35.72 21.77 40.36 25.59 46.48C27.59 49.68 30.14 53.21 31.28 54.32L33.33 56.34L30.69 52.54C21.02 38.56 20.33 37.35 21.61 36.56C22.33 36.11 24.06 38.28 27.43 43.86C30.36 48.73 32.53 51.63 33.22 51.63C33.44 51.63 32.14 49.46 30.32 46.81C25.58 39.87 24.17 36.83 25.72 36.83C26.54 36.83 27.3 37.79 29.8 41.99C32.33 46.23 34.09 48.65 34.42 48.32C34.55 48.19 33.45 46.21 31.97 43.92C28.77 38.95 28.26 38.02 28.26 37.09C28.26 35.07 30.15 37.23 35.6 45.47C43.55 57.48 46.34 61.1 50.53 64.87L54.03 68L50.72 64.2C43.69 56.1 30.05 36.35 30.05 34.28C30.05 32.76 30.69 33.01 32.35 35.15C33.3018 36.3755 34.2855 37.5759 35.3 38.75C36.12 39.67 36.78 40.75 36.78 41.15C36.78 43.63 45.58 55.12 54.08 63.75C57.4215 67.0902 60.702 70.4907 63.92 73.95C66.01 76.47 72.32 81.21 74.86 82.15C77.87 83.28 79.79 84.62 80.29 85.92C80.91 87.55 93.08 94.24 95.42 94.24C97.37 94.24 105.7 98.91 118.32 107.09C127.09 112.78 128.65 113.09 121.54 107.73C116.11 103.63 110.65 100.43 97.81 93.8C64.94 76.79 52.05 65 34.14 35.5C30.76 29.93 31.34 27.7 34.86 32.74C37.51 36.54 37.87 35.94 35.4 31.82C34.18 29.79 33.25 27.91 33.33 27.65C33.7 26.55 34.85 27.35 36.69 29.97C39.49 34 39.83 33.43 37.19 29.09C35.97 27.07 35.02 25.11 35.09 24.76C35.36 23.34 36.35 23.88 38.04 26.36C39.02 27.79 40.28 29.36 40.85 29.86L41.89 30.76L40.89 29.19C37.17 23.33 36.16 20.67 37.67 20.67C37.92 20.67 39.03 22.06 40.12 23.77C41.98 26.67 42.9 27.7 43.29 27.32C43.38 27.23 42.35 25.45 41.01 23.35C38.66 19.68 38.15 18.29 38.96 17.79C39.47 17.48 40.86 19.04 42.61 21.91C43.4 23.21 44.43 24.48 44.9 24.73C46.13 25.39 45.97 24.96 44 22.33C40.71 17.93 39.43 14.6 41.16 14.92C41.59 15 42.79 16.36 43.84 17.94C46.1 21.39 47.52 23.09 47.87 22.74C48 22.61 46.77 20.5 45.14 18.07C42.4 14 41.5 11.7 42.62 11.7C43.25 11.7 44.46 13.17 47.2 17.28C48.5 19.24 50.06 21.15 50.67 21.54C51.99 22.38 52.06 22.51 48.37 16.99C46.93 14.84 45.75 12.67 45.75 12.16C45.75 10.2 47.23 11.43 50 15.71C51.58 18.16 53.3 20.38 53.8 20.65C55.06 21.33 55 21.14 52.94 18.05C50.32 14.09 49.51 12.25 50.14 11.62C50.8 10.96 51.66 11.65 53.01 13.88C55.41 17.88 57.05 20.16 57.71 20.41C58.36 20.66 58.36 20.58 57.7 19.57C55.83 16.73 53.79 12.57 54.04 12.16C54.6 11.26 55.64 11.73 56.75 13.38L62.78 22.46C65.48 26.53 69.21 31.78 71.07 34.12C72.93 36.47 74.45 38.66 74.46 38.99C74.47 40.03 77.26 43.18 78.7 43.79C79.6312 44.2279 80.4776 44.8271 81.2 45.56C81.8 46.23 83.12 47.17 84.1 47.66C85.83 48.53 85.78 48.44 82.72 45.26C69.8 31.92 57.17 14.76 58.8 12.79C59.5 11.95 60.94 13.21 62.65 16.18C63.3 17.3 66.59 22.06 69.96 26.74C73.33 31.43 76.36 35.92 76.68 36.72C77.31 38.3 80.38 41.32 81.35 41.32C81.68 41.32 82.77 42.12 83.78 43.12C84.78 44.1 85.91 44.91 86.28 44.91C87.15 44.91 89.72 47.06 89.72 47.78C89.72 48.08 91.86 49.82 94.48 51.65C97.09 53.47 99.74 55.63 100.36 56.43C101.23 57.57 101.71 57.85 102.5 57.65C103.07 57.51 104.2 57.73 105.03 58.15C107.28 59.29 106.2 58.44 100.48 54.57C86.6582 45.2387 74.829 33.2531 65.68 19.31C63.11 15.37 62.35 11.84 64.45 13.58C65.57 14.51 78.77 32.9 79.61 34.7C80.48 36.55 83.09 39.08 84.14 39.08C84.51 39.08 86.17 40.35 87.83 41.9C89.48 43.45 93.1 46.38 95.86 48.42C98.63 50.46 101.26 52.64 101.72 53.27C102.36 54.15 103.01 54.45 104.38 54.51C106.18 54.61 106.14 54.56 100.09 50.17C89.55 42.54 85.61 38.82 76.29 27.69C69.84 19.99 67.11 15.13 68.91 14.54C69.52 14.34 81.01 29.55 82.38 32.39C83.4 34.51 85.96 36.9 87.83 37.49C88.4 37.66 90.43 39.25 92.35 41.02C94.4499 42.9418 96.639 44.7638 98.91 46.48C100.61 47.71 102.21 49.12 102.47 49.62C103.13 50.86 103.53 51.08 104.67 50.87C105.89 50.63 110.57 53.82 110.58 54.89C110.58 56.09 120.14 62.39 121.96 62.39C123.14 62.39 127.18 65.05 129.05 67.04C131.09 69.23 135.48 72.38 137.27 72.94C140 73.8 155.21 86.64 155.21 88.08C155.21 88.9 159.31 93.26 160.58 93.78C163.08 94.82 187.96 126.04 187.96 128.14C187.96 130.24 184.93 127.38 180.76 121.37C173.41 111.073 165.445 101.228 156.91 91.89C151.54 86.15 138.29 75.49 126.9 67.74C111.91 57.55 106.18 54.06 110.11 57.51C110.98 58.28 111.7 59.29 111.7 59.76C111.7 60.24 112.15 60.81 112.7 61.03C113.26 61.25 115.32 62.46 117.29 63.71C119.25 64.96 121.28 65.99 121.79 65.99C122.94 65.99 126.88 68.42 127.23 69.34C127.59 70.27 133 74.19 135.76 75.51C140.3 77.69 151.46 86.98 153.66 90.41C155 92.51 156.78 94.29 160.86 97.58C165.52 101.35 185.96 128.71 184.9 129.78C184.17 130.49 182.18 128.54 179.3 124.28C166.52 105.38 157.56 95.58 137.74 78.8L136.64 77.87L137.34 78.99C137.72 79.61 139.73 81.49 141.8 83.17C148.52 88.62 151.17 91.13 152.68 93.49C154.212 95.8041 156.203 97.7784 158.53 99.29C161.63 101.45 182.13 128.48 182.13 130.41C182.13 132.47 179.33 129.81 175.97 124.57C171.75 117.99 160.73 103.91 155.44 98.33C152.19 94.91 137.37 81.88 137.07 82.18C136.72 82.53 138.51 84.27 142.87 87.79C147.47 91.5 149.82 93.91 152.43 97.57C153.316 98.7796 154.389 99.8397 155.61 100.71C159.4 103.11 178.99 128.51 178.99 131.03C178.99 133.23 177.15 131.51 173.12 125.53C162.56 109.83 154.18 100.18 142.65 90.44C135.29 84.23 135.52 84.4 137.05 86.1C137.78 86.92 140.62 89.49 143.35 91.8C146.07 94.1 148.59 96.55 148.95 97.24C150.02 99.35 152.51 102.22 154.05 103.14C157.53 105.18 175.78 129.01 176.01 131.79C176.17 133.77 174.4 131.77 165.63 120.03C155.56 106.55 151.08 101.47 143.59 95.03L137.76 90L136.68 89.07L137.69 90.48C138.25 91.25 140.51 93.35 142.71 95.13C144.91 96.91 147.04 99 147.44 99.78C148.66 102.13 150.38 104.15 152.11 105.24C155.81 107.58 173.16 130.18 173.16 132.67C173.16 134.45 171.13 132.23 164.38 123.05C156.21 111.95 153.58 108.65 148.96 103.87C145.15 99.92 137.42 93.3 138.1 94.57C138.38 95.08 140.09 96.73 141.9 98.23C143.7 99.73 145.47 101.51 145.82 102.19C146.845 104.31 148.394 106.134 150.32 107.49C154.69 110.25 170.6 131.58 169.79 133.6C169.39 134.59 169.04 134.16 159.41 121.14C152.25 111.47 142.24 100.42 139.12 98.74C137.34 97.8 138.15 99.05 140.58 101.02C141.91 102.1 143.63 104.02 144.4 105.3C145.18 106.58 146.45 108.1 147.22 108.67C153.8 113.49 169.45 134.67 166.36 134.57C166.03 134.57 162.28 129.87 158.03 124.15C149.93 113.22 146.08 108.73 141.15 104.4C137.82 101.47 137.03 101.64 140.18 104.6C141.29 105.63 142.2 106.72 142.2 107C142.2 107.81 145.3 111.22 146.66 111.93C149.82 113.56 163.73 132.05 163.73 134.61C163.73 136.09 161.73 133.85 154.84 124.73C146.76 114 143.57 110.26 139.96 107.23C137.36 105.07 137.19 105.11 139.06 107.46C139.8 108.39 140.41 109.4 140.41 109.7C140.41 110.3 144.62 114.41 145.24 114.41C146.69 114.41 160.59 132.97 160.59 134.91C160.59 136.61 158.71 134.64 152.46 126.43C144.84 116.4 141.02 111.85 138.86 110.2L137.42 109.1L137.91 110.65C138.441 111.889 139.213 113.011 140.18 113.95L145.17 118.83C150.28 123.82 158.2 134.9 157.3 135.8C156.67 136.43 155.37 135.02 149.33 127.13C141.19 116.48 135.79 110.7 136.21 113.07C136.52 114.84 138.06 116.71 140.47 118.25C143.79 120.37 153.87 133.54 153.87 135.75C153.87 137.62 153.27 137.04 147.19 129.21C137.14 116.28 132.84 111.77 133.87 115.21C134.35 116.82 135.79 118.44 139.77 121.81C145.06 126.31 153 138.05 150.17 137.19C149.86 137.09 147.13 133.89 144.1 130.09C141.07 126.28 137.6 122.03 136.38 120.64C133.83 117.72 128.78 113.34 130.43 115.48C130.98 116.19 131.43 117.21 131.43 117.75C131.43 118.85 134.14 121.62 136.12 122.55C136.92 122.91 139.19 125.48 141.84 128.99C144.27 132.19 146.45 134.89 146.7 134.97C146.95 135.06 148.4 136.77 149.9 138.78C151.42 140.8 152.79 142.59 152.95 142.78C153.11 142.96 153.15 142.41 153.05 141.54C152.65 138.11 155.35 140.14 158.08 145.32C160.65 150.22 160.2 152.91 157.41 149.28C156.61 148.23 155.8 147.2 155.61 146.98C154.72 145.94 155.94 150.71 156.89 151.95C157.49 152.75 157.85 153.61 157.69 153.87C157.24 154.58 156.74 154.1 154.35 150.7L152.16 147.59V149.14C152.16 150.25 152.66 151.37 153.91 153.04C155.66 155.38 156.16 156.81 155.11 156.46C154.79 156.36 153.18 154.29 151.51 151.86C148.33 147.23 147.56 146.24 148.45 147.96C148.75 148.52 148.95 149.33 148.9 149.75C148.77 151.11 148.9 151.39 151.17 154.51C152.41 156.2 153.41 158.01 153.4 158.53C153.37 159.93 150.9 156.99 147.52 151.53C146.633 150.034 145.689 148.573 144.69 147.15C144.21 147.15 146.81 153.35 148.09 155.29C149.96 158.09 151.17 160.37 151.17 161.03C151.17 162.43 149.82 160.84 145.95 154.89C141.55 148.11 140.2 146.27 141.48 148.81C141.88 149.61 142.2 150.45 142.2 150.7C142.2 150.95 142.7 151.9 143.32 152.8C143.94 153.7 144.45 154.72 144.45 155.05C144.45 155.38 145.45 157.19 146.69 159.08C148.86 162.41 149.39 163.75 148.51 163.75C148.27 163.75 146.03 160.67 143.52 156.91C138.26 149.01 137.98 148.66 138.42 150.51C138.6 151.26 139.35 152.63 140.09 153.58C140.901 154.655 141.561 155.836 142.05 157.09C142.4 158.09 143.48 160.08 144.45 161.52C146.12 163.97 146.88 166.43 145.75 165.74C145.49 165.58 142.75 161.63 139.65 156.97C134.29 148.87 132.85 146.93 134.34 149.82C134.72 150.55 135.02 151.37 135.02 151.66C135.02 151.94 136.14 153.69 137.49 155.55C138.85 157.4 139.96 159.35 139.96 159.88C139.96 160.4 140.88 162.13 141.98 163.71C143.93 166.51 144.44 167.78 143.58 167.78C142.96 167.78 141.06 165.18 135.35 156.5C132.48 152.14 129.9 148.43 129.6 148.25C129.31 148.07 129.6 148.7 130.26 149.65C130.9 150.61 131.44 151.73 131.44 152.13C131.44 152.53 132.74 154.6 134.31 156.73C135.9 158.85 137.34 161.25 137.51 162.05C137.69 162.86 138.61 164.61 139.57 165.95C141.12 168.12 141.8 170.02 141.02 170.02C140.59 170.02 140.02 169.24 133.18 159.15C129.71 154.03 126.68 149.73 126.45 149.59C125.69 149.12 129.35 155.39 131.97 159.04C133.39 161.01 134.67 163.23 134.83 163.97C135.296 165.328 135.957 166.611 136.79 167.78C138.72 170.62 139.19 171.69 138.63 172.03C138.12 172.35 136.58 170.33 130.63 161.5C127.89 157.43 125.14 153.5 124.52 152.76L123.39 151.41L123.92 152.98C124.2 153.85 125.79 156.37 127.44 158.58C131.14 163.58 132.33 165.52 132.34 166.6C132.34 167.05 132.91 168.16 133.62 169.06C135.19 171.06 136.52 173.61 136.18 173.95C135.67 174.47 133.97 172.36 129.06 165.12C114.21 143.2 106.08 135.8 78.5 119.12C63.27 109.9 56.72 105.46 49.12 99.22L45.08 95.9L48.22 99C53.05 103.74 64.88 112.23 75.92 118.88C91.99 128.56 101.78 135.1 101.82 136.18C101.84 136.98 104.74 139.53 105.62 139.53C106.72 139.53 120.67 153.66 120.67 154.77C120.67 155.23 122.15 157.48 123.97 159.79C127.93 164.82 129.64 167.48 129.64 168.61C129.64 169.07 130.32 170.33 131.14 171.41C133.48 174.49 134.11 175.85 133.19 175.85C132.5 175.85 131.67 174.79 125.86 166.44C111.24 145.4 102.86 137.82 76.26 121.57C58.12 110.5 50.97 105.1 38.6 93.15C36.28 90.91 35.13 89.98 36.04 91.09C43.07 99.64 62.34 114.34 83.34 127.19C91.94 132.45 97.1 136.21 98.2 138.03C99.1284 139.539 100.617 140.618 102.34 141.03C103.06 141.2 105.34 143.27 108.17 146.31C110.72 149.06 113.56 151.78 114.47 152.36C115.491 152.933 116.245 153.885 116.57 155.01C116.81 155.9 118.5 158.47 120.32 160.74C124.58 166.04 126.94 169.57 126.94 170.63C126.94 171.09 127.54 172.21 128.26 173.13C129.81 175.09 130.79 177.09 130.39 177.49C129.87 178.01 128.91 176.83 123.39 168.96C109.05 148.5 101.08 141.14 75.27 124.52C61.2 115.46 54.7 111 48.66 106.25C46.19 104.31 45.18 103.65 46.42 104.8C51.96 109.92 60.95 116.64 69.25 121.88C82.49 130.24 88.75 134.54 89.85 136.06C91.23 137.95 96.4 141.78 98 142.1C98.95 142.3 101.03 144.1 105.19 148.35C108.4 151.64 111.29 154.33 111.6 154.33C111.91 154.33 112.57 155.18 113.06 156.23C113.54 157.28 115.65 160.26 117.73 162.85C121.27 167.25 124.25 171.95 124.25 173.13C124.25 173.41 125.05 174.66 126.05 175.91C127.03 177.16 127.84 178.6 127.84 179.11C127.84 180.7 126.05 178.65 119.72 169.8C113.07 160.5 107.86 154.18 102.9 149.4L99.4 146.03L102.9 149.81C104.82 151.89 106.57 154.06 106.78 154.63C107 155.2 107.5 155.67 107.88 155.67C108.28 155.67 108.88 156.33 109.22 157.13C109.57 157.93 111.49 160.61 113.49 163.07C117.86 168.46 120.57 172.42 120.96 174C121.12 174.63 122.13 176.34 123.2 177.8C125.24 180.56 125.42 181.01 124.72 181.45C124.29 181.71 122.74 179.75 113.33 167.1C107.75 159.6 101.83 152.91 97.28 149L93.97 146.16L97.89 149.98C100.05 152.08 101.82 154.08 101.83 154.4C101.83 154.73 103.26 156.61 105 158.59C112.66 167.3 117.97 174.47 117.97 176.09C117.97 176.61 118.87 178.09 119.99 179.39C121.09 180.69 121.99 182.19 121.99 182.73C121.96 184.06 119.21 181.06 114.77 174.87C107.35 164.52 98.82 154.87 91.72 148.79L89.03 146.48L91.28 149.11C92.51 150.55 95.85 154.19 98.7 157.18C107.6 166.53 114.83 175.8 114.83 177.88C114.83 178.4 115.33 179.3 115.93 179.88C117.45 181.3 119.51 184.33 119.18 184.66C118.52 185.32 117.27 183.96 111.43 176.24C101.78 163.48 94.9 155.9 87.09 149.44C83.07 146.1 85.89 149.64 91.91 155.44C99.56 162.84 110.34 175.69 110.34 177.41C110.34 177.81 111.41 179.42 112.73 181.01C115.41 184.26 116.47 186.02 116.02 186.47C115.5 186.99 113.15 184.41 108.19 177.89C98.64 165.34 91.35 157.42 83.19 150.74C77.82 146.35 80.13 149.45 86.64 155.37C93.99 162.07 105.37 175.04 105.4 176.75C105.4 177.12 106.79 179.09 108.47 181.12C111.77 185.08 113.41 187.73 112.9 188.25C112.4 188.75 110.58 186.81 106.15 181.04C94.87 166.34 85.99 157.08 74.92 148.48L72.92 146.93L74 148.39C74.59 149.19 77.1 151.61 79.58 153.77C88.03 161.11 100.02 173.97 100.02 175.68C100.02 176.06 101.69 178.38 103.72 180.84C108.16 186.19 109.87 188.86 108.85 188.86C108.48 188.86 107.28 187.8 106.19 186.51L106.2 186.5ZM123.3 145.72C116.08 137.1 108.87 130.62 100.48 125.24C93.48 120.74 94.3 121.99 101.83 127.3C104.451 129.189 106.915 131.286 109.2 133.57C110.92 135.37 112.63 136.83 113.02 136.83C113.4 136.83 116.14 139.36 119.1 142.45C124.6 148.19 126.78 149.89 123.3 145.72ZM126.43 144.12C119.93 136.12 108.33 125.62 102.06 122.08L100.26 121.06L101.61 122.11C102.35 122.68 104.07 124.16 105.43 125.4C106.749 126.601 108.138 127.723 109.59 128.76C110.52 129.38 111.39 130.33 111.53 130.88C111.87 132.18 115.05 135.04 116.16 135.04C116.67 135.04 118.17 136.36 119.86 138.29C122.69 141.54 128.68 147.59 129.06 147.59C129.16 147.59 127.99 146.03 126.43 144.12ZM129.88 143C125.88 137.86 120.5 132.18 115.8 128.17C110.12 123.31 109.1 122.61 112.26 125.71C113.68 127.1 114.84 128.61 114.84 129.08C114.84 130.21 117.34 132.58 119.44 133.45C120.56 133.92 122.04 135.31 123.91 137.62C126.28 140.58 131.77 146.25 132.25 146.25C132.33 146.25 131.27 144.79 129.88 143ZM131.38 139.86C125.45 132.04 113.23 119.75 117.67 126.08C118.09 126.68 118.43 127.51 118.43 127.93C118.43 128.65 121.13 131.07 123.14 132.16C123.64 132.43 125.24 134.14 126.73 135.97C129.23 139.05 133.53 143.57 133.98 143.57C134.08 143.57 132.91 141.9 131.38 139.87V139.86ZM141.93 143C133.35 128.17 117.56 115.16 91.07 101.08C79.77 95.08 74.02 91.82 69.31 88.74L66.61 86.97L68.52 88.62C69.57 89.52 70.43 90.61 70.43 91.03C70.43 91.48 71.4 92.37 72.79 93.18C74.08 93.93 76.34 95.28 77.81 96.18C79.27 97.08 80.94 97.82 81.51 97.82C83.42 97.82 99.31 106.39 111.03 113.75C112.862 114.942 114.751 116.043 116.69 117.05C118.64 117.8 123.97 122.64 124.04 123.73C124.13 124.91 126.68 127.73 128.04 128.13C129.46 128.57 130.38 129.52 133.98 134.26C135.81 136.66 137.78 138.94 138.36 139.32C138.95 139.7 139.97 140.82 140.65 141.79C141.8 143.44 142.66 144.26 141.93 143ZM133.88 137.7C128.98 131.22 125.07 126.86 122.55 125.05L120.36 123.48L121 125.34C121.82 127.7 122.56 128.51 125.05 129.72C126.53 130.43 127.87 131.72 130.04 134.55C132.64 137.92 136.61 142.22 137.13 142.22C137.23 142.22 135.76 140.18 133.88 137.7ZM70.88 140.74C70.88 140.43 70.22 139.94 69.42 139.64L67.96 139.11L69.31 140.21C70.87 141.5 70.88 141.5 70.88 140.74ZM142.15 137.87C138.312 132.55 134.044 127.553 129.39 122.93C126.99 120.59 125.36 119.17 125.77 119.78C126.17 120.38 126.5 121.33 126.5 121.88C126.5 122.88 130.18 126.52 131.19 126.52C131.87 126.52 133.9 128.72 136.59 132.35C138.49 134.92 143.04 139.97 143.45 139.97C143.53 139.97 142.95 139.03 142.15 137.87ZM145.55 137.39C141.79 131.55 131.39 119.59 129 118.36C128.24 117.97 128.17 117.99 128.64 118.48C128.94 118.81 129.2 119.51 129.2 120.05C129.2 121.09 132.35 124.28 133.37 124.28C134.16 124.28 136.11 126.41 139.52 131C141.93 134.24 145.62 138.45 146.18 138.59C146.28 138.61 145.98 138.07 145.55 137.39ZM43.07 135.31C43.07 135.21 41.8 134.08 40.27 132.8L37.46 130.47L40.11 132.97C42.65 135.38 43.07 135.71 43.07 135.31ZM109.1 122.81C108.508 122.263 107.85 121.793 107.14 121.41C105.38 120.4 105.67 120.81 107.75 122.29C109.45 123.49 109.76 123.61 109.1 122.82V122.81ZM93.09 120.56C92.35 120.01 91.43 119.26 91.05 118.89C90.5355 118.464 89.912 118.19 89.25 118.1C88.49 118.02 89.06 118.54 91.07 119.77C94.31 121.75 95.13 122.07 93.09 120.57V120.56ZM102.03 118.5C101.8 118.28 95.25 114.48 87.48 110.06C79.7 105.64 72.74 101.64 72 101.18C69.57 99.67 71.48 101.2 75.3 103.83C82.88 109.07 104.83 121.1 102.03 118.5ZM107.66 118C105.7 116.45 97.12 111.4 88.91 106.94C70.25 96.8 65.52 93.9 58.64 88.44C53.14 84.08 46.14 77.09 40.93 70.77C34.29 62.73 33.78 62.2 35.78 65.43C42.36 76.1 64.93 97.37 69.68 97.37C70.78 97.37 71.59 97.74 72.51 98.65C73.56 99.71 104.93 117.71 107.21 118.57C108.58 119.08 108.76 118.85 107.66 117.99V118ZM113.5 118.24C113.5 117.28 102.24 110.48 88.53 103.18C72.63 94.7 67.11 91.28 59.43 85.11C53.99 80.73 43.34 69.56 38.63 63.28C37.1862 61.3462 35.7328 59.4195 34.27 57.5C34.19 57.4 34.45 58.21 34.86 59.3C35.83 61.88 36.88 63.27 43.1 70.23C45.96 73.44 48.84 76.91 49.5 77.95C52.2 82.27 73.35 98.26 76.35 98.26C77.65 98.26 100.86 111.08 109.28 116.45C110.55 117.25 111.96 118.01 112.43 118.12C112.89 118.24 113.33 118.36 113.38 118.39C113.45 118.43 113.5 118.35 113.5 118.24ZM85.75 116.05C84.94 115.19 81.65 113.69 81.65 114.19C81.65 114.35 86.25 117.07 86.55 117.09C86.65 117.09 86.29 116.63 85.75 116.05ZM92.17 116.5C89.31 114.57 84.31 112.14 84.8 112.91C85.09 113.38 86.19 114.12 87.24 114.56C88.3 114.99 89.54 115.73 90 116.2C90.5356 116.698 91.2215 117.004 91.95 117.07C93.02 117.1 93.03 117.07 92.17 116.5ZM121.37 115.8C120.37 114.16 108.17 106.71 94.87 99.61C87.3759 95.6197 79.9739 91.4586 72.67 87.13C72.06 86.75 72.41 87.2 73.46 88.13C74.51 89.05 75.36 90.1 75.36 90.46C75.36 91.64 85.8 97.36 87.94 97.36C89.76 97.36 105.74 106.36 115.12 112.66C116.628 113.697 118.201 114.635 119.83 115.47C121.73 116.3 121.67 116.28 121.37 115.79V115.8ZM123.14 113.07C120.68 110.34 109.44 103.63 90.27 93.41C75.97 85.79 66.53 79.64 59.9 73.61C58.15 72.01 58.36 72.34 60.88 75.11C64.6 79.2 67.89 81.8 71.2 83.26C74.6 84.76 77.6 86.96 77.6 87.92C77.6 89.46 87.21 94.7 92.5 96.04C95.04 96.68 102.86 101.09 113.49 107.84C120.24 112.14 122.99 113.77 123.77 113.92C123.87 113.95 123.59 113.56 123.14 113.07ZM72.64 108.84C72.54 108.74 69.12 106.44 65.04 103.73C56.5 98.03 49.96 92.91 44.07 87.31C41.79 85.14 39.93 83.5 39.93 83.66C39.93 84.86 51.56 95.25 59.66 101.29C63.41 104.09 74.17 110.35 72.64 108.84ZM124.71 106.28C120.41 102.54 110.11 96.35 98.69 90.64C80.51 81.57 70.92 75.24 61.03 65.77C56.9 61.82 56.86 61.79 59.23 64.63C64.4 70.79 73.24 78.17 78.06 80.35C81.9 82.09 82.32 82.38 82.46 83.3C82.62 84.43 87.84 87.32 88.51 86.65C89.1 86.05 91.05 87.01 90.77 87.75C90.45 88.58 97.19 92.42 98.99 92.43C101.05 92.43 106.72 95.56 118.21 102.99C125.35 107.62 127.49 108.69 124.71 106.28ZM126.73 103.88C121.53 99.58 113.66 94.85 99.81 87.72C72.21 73.52 60.92 64.02 46.02 42.48C43.66 39.05 41.72 36.38 41.72 36.55C41.72 38.5 47.47 46.93 52.37 52.19C56.77 56.9 61.01 62.07 61.01 62.73C61.01 64.61 79.39 78.37 83.56 79.62C83.99 79.75 84.54 80.36 84.77 80.97C85.3 82.34 89.59 84.67 90.29 83.97C90.96 83.3 94.15 85.05 94.65 86.36C95.11 87.59 101.69 91.09 103.53 91.09C104.94 91.09 108.87 93.22 115.68 97.69C120.75 101.03 127.36 104.99 127.84 104.99C127.97 104.99 127.47 104.49 126.73 103.87V103.88ZM128.97 101.6C124.01 97.47 116.17 92.72 102.73 85.7C79.77 73.72 74.72 70.31 64.6 60C56.95 52.21 56.68 51.99 56.87 53.58C57.07 55.23 62.63 61.94 63.8 61.94C64.06 61.94 67.14 64.25 70.65 67.08C74.15 69.9 78.72 73.24 80.79 74.5C82.86 75.75 85.09 77.36 85.76 78.08C87.35 79.8 90.51 81.4 92.1 81.29C93.36 81.2 98.63 83.69 98.74 84.42L98.85 85.32C98.93 86 106.28 89.74 107.55 89.74C109 89.74 111.55 91.12 117.55 95.14C120.39 97.04 123.92 99.22 125.39 99.97C126.86 100.72 128.47 101.64 128.96 102.03C130.42 103.16 130.42 102.81 128.96 101.6H128.97ZM43.51 102.17C43.51 102.1 42.25 100.84 40.71 99.37L37.91 96.69L40.58 99.49C43.08 102.1 43.51 102.51 43.51 102.17ZM64.6 100.15C58.2 95.79 53.4 91.65 45.04 83.23C37.49 75.63 35.86 74.17 36.97 76.01C40 81.03 55.57 95.3 62.13 99.1C65.39 100.98 66.53 101.46 64.6 100.15ZM130.32 98.89C127.18 96.26 117.19 89.97 109.68 85.92C81.43 70.66 76.95 67.69 66.78 57.52C59.4 50.12 55.12 44.85 48.91 35.48C45.24 29.93 44.85 29.59 46.89 33.68C49.3 38.52 53.19 44.25 54.98 45.62C56.13 46.5 56.52 47.13 56.52 48.14C56.52 50.31 66.18 60.98 70.21 63.26C71.19 63.82 74.42 66.06 77.38 68.22C80.34 70.38 84 72.88 85.52 73.76C87.03 74.65 88.39 75.67 88.52 76.04C88.87 76.93 92.33 78.66 93.15 78.34C94.06 77.99 102.73 82.42 102.73 83.24C102.73 83.6 103.18 84.17 103.73 84.5C109.26 87.85 111.26 88.85 112.45 88.85C113.4 88.85 115.19 89.77 118.25 91.84C120.48 93.3574 122.783 94.7658 125.15 96.06C126.52 96.74 128.43 97.91 129.42 98.66C131.59 100.32 132.19 100.47 130.32 98.89ZM63.7 95.86C63.7 95.77 61.73 94.21 59.33 92.39C54.2 88.51 42.99 77.69 38.45 72.25C33.97 66.88 33.79 66.73 35.87 70.08C39.71 76.25 52.52 89.29 57.85 92.45C59.47 93.41 61.39 94.6 62.13 95.1C63.53 96.05 63.7 96.13 63.7 95.86ZM129 94.27C128.1 92.82 100.49 76.4 100.49 77.32C100.49 77.44 101.89 78.37 103.63 79.4C105.63 80.59 106.77 81.55 106.77 82.06C106.77 82.53 107.44 83.16 108.45 83.64C109.37 84.08 111.66 85.32 113.53 86.41C115.41 87.51 117.33 88.4 117.8 88.4C118.27 88.4 119.56 89.02 120.67 89.77C121.78 90.53 123.7 91.61 124.93 92.19C126.17 92.76 127.58 93.55 128.07 93.94C129.11 94.76 129.35 94.84 129 94.27ZM125.6 88.22C125.6 87.87 118.56 83.52 113.9 80.99C111.34 79.59 108.12 77.83 106.77 77.07C103.64 75.33 103.99 75.75 107.63 78.09C109.18 79.09 110.55 80.31 110.68 80.79C110.81 81.28 111.05 81.67 111.22 81.67C111.38 81.67 114.14 83.17 117.33 85.02C122.17 87.82 125.61 89.14 125.61 88.22H125.6ZM128.54 86.62C128.2 86.08 118.7 80.09 114.62 77.85L111.48 76.12L112.97 77.54C113.79 78.32 114.33 79.16 114.17 79.41C114.02 79.67 114.46 80.11 115.15 80.41C115.85 80.71 118.31 82.16 120.63 83.65C123.15 85.25 125.59 86.45 126.69 86.64C127.69 86.8 128.59 86.97 128.66 87C128.74 87.03 128.69 86.86 128.54 86.63V86.62ZM67.52 83.8C63.5316 80.7879 59.6999 77.5737 56.04 74.17L52.44 70.77L53.85 73.05C55.45 75.62 61.6 80.89 65.75 83.25C68.86 85.02 69.38 85.18 67.52 83.8ZM128.68 83.06C126.19 81.28 115.54 74.66 113.5 73.63C112.74 73.25 112.92 73.53 114.06 74.49C114.98 75.27 115.74 76.29 115.74 76.75C115.74 77.23 116.17 77.71 116.74 77.89C117.3 78.05 119.88 79.56 122.48 81.24C125.3 83.07 127.83 84.38 128.76 84.49C129.62 84.59 130.5 84.71 130.73 84.75C130.95 84.79 130.03 84.03 128.68 83.06ZM133.23 82.81C133.23 82.52 121.98 75.04 119.1 73.41C117.87 72.71 116.22 71.76 115.43 71.29L114.01 70.44L114.51 71.75C115.18 73.52 129.17 82.4 131.07 82.26C131.75 82.21 132.43 82.36 132.57 82.6C132.85 83.05 133.23 83.17 133.23 82.81ZM54.44 76.64C50.14 72.47 44.1 65.39 35.79 54.76L34.57 53.2L35.07 54.77C36.65 59.79 54.04 78.86 59.55 81.63C59.61 81.66 57.31 79.41 54.44 76.63V76.64ZM134.58 80.1C134.58 79.9 116.76 68.3 114.62 67.1C112.84 66.1 112.54 66.03 113.16 66.73C113.59 67.23 113.95 67.91 113.95 68.26C113.95 69.17 118.93 72.26 120.91 72.58C121.93 72.74 122.66 73.14 122.78 73.58C123.27 75.45 134.58 81.68 134.58 80.09V80.1ZM136.11 77.58C135.61 76.76 119.35 66.28 111.93 61.98L110.13 60.95L111.62 62.18C112.43 62.85 113 63.67 112.87 64C112.61 64.68 119.69 68.92 122.28 69.64C123.78 70.05 125.28 71.17 125.66 72.14C126.09 73.24 133.69 77.96 134.96 77.92C135.69 77.89 136.2 77.74 136.11 77.58ZM99.07 76.53C97.6224 75.652 96.1484 74.8183 94.65 74.03C75.82 63.79 65.53 54.14 51.2 33.27C49.44 30.7 48 28.74 48 28.92C48 29.76 50.57 34.12 53.06 37.49C55.77 41.16 56.58 42.49 58.08 45.84C58.92 47.72 63.08 52.52 63.86 52.52C64.56 52.52 69.98 57.9 69.98 58.6C69.98 59.27 73.13 62.39 73.81 62.39C74.59 62.39 89.79 72.8 91.41 74.45C92.65 75.7 93.11 75.9 94.33 75.69C95.15 75.54 96.36 75.7 97.13 76.05C98.49 76.68 99.46 76.91 99.07 76.52V76.53ZM103.17 75.23C103.17 75.02 93.89 69.87 92.75 69.45C83.35 65.95 65.58 48.67 54.62 32.38C52.22 28.81 50.24 26.03 50.24 26.21C50.24 27.17 53.28 32.3 56.54 36.84C58.56 39.67 60.76 42.9 61.41 44.01C62.07 45.11 65.75 49.05 69.61 52.75C73.46 56.45 76.75 59.94 76.93 60.49C77.12 61.07 77.77 61.63 78.44 61.8C80.22 62.25 90.62 69.15 92.76 71.31C94.4 72.98 94.81 73.17 96.1 72.94C97.2 72.75 98.26 73.02 100.26 74.01C103.35 75.53 103.18 75.46 103.18 75.23H103.17ZM106.24 73.39C106.12 73.26 102.86 71.35 99 69.14C80.05 58.3 69.85 48.81 56.97 30.1C54.68 26.77 52.96 24.44 53.14 24.94C53.33 25.44 53.67 26.49 53.9 27.29C54.38 28.95 58.79 35 66.58 44.69C68.6235 47.1696 70.5911 49.7107 72.48 52.31C72.9435 52.9693 73.5615 53.5049 74.28 53.87C76.98 55.27 78.78 56.55 80.53 58.32C81.51 59.32 84.72 61.61 87.65 63.39C90.59 65.17 93.39 67.18 93.88 67.84C94.86 69.16 97.02 70.27 97.75 69.82C98 69.66 99.98 70.44 102.15 71.54C106.05 73.53 106.68 73.81 106.25 73.38L106.24 73.39ZM106.77 69.99C106.4 69.75 102.69 67.53 98.53 65.06C87.95 58.77 82.48 54.58 75.1 47.07C68.6 40.47 68 39.72 60.4 28.98C56.83 23.92 56.03 23.01 56.28 24.28C56.67 26.24 59.18 29.98 65.32 37.73C67.96 41.06 70.99 45.14 72.06 46.8C73.41 48.9 74.36 49.9 75.2 50.12C75.86 50.28 77.46 51.38 78.76 52.56C80.0896 53.7586 81.5685 54.7804 83.16 55.6C84.29 56.1 86.07 57.39 87.13 58.46C88.5785 59.8443 90.1671 61.0743 91.87 62.13C93.42 63.06 95.12 64.41 95.65 65.13C96.65 66.48 97.93 67.13 99.22 66.94C99.63 66.89 101.55 67.64 103.48 68.63C106.84 70.35 108.21 70.91 106.77 69.98V69.99ZM50.64 68.73C50.05 68.01 47.89 65.43 45.84 63.01C43.3827 60.063 41.0247 57.0347 38.77 53.93C36.82 51.21 35.44 49.63 35.44 50.13C35.44 51.23 44.41 63.2 48.13 67.09C50.96 70.05 52.61 71.12 50.63 68.73H50.64ZM106.32 66.26C106.32 66.16 104.25 64.87 101.72 63.4C99.19 61.92 95.76 59.8 94.09 58.68C91.75 57.11 91.26 56.9 91.95 57.78C92.45 58.4 93.71 59.47 94.75 60.15C95.81 60.83 97.22 62.03 97.88 62.8C98.79 63.88 99.34 64.16 100.12 63.97C100.8 63.81 102.02 64.19 103.62 65.06C106.3 66.51 106.32 66.52 106.32 66.26ZM109 64C109 63.9 107.64 63.01 105.97 62.02C102.99 60.24 91.67 52.62 89.04 50.62C88.3 50.05 88.91 50.81 90.39 52.29C91.9167 53.808 93.573 55.1899 95.34 56.42C96.58 57.22 98.24 58.58 99.01 59.46C100.09 60.68 100.67 61 101.46 60.82C102.16 60.66 103.51 61.16 105.63 62.37C108.93 64.24 109 64.27 109 64ZM53.5 57.57C50.82 54.46 45.89 47.79 42.63 42.87C39.76 38.55 39.26 37.97 39.93 39.74C41.47 43.86 46.6 51.16 51.33 55.98C56.03 60.77 56.61 61.19 53.5 57.57ZM88.37 54.59C88.37 54.49 86.57 52.99 84.37 51.26C78.27 46.44 67.34 33.84 61.21 24.56C60.25 23.11 59.4 22.16 59.31 22.43C58.96 23.46 61.14 26.93 65.97 33.01C68.71 36.46 71.54 40.31 72.26 41.57C73.81 44.27 76.56 47.14 77.59 47.14C77.99 47.14 79.21 48.04 80.29 49.16C81.39 50.26 82.51 51.17 82.79 51.17C83.06 51.17 84.38 51.97 85.72 52.93C88.35 54.83 88.37 54.85 88.37 54.59ZM54.9 49.27C53.8294 47.7158 52.7292 46.1821 51.6 44.67C49.7787 42.1939 47.9951 39.6903 46.25 37.16C43.38 32.96 43.05 32.78 44.91 36.49C47.34 41.29 50.7 46.18 52.87 48.04C55.11 49.96 55.41 50.14 54.9 49.27ZM78.52 175.75C73.45 170.15 65.65 162.95 46.21 145.92C27.63 129.65 8.97 111.62 8.97 109.95C8.97 108.4 11.03 110.06 19.87 118.75C29.45 128.17 32.87 131.26 53.63 149.23C68.72 162.29 72.4 165.69 73.23 167.33C73.65 168.17 75.89 170.79 78.19 173.14C82.72 177.76 84.79 180.16 84.79 180.82C84.79 182.12 82.93 180.62 78.52 175.75ZM70.65 172.58C64.8923 166.925 58.9835 161.427 52.93 156.09C24.13 130.53 6.73 113.72 7.3 112.01C7.73 110.74 9.26 112.02 19.14 121.93C26.6743 129.374 34.4208 136.601 42.37 143.6C58.44 157.63 65.05 163.66 65.05 164.3C65.05 164.6 67.67 167.47 70.88 170.71C75.95 175.84 77.61 178.07 76.38 178.11C76.18 178.11 73.61 175.62 70.65 172.58ZM60 166.96C56 163.06 48.28 155.86 42.85 150.98C16.05 126.83 3.37 113.96 6.37 113.96C6.67 113.96 11.57 118.56 17.25 124.19C24.388 131.178 31.6526 138.036 39.04 144.76C43.2268 148.508 47.3606 152.315 51.44 156.18C51.98 156.76 56.07 160.84 60.54 165.25C64.99 169.65 68.64 173.44 68.64 173.65C68.64 174.95 66.48 173.28 60 166.96ZM50.2 162.33C20.1 134.38 12.96 127.53 7.76 121.6C-0.57 112.13 6.03 117.4 22.66 133.52C27.9366 138.689 33.3177 143.75 38.8 148.7C42.47 151.78 45.75 155.14 45.76 155.8C45.76 156 46.92 157.22 48.34 158.49C52.84 162.52 58.38 167.97 58.82 168.78C59.99 170.93 57.35 168.96 50.2 162.32V162.33ZM34.07 155.95C25.73 148.25 5.61 127.95 5.97 127.59C6.48 127.08 8.78 129.21 25.36 145.54C41.09 161.05 46.16 167.09 34.06 155.94L34.07 155.95ZM39 156.26C28.49 146.43 9.64 127.96 6.6 124.53C1.97 119.29 3.71 119.56 8.73 124.85C10.97 127.21 13.15 129.31 13.57 129.53C14.73 130.1 38.14 152.5 38.14 153.04C38.14 153.29 39.76 155.02 41.73 156.87C43.7 158.73 45.32 160.43 45.32 160.65C45.32 161.77 43.67 160.62 39 156.26ZM26.62 153.04C18.07 145.19 10.79 137.28 12.12 137.28C13.03 137.28 33.17 157.1 33.2 158.03C33.22 158.91 31.98 157.97 26.62 153.04ZM187.66 125.51C185.697 123.253 183.851 120.897 182.13 118.45C163.03 91.82 150.86 80.26 120.35 59.8C93.8 42 87.7 36.82 77.44 23.37C70.65 14.47 69.44 12.16 71.54 12.16C72.25 12.16 85.68 29.84 85.68 30.78C85.68 31.72 90.65 36.38 91.66 36.38C92.11 36.38 93.62 37.44 95.02 38.75C96.42 40.05 98.52 41.88 99.7 42.81C100.87 43.74 101.83 44.77 101.83 45.1C101.83 45.92 104 47.26 104.81 46.95C106.11 46.45 109.89 49.22 109.27 50.21C108.96 50.73 115.35 55.45 118.65 57.15C119.89 57.78 122.31 58.95 124.03 59.75C126.04 60.68 127.97 62.03 129.41 63.5C132.42 66.59 134.77 68.34 137.78 69.77C141.88 71.7 156.11 83.53 156.11 84.99C156.11 85.59 160.81 90.44 163.97 93.1C167.69 96.24 190.65 125.2 190.65 126.75C190.65 127.93 189.55 127.47 187.65 125.51H187.66ZM189.06 122.6C188.16 121.67 186.2 119.2 184.7 117.1C180.2 110.82 168.7 96.62 163.38 90.8C152.7 79.09 136.02 66.04 107.68 47.23C93.87 38.07 70.08 11.84 73.6 9.66999C74.22 9.28999 75.58 10.54 77.29 13.05C78.04 14.16 80.8 17.8 83.43 21.13C86.06 24.46 88.76 28.13 89.43 29.3C91.5 32.91 102.75 42.65 104.84 42.65C106.51 42.65 107.66 43.47 107.66 44.65C107.66 46.15 119.41 54.76 121.46 54.76C122.86 54.76 128.71 58.7 131.53 61.53C133.171 63.2269 135.059 64.6664 137.13 65.8C142.25 68.26 155.13 78.85 157.33 82.41C158.07 83.61 159.83 85.6 161.25 86.83C162.66 88.06 165.06 90.29 166.58 91.78C171.42 96.53 192 122.33 192 123.64C192 124.77 190.74 124.32 189.06 122.6ZM187.66 115.83C184.807 112.391 181.997 108.918 179.23 105.41C161.43 82.92 150.65 73.09 122.25 53.43C99.25 37.5 92.45 31.33 80.42 15.43C75.81 9.32999 74.83 7.29999 76.82 7.92999C77.36 8.09999 78.22 8.76999 78.72 9.40999C79.22 10.06 82.52 14.21 86.06 18.63C89.59 23.06 92.74 27.29 93.06 28.05C94.35 31.13 114.79 47.72 120.53 50.33C124.13 51.98 133.65 58.35 135.33 60.23C136.04 61.05 137.27 62.02 138.05 62.39C141.83 64.17 156.78 76.82 158.13 79.39C159.02 81.06 164.53 86.59 165.79 87.06C167.55 87.73 191.56 116.81 191.56 118.26C191.56 119.64 190.13 118.75 187.66 115.83ZM183.21 105.79C164.43 82.49 151.6 70.33 128.79 54.23C109.52 40.63 103.22 35.58 95.34 27.36C90.9 22.73 79.28 8.38999 78.38 6.43999C77.66 4.85999 78.51 4.60999 79.58 6.07999C80.1 6.80999 81.31 8.12999 82.26 8.99999C84.56 11.1 96.91 25.8 96.91 26.43C96.91 27.21 99.62 30.1 100.36 30.1C100.73 30.1 103.08 31.86 105.58 34.02C111.92 39.49 116.01 42.62 129.43 52.31C148.23 65.88 155.93 72.34 161.67 79.37C163.05 81.0828 164.628 82.6268 166.37 83.97C168.62 85.47 169.37 86.22 174.56 92.27C182.1 101.07 190.66 111.93 190.66 112.7C190.66 114.56 189.12 113.12 183.21 105.79ZM184.11 102.45L173.46 89.97C162.28 76.87 149.1 65.21 128.08 49.83C104.52 32.6 96.69 25.46 86.63 12.05C82.01 5.88999 80.56 3.67999 80.9 3.34999C81.5 2.74999 82.62 3.74999 84.44 6.52999C85.49 8.14999 86.69 9.57999 87.1 9.70999C87.5 9.83999 91.2 13.74 95.3 18.38C105.75 30.19 110.2 34.05 132.35 50.58C149.73 63.54 159.71 71.87 159.71 73.41C159.71 73.68 161.65 75.71 164.02 77.91C177.64 90.52 191.44 106.64 189.91 108.17C189.55 108.53 187.97 106.97 184.11 102.45ZM178.91 92.1C162.2 72.9 154.85 66.18 129.65 47.14C115.2 36.21 109.22 31.24 102.73 24.74C95.39 17.4 85.23 5.14999 85.23 3.64999C85.23 2.26999 87.01 3.72999 89.19 6.88999C90.5 8.78999 92.12 10.64 92.78 10.99C93.44 11.34 96.49 14.38 99.56 17.75C109.47 28.61 114.24 32.81 133.01 47.13C149.95 60.05 160.15 68.55 160.15 69.73C160.15 70.03 162.22 72.23 164.75 74.61C180.13 89.07 192.19 103.19 189.16 103.19C188.84 103.19 184.22 98.19 178.91 92.09V92.1ZM178.78 87.66C163.34 70.29 155.08 62.81 128.9 42.52C111.46 29 93.94 11.84 90.2 4.59999C89.27 2.79999 90.22 2.86999 91.69 4.71999C95.42 9.39999 98.35 12.59 98.91 12.59C99.25 12.59 102.22 15.43 105.51 18.9C112.74 26.54 120.57 33.37 135.03 44.66C152.76 58.51 158.16 63.21 162.43 68.54C163.93 70.3412 165.601 71.9923 167.42 73.47C173.78 78.42 189.32 95.56 189.32 97.63C189.32 99.2 187.58 97.55 178.78 87.65V87.66ZM179.45 84.28C162.44 65.75 158.62 62.27 130.55 39.75C112.98 25.65 94.66 7.38999 94.66 3.96999C94.66 2.45999 96.3 3.91999 99.84 8.58999C101.71 11.05 103.98 13.55 104.89 14.13C105.81 14.71 109.99 18.46 114.18 22.47C120.636 28.4316 127.293 34.1716 134.14 39.68C151.86 53.95 154.32 56.15 170.27 72.05C186.21 87.94 190.79 93.35 188.31 93.33C188 93.33 184.01 89.26 179.45 84.28ZM178.21 78.64C166.25 65.7 163.07 62.64 151.41 52.94C118.81 25.85 99.6 7.91999 99.6 4.65999C99.6 3.11999 101.31 4.59999 105.61 9.82999C108.51 13.35 110.91 15.85 111.84 16.29C112.67 16.69 116.46 19.91 120.27 23.47C124.07 27.02 130.82 32.93 135.27 36.59C155.1 53 160.6 57.76 160.6 58.6C160.6 58.9 162.94 61.33 165.8 64.02C184.44 81.54 190.64 88.41 187.8 88.41C187.48 88.41 183.15 84.01 178.2 78.65L178.21 78.64ZM180.54 76.85C171.47 67.18 161.22 57.08 157.34 53.99C152.94 50.5 133.07 33.43 125.64 26.76C114.76 17.01 104.79 6.53999 105.06 5.15999C105.16 4.61999 106.89 6.19999 110.81 10.4C116.53 16.53 118.96 18.88 119.57 18.88C120.08 18.88 123.37 21.63 129.43 27.13C132.39 29.82 138.95 35.45 144.01 39.66C150.073 44.744 155.911 50.089 161.51 55.68C166.07 60.28 171.53 65.48 173.65 67.24C179.07 71.73 188.42 82.04 188.42 83.54C188.42 84.82 186.4 83.11 180.54 76.85ZM187.08 79.45C186.7 79.23 182.79 75.22 178.38 70.53C168.4 59.92 159.82 51.93 141.77 36.48C127.46 24.23 110.81 8.14999 110.81 6.57999C110.81 5.31999 111.41 5.81999 117.2 11.95C123.31 18.44 126.8 21.64 129.72 23.46C130.8 24.13 135.29 27.86 139.72 31.76C144.14 35.66 149.99 40.73 152.72 43.03C157.81 47.31 159.67 49.2 159.69 50.13C159.71 50.72 170.14 60.46 174.74 64.18C181.99 70.04 191.69 82.05 187.08 79.44V79.45ZM178.03 66.03C168.54 56.1777 158.585 46.7837 148.2 37.88C136.62 28.05 119.52 11.98 117.72 9.22999C115.72 6.16999 118.32 8.28999 126.4 16.27C131.28 21.07 136.17 25.59 137.28 26.3C142.58 29.7 154.1 39.95 163.13 49.32C166.78 53.11 171.4 57.48 173.4 59.04C179.07 63.47 188.41 73.43 188.42 75.06C188.42 76.33 186.04 74.26 178.02 66.03H178.03ZM174.89 58.8C168.06 51.9 162.69 46.12 162.94 45.96C163.19 45.81 165.34 47.59 167.72 49.93C169.58 51.812 171.55 53.5817 173.62 55.23C177.42 57.76 188.42 69.27 188.42 70.73C188.42 72.25 186.6 70.64 174.89 58.8ZM187.69 67.46C186.64 67.09 166.84 46.24 167.53 46.24C167.93 46.24 169.1 47.13 170.15 48.21C171.175 49.2743 172.308 50.2294 173.53 51.06C176.27 52.71 188.87 65.53 188.87 66.66C188.87 67.39 188.38 67.71 187.69 67.46ZM180.04 55.77C171.78 47.27 171.68 47.14 173.39 47.14C175.23 47.14 189.32 61.24 189.32 63.07C189.32 64.8 187.18 63.12 180.04 55.77ZM186.58 58.13C183.63 55.61 177.65 48.93 177.65 48.16C177.65 46.36 180.45 48.48 186.51 54.84C191.49 60.06 191.53 62.36 186.58 58.13ZM189.06 56.16C187.42 55.16 183.04 50.33 183.04 49.52C183.04 47.49 187.91 51.06 190.46 54.95C191.53 56.59 190.81 57.22 189.06 56.15V56.16ZM189.81 52.91C188.77 51.79 188.56 50.28 189.44 50.28C190.57 50.28 192.06 51.7 191.92 52.64C191.72 53.97 190.89 54.07 189.81 52.91ZM158.14 42.69C155.973 41.1326 154.008 39.312 152.29 37.27C151.488 36.359 150.593 35.5345 149.62 34.81C145.14 31.48 124.72 12.1 124.72 11.19C124.72 9.96999 126.67 11.32 130.27 15.02C132.52 17.34 137.7 22.25 141.77 25.93C144.808 28.6293 147.762 31.4206 150.63 34.3C151.43 35.22 152.27 35.87 152.48 35.74C153.52 35.09 161.45 42.1 160.83 43.11C160.43 43.77 159.64 43.65 158.14 42.69ZM158.07 38.35C151.47 32.81 133.69 15.95 133.69 15.23C133.69 14.06 135.52 15.29 138.99 18.77C143.166 22.8291 147.42 26.8065 151.75 30.7C159.97 38.11 161.92 40.14 161.35 40.7C161.24 40.82 159.75 39.76 158.07 38.35ZM159.39 35.54C154.34 31.31 145.66 22.67 145.86 22.08C146.16 21.18 162.85 36.21 162.85 37.38C162.85 38.13 161.88 37.62 159.39 35.54Z" fill="#89D9C6"/>
</svg>
