<svg viewBox="0 0 24 25" fill="none" xmlns="http://www.w3.org/2000/svg">
  <path d="M12 .53c-8.16 0-12 3.88-12 12 0 8.16 3.84 12 12 12s12-3.84 12-12c0-8.12-3.84-12-12-12Z" fill="#89D9C6"/>
  <path d="M12 7.67a7.99 7.99 0 0 0-4.53-1.43A7.5 7.5 0 0 0 4 7.06a8.1 8.1 0 0 0 4.57 6.65 7.81 7.81 0 0 0 1.06 4.66 7.91 7.91 0 0 0 2.45 2.6 8 8 0 0 0 3.47-7.26 7.98 7.98 0 0 0 4.57-6.65 8.03 8.03 0 0 0-8.12.61Zm5.51 1.96a6.34 6.34 0 0 1-3.35 2.78c-.7.24-1.55.24-2.16-.37-.12.73-.04 1.43.37 1.84.16.16.45.32.65.36.29.04.49.09.74 0 0 1.8-.7 3.35-1.84 4.53a6.14 6.14 0 0 1-1.71-5.55c.12-.73.57-1.47 1.38-1.67-.57-.49-1.22-.78-1.8-.61-.24.08-.48.2-.65.4-.2.21-.28.41-.4.66a6.28 6.28 0 0 1-2.98-3.84 6.29 6.29 0 0 1 5.67 1.3c.57.5 1.02 1.23.77 2.05.7-.29 1.27-.7 1.43-1.27.04-.24.04-.53-.04-.73a1.7 1.7 0 0 0-.37-.65 6.53 6.53 0 0 1 4.82-.7c-.04.45-.24.98-.53 1.47Z" fill="#000"/>
</svg>
