<svg width="185" height="60" fill="none" xmlns="http://www.w3.org/2000/svg">
  <path d="M29.9.6C9.9.6.5 10.1.5 30c0 20 9.4 29.4 29.4 29.4S59.3 50 59.3 30C59.3 10.1 49.9.6 29.9.6Z" fill="#89D9C6"/>
  <path d="M29.9 18.1c-3.6-2.5-7.6-3.5-11.1-3.5-3.1 0-6 .7-8.5 2 .5 6.2 4.1 12.9 11.2 16.3-.4 4.4.8 8.3 2.6 11.4 1.5 2.6 3.6 4.8 6 6.4 5.2-3.5 9.1-10 8.5-17.8a19.56 19.56 0 0 0 11.2-16.3c-5.9-2.8-13.4-3-19.9 1.5Zm13.5 4.8c-1.9 3.3-4.9 5.6-8.2 6.8-1.7.6-3.8.6-5.3-.9-.3 1.8-.1 3.5.9 4.5.4.4 1.1.8 1.6.9.7.1 1.2.2 1.8 0 0 4.4-1.7 8.2-4.5 11.1a15.05 15.05 0 0 1-4.2-13.6c.3-1.8 1.4-3.6 3.4-4.1-1.4-1.2-3-1.9-4.4-1.5-.6.2-1.2.5-1.6 1-.5.5-.7 1-1 1.6-3.8-2.2-6.3-5.6-7.3-9.4a15.4 15.4 0 0 1 13.9 3.2c1.4 1.2 2.5 3 1.9 5 1.7-.7 3.1-1.7 3.5-3.1.1-.6.1-1.3-.1-1.8-.2-.7-.5-1.1-.9-1.6a16 16 0 0 1 11.8-1.7c-.1 1.1-.6 2.4-1.3 3.6Z" fill="#000"/>
  <path d="M85.7 24.9c-6.4 0-11-4.8-11-10.7v-.1c0-5.9 4.7-10.7 11.1-10.7 6.4 0 11 4.8 11 10.7v.1c-.1 5.9-4.7 10.7-11.1 10.7ZM92 14.2c0-3.6-2.6-6.5-6.3-6.5-3.7 0-6.2 2.9-6.2 6.5v.1c0 3.6 2.6 6.5 6.3 6.5 3.6-.1 6.2-3 6.2-6.6ZM109.2 24.5v-8.9c0-2.1-1-3.2-2.7-3.2-1.7 0-2.8 1.1-2.8 3.2v8.9h-4.5V8.7h4.5V11c1-1.3 2.4-2.5 4.7-2.5 3.4 0 5.4 2.3 5.4 5.9v10.3h-4.6v-.2ZM122.4 24.8c-2.8 0-4.6-1.1-4.6-4.8v-7.5h-1.9V8.7h1.9V4.6h4.5v4.1h3.7v3.9h-3.7v6.8c0 1 .4 1.5 1.5 1.5.8 0 1.6-.2 2.2-.6v3.6c-1 .6-2.1.9-3.6.9ZM138.3 24.5v-1.7c-1.1 1.2-2.6 2-4.8 2-3 0-5.5-1.7-5.5-4.9v-.1c0-3.5 2.6-5.1 6.4-5.1 1.6 0 2.8.3 3.9.7v-.3c0-1.9-1.2-2.9-3.4-2.9-1.7 0-2.9.3-4.4.9l-1.1-3.4c1.7-.8 3.5-1.3 6.2-1.3 4.9 0 7.1 2.5 7.1 6.8v9.2h-4.4v.1Zm.1-6.4c-.8-.4-1.8-.6-2.9-.6-1.9 0-3.1.8-3.1 2.2v.1c0 1.2 1 1.9 2.5 1.9 2.1 0 3.5-1.2 3.5-2.8v-.8ZM155.3 13.1c-3 0-4.8 1.8-4.8 5.6v5.9H146V8.7h4.5v3.2c.9-2.2 2.4-3.6 5.1-3.5v4.7h-.3ZM157.8 6.9v-4h4.7v4h-4.7Zm.1 17.6V8.7h4.5v15.9l-4.5-.1ZM173.3 24.9c-4.9 0-8.6-3.6-8.6-8.2v-.1c0-4.6 3.7-8.3 8.6-8.3 4.9 0 8.6 3.6 8.6 8.2v.1c0 4.6-3.7 8.3-8.6 8.3Zm4.2-8.3c0-2.3-1.7-4.4-4.2-4.4-2.6 0-4.1 2-4.1 4.3v.1c0 2.3 1.7 4.4 4.2 4.4s4.1-2 4.1-4.4ZM89.5 56.9v-8.3h-8.4v8.3h-4.6V36.1h4.6v8.2h8.4v-8.2H94v20.7h-4.5v.1ZM112.1 50.5H101c.4 2 1.9 3.1 3.9 3.1 1.5 0 2.6-.5 3.9-1.6l2.6 2.3c-1.5 1.8-3.6 3-6.5 3-4.8 0-8.3-3.3-8.3-8.2V49c0-4.5 3.2-8.3 7.9-8.3 5.3 0 7.7 4.1 7.7 8.6v.1c0 .4-.1.7-.1 1.1Zm-7.7-6.2c-1.9 0-3.1 1.3-3.4 3.4h6.8c-.3-2-1.5-3.4-3.4-3.4ZM124.2 56.9v-1.7c-1.1 1.2-2.6 2-4.8 2-3 0-5.5-1.7-5.5-4.9v-.1c0-3.5 2.6-5.1 6.4-5.1 1.6 0 2.8.3 3.9.7v-.3c0-1.9-1.2-2.9-3.4-2.9-1.7 0-2.9.3-4.4.9l-1.1-3.4c1.7-.8 3.5-1.3 6.2-1.3 4.9 0 7.1 2.5 7.1 6.8v9.2l-4.4.1Zm.1-6.4c-.8-.4-1.8-.6-2.9-.6-1.9 0-3.1.8-3.1 2.2v.1c0 1.2 1 1.9 2.5 1.9 2.1 0 3.5-1.2 3.5-2.8v-.8ZM132.1 56.9V35.2h4.5v21.6l-4.5.1ZM146.2 57.1c-2.8 0-4.6-1.1-4.6-4.8v-7.5h-1.9V41h1.9v-4.1h4.5V41h3.7v3.9h-3.7v6.8c0 1 .4 1.5 1.5 1.5.8 0 1.6-.2 2.2-.6v3.6c-1 .6-2.1.9-3.6.9ZM162.9 56.9V48c0-2.1-1-3.2-2.7-3.2-1.7 0-2.8 1.1-2.8 3.2v8.9h-4.5V35.2h4.5v8c1-1.3 2.4-2.5 4.7-2.5 3.4 0 5.4 2.3 5.4 5.9v10.3h-4.6Z" fill="#89D9C6"/>
</svg>
