<svg xml:space="preserve" viewBox="0 0 200 159.4" xmlns="http://www.w3.org/2000/svg">
  <path d="M88 29688v-1l-2-1-1 1 3 1zm5 19h1l-1-1-2-2v1l2 2zm21-18 2-1v-1l-3 1 1 1zm17-60 4-3c-9-1-20 2-33 9 5 2 9 4 14 1l15-7zm0 88h-2v1h2v-1zm-20 30h-6l-8 1 2 5h-4l-3 1 3 4 9 1c3 0 6-1 8 2h5c6 1 11 1 16-3l7-2 6-2c-1-2-1-4-4-5l-2-3c-1-3-4-4-8-3l-21 4zm-21 12h-1v1l1-1zm52-79h1v-1l-1 1zm-2 43 1 1 1-2h-2v1zm7-68c-1-1-2-2-3-1l-9 3c5 4 8 4 11 1 1-1 2-2 1-3zm2-22h-1 1zm1 6 1-1h-1v1zm3 47v-1l-1 1h1zm-84 48c3 3 5 3 7 1l-7-1zm94-64 5-2 11-8v4l4 1c4-4 12 0 16-5v-6l-7-6c-4 0-6 2-8 5l4 2-4 4c-3-3-7-3-10 0l-8 5-4 4 1 2zm5 3-3 1 4 5 5-3-3-7h-3v4zm22-7-1-1-3 1 1 1 3-1zm-26 20h16-1 1c2 2 4 4 7 1l-2-3 11-8c-2-2-4-3-6-1l-2 2v-3l-24 11v1zm16 18h-1l-1 1h1l1-1zm-1 13 1 1v-2l-1 1zm-7 31 14-6-3-3 3-8c-3-1-5 2-6 4-1 5-4 6-8 6-4-1-4 2-6 4l6 3zm-2 18h1l-1-1h-1l1 1zm21-43 4 1 2-1 1 1 4-1v-2c-2-4-1-5 3-7 9-2 16-8 23-13l2-1c-9 2-16 6-24 11-5 3-12 4-20-1 1 7-5 12-3 19 5-1 5-1 8-6zm5 2 2-1-3 1h1zm3 13 18-8c3-1 3-3 2-6-9 2-15 9-22 13l2 1zm1 39h-1zm1-19 1-1-1-1-1 1 1 1zm2 4-1-1v1h1zm19-4-2-4c-3-1-4 0-7 3l9 1zm-3 28v-1h-1l1 1zm11-69-6 3c4 1 4 1 6-3zm14 29c-5-1-7 3-10 3l-10 3c6 2 13 0 20-6zm-16 51a2112 2112 0 0 0 2-2l-2 1v1zm4-34 1-1h-1l-1 1h1zm2 18h-1l1 1zm4 18c-3-1-3-1-6 1l6-1zm7-31-4-5-1 6 5-1zm-1 17-1-1-1 3h1l1-2zm5 11c-4-2-6 0-9 2 4 1 6 0 9-2zm1-32-2-1-1 2h2l1-1zm7 46c-2 1-5-3-7 1 3 2 5 1 7-1zm2-38 2-2-1-1-1 1-1 2h1zm5 25 10-6 11-3 4-2-1-2-12 5c-1-4 1-6 4-7l13-6 4-3v-1l-4 1c-7 6-18 6-25 13l4 3-13 5c2 3 3 4 5 3zm-2 18h-1zm16-11 4-3c-3-1-6-1-4 3zm1 15h1-1zm4 4v-1 1zm4-21h1l-1-1v1zm0 15v-1 1zm4-20h-1zm10 9c9-2 17-7 24-12l6-3c-2-1-3-2-4-1-5 1-9 2-13 5-3 3-7 4-12 2l-5 1v4l-2 5 6-1zm1 13h-1 1zm4-8 1-1-1-1v2zm24 10c5 0 11-2 15-6l6-5v1l22-13 1-1 1-4h-4l-5 4-7 2-3 3c-1 1-1 0-1-1-4 1-8 3-12 2l-3 1-12 6-8 5c-2-2-2 2-5 3l15 3zm34 1a736 736 0 0 0 0 0zm2 7 1-2h-2l-1 2h2zm17 0c-5 0-6 0-10 5 5 0 7-3 10-5zm2-34v-1 1zm1 13 1-1v-1l-1 1v1zm3 6h-1zm1-28v-1l-1 1h1zm-8-2h1v-1l-1 1zm-3 28 2 1 1-3h-1l-2 2zm-24-11c0-2 1-4-3-3l3 3zm-15 0h1-1zm44-39-9 4c-2 1-5-1-7 2l-2 1c-3 6-3 6-9 4-6 3-8 9-11 13h1-1c-2 1-3 3-5 3-7 3-12 7-17 11l-2 4c5 1 5 1 7-4 8-1 15-6 22-10 5-3 11-5 14-10l15-9c2 0 3-1 3-3 1-3 4-4 8-4-2-4-5-3-7-2zm8-281-3-3-1 1 3 3 1-1zm1 224h1l-1-1v1zm2 78a474 474 0 0 0 3-4l-3 3v1zm4 10 3-1c-2-1-3 0-3 1zm7-44-4 2c3 1 3 1 4-2zm1 0h-1 1zm-2-259-1 1h2l-1-1zm-10 261zm-6-668v1h1v-1h-1zm-8 628v-1zm-6-412c-2 3-2 3 2 8 4-3 4-4-2-8zm2-16h-1l1 1v-1zm-2 5 1 2 1-1-2-1zm1-203c-5 2-5 2-2 5 3-1 2-3 2-5zm-4 225zm-7 99c0 3-1 6 2 8 3-4 3-5-2-8zm6-103h-1v1l1-1zm-1 143h1-1zm1-128-2-2-1 1 2 1h1zm-7 112v1-1zm5-143c-1-1-3-2-5-1l-3 3 2 3 2-3 1-2 6 5c-1-2-1-4-3-5zm-22 134c4 4 7 7 13 7l-2-2-11-5zm16-110h-2l1 1 1-1zm-17 467h1zm3-358c1-3 2-5-3-6l3 6zm-7-7v1l1-1-1-1v1zm-4 32zm9-50-7-5-18-12-1 2 6 8c3 2 5 5 9 5 3 5 9 6 13 11 3 3 7 4 12 5-2-8-5-13-14-14zm-1-310v1-1zm-2 191-2 2 2 2 2-3-2-1zm-14-174h-1l1 3 2-1-2-2zm-6 2c-2 4-2 4 2 7l-2-7zm0-23v1l1 1v-1l-1-1zm-5 250v2l5 1c-1-2-3-3-5-3zm0-223h-1l1 1v-1zm-6 6c3 3 4 2 6 0h-6zm-4-18 4 6 1-1c0-3-3-4-5-5zm0-5c-1-1-3-4-5-1-2 1 0 4 3 5h2l2-3-2-1zm-2 273 1 1 1-1-1-1-1 1zm-4-57-1 1 1 2h2l1-1-3-2zm-1 64h3l-2-2-1 1v1zm-4 20-1 1c-6-2-6-1-6 5l-3 10-3 1c1 3 1 5-1 7-3 3 0 6 1 9l6-13 3-4c0-2 2-4 1-5-1-4 1-5 4-7l4 3c3-6-1-11-1-16-4 1-5 3-4 9zm-2-242-1 1 1 1h1l-1-2zm-4 232-1 1 2 3 3-2-4-2zm-2-172v1h1v-1h-1zm-2 147c-5-5-5-5-10 0 3 4 7 4 12 3l-2-3zm0-26-1 1 1 1 1-1-1-1zm-2-198-1 1h2l-1-1zm-5 205h1l2-1-2-1-1 2zm0-47-3 7 1 1 5-4-3-4zm-3-120h-1l1 2h1l-1-2zm-1-22-1 1h1v-1zm-5 133c0 3 0 3 4 4 1-3-2-3-4-4zm-2-120c0 4 1 6 3 6l2-2-5-4zm0-9v1l1 1v-1l-1-1zm-1 4v1l1-1h-1zm-2 13v2l1 1 1-1-2-2zm-4 143c0 3 3 4 6 4-1-2-2-4-6-4zm-1 4c-5 3-1 6-2 9l5 3-3-12zm-1-135-3-3c-2 0-3 2-3 4l4 5 1-1 1-5zm-4 142-1-1v1h1zm9 9-1-1-1 1 2 1v-1zm-16-1c-2 0-3-3-5-5-3-5-7-9-14-10-2 0-3-3-5-5l-3-4-3 2c-1 2 0 4 1 5l13 16-3 1 8 9c2 3 4 3 7 2 1 2 3 4 6 5 2 0 4 3 6 5 2-3 4-5 4-9h4c-2-2-3-6-6-1-2-4-5-8-10-11zm1-156v3l1-1-1-2zm-6-1-1 2 2 1 1-2-2-1zm-14 4 1 1v-1h-1zm-5 60h-1l1 1v-1zm-8 93 5-1c-4-3-4-3-5 1zm-2-107v1-1zm-1 81v1h1l-1-1zm-3 12-10 3 2 4c1 4 3 4 6 2l4-3-2-6zm0-100-2 1 1 2h2l-1-3zm-9 94c1 3 1 5 5 4-1-2-2-4-5-4zm0 57h-1 1zm7-39-3 1-2 3 2 1 4-2-1-3zm-5 15c5 2 6 2 8-1-3-1-6-1-8 1zm12 28c-3 0-5 0-7-2l-7-2c0 5 3 8 8 7l12 1 2-1c-2-3-5-4-8-3zm-1-6v1l1-1h-1zm8-13-15 1c5 3 6 4 15 2v-3zm3-14c-1-1-2-2-3-1l-11 5 10 2h3c4 4 8 2 13 3-1-3-3-3-5-4-3-1-5-2-7-5zm2-2zm0 0c0-2 0-3-3-4 0 2 2 3 3 4zm26 18h-1v1l1-1zm15-28-1 1 3 2 1-2-3-1zm-3 12c-1 2 1 4 5 6v-7c-2-2-4-1-5 1zm9-21c-6-1-8 0-8 6l11 4 2-4h-6l1-6zm12 62 2-1-2-2-2 1 2 2zm-89-10c-2-1-3-2-6-1-8 3-16 5-25 4l-2 1v2c6 2 13-3 19 1l-23 1c0 4 0 4 3 6l3-3 3 1 3 3h-2 2c3 0 3-2 3-4l4 2c4 3 7 3 11 0 3-3 7-1 10 0s3 3 0 8c-6-4-9-4-14 1l-7 1c-2 4 5 6 2 12 7-1 13 2 18-2 6 2 12 1 17-2l6 6h7c4 0 8 0 10 4l3 3 5-8c5 2 0 5 1 7 3 1 7 2 10 1 3 0 5-2 8-4 2-2 3-4 2-8h-2l5-4c2-1 2-4 3-6l3-6h8v-2c-3-1-5-3-7-6h-3c0 2 0 5-3 5l-2 2-1 3c-3-1-5 4-8 0l4-3-11-4c-3-2-6-4-10-3-1-2 0-5-4-5h1l1-2c3 1 7 0 10 3l4 1 5-4c3 3 0 9 7 10l11-17c-3-6-9-3-13-5l1-5c2-6 2-6-5-8-1 2-3 5-3 8-1 2 1 4 2 7-2 1-6-4-6 1-6-2-7-6-6-13-4 3-7 4-11 1-3-3-6-1-8 3l-6-2-2 2c4 3 8 5 14 3-4 6-10 6-16 7 2 3 2 3 10 3l-4 8 2 4c-6 0-11 2-14 7l-10-5c-4-1-6-2-6-6l-1-4zm-3-35v1l1-1h-1zm3-10c-5 0-9 1-12 5l6 3c0-5 3-5 7-4l-1-4zm-2-4v1h1v-1h-1zm0-4h1zm-2-51c2-5 2-5-3-5-1 2 1 3 3 5zm-7 9v1-1zm6-36c-3-1-4 2-6 3v3h1l2-4 6 3c1-3-1-4-3-5zm-12 16v1h1v-1h-1zm-4-8-1 3 2 1v-1l-1-3zm-3 57v2l4-1v-1h-4zm0-54c-3 3-1 5 1 8l-1-8zm-2 113 1 1v-1h-1zm-7-58-9 5c0 3 1 3 3 2l13-5-7-2zm-6-1h1l1-1h-2v1zm-3-48c2 4 4 2 5 1l-5-1zm15 134-3 3c2 0 4 0 3-3zm5 5zm-25 5 4 6-10 3 17 6-2-4-1-4 9 6 2-7 9-3v-1l-7-3c-4 5-4 5-10 4l-11-3zm-10 5c3 0 6 3 9-1-4-2-6 0-9 1zm13 18-4-1v1l4 1v-1zm-16 14 5 5 14-4c-6-3-8-3-19-1zm10-19-1 2 1-1v-1zm-6 5c1 3 1 3 5 4l-5-4zm5 29v-2h-3v1l3 1zm13-19h-5v1c2 1 3 2 5-1zm-1 35 2 1v-1l-1-1-1 1zm-1-7v1zm-7 9c1 3 3 4 5 4-1-3-1-3-5-4zm-1-8 1 1h2l-3-1zm4 33 2-1v-1l-3 1 1 1zm8 9c3 2 5 2 7-1l-10-2 3 3zm-3-11 1 1h3v-1h-4zm5-38h-1 1zm3-31 1-2h-3l-1 2h3zm-2 18 1 1 1-2-2 1zm2-6 1-1-3-2-1 1 3 2zm0 5zm5 30c-5-2-7 1-10 3 7 3 8 3 10-3zm0 28-1-1v1h1zm3-40-2-2-2 2 2 1 2-1zm-3-7 2 2 1-2-1-1-2 1zm5-15-2-2-2 1-2 4-2 3 1 1h4l2-4 1-3zm2 46 2-1-1-2-3 2 2 1zm4 19v-1l-2 1h2zm9 3c-5-2-6 0-8 3 3 1 5-1 8-3zm-6-60 3-2-1-1c-2 0-4 0-2 3zm1-10c-3-1-5-1-8 2l6 3 2-5zm-10 40 1 2h1l-1-2h-1zm0-48-4 6 21-1 4-5c-4-1-8-4-12-1-2 2-6 1-9 1zm1-19c-5-1-5-1-4 5l4-5zm-3 13-1 2h1l3-1-3-1zm45 9 1 2 4-2-1-1-4 1zm-5 5 1 1-1-1zm2-11 2-6 4-1c-3-2-5-3-7 0s-2 4 1 7zm-23 25c4 2 7 3 11 3l-1 3 9-1c5 3-5 4-1 8l5-2 5 6 7-3c1-5-4-3-7-4l11-6c-6-2-6-6-6-9 4-4 12-3 13-12-4-1-4-7-10-5l3 5-5 3c-4-3-7 2-10 3 1 2 1 4-2 6l-2-4-22 1 2 8zm6 32c-6 0-7 1-7 6 4 0 5-4 7-6zm-2 13-3 4c3 0 4-1 3-4zm4 0-2-5-5 4 7 1zm5-30v-5c-2-2-4-2-7 0 1 2 1 6 7 5zm-5 18 1-1h-1v1zm2 21 3 4h6v-2h-4l-2-4-2-1-1 3zm6-15 1 1 1-1-1-1-1 1zm4-23h-1c-1 1-3 2 0 4l1-4zm1 19-4-3-1 5 5-2zm2-5 2-1-1-1-1 2zm5 13 1-1-2-2v2l1 1zm5 12c3 0 5-1 5-4-1-3 2-8-3-11l-4 6 4 5h-8v1l6 3zm3 9v-1l-1 1zm3-31h2l-1-5c-3 2-2 4-1 5zm1 28h-1 1zm3 10 1-2c-1-1-3-2-6 0l5 2zm-3-52h2l2-1h-3l-1 1zm-1 7 1-1v1h-1zm19-59h-3c-3 2-5 3-8 0-2-2-4-1-5 2l-1 6c4 4 4-5 9-3l-3 8c4 4 6-5 9 0l-1 6 4-3c2-1 2-2 2-4l-1-7h-3l1-5zm8 8-1-1h-1l1 1h1zm-20 26 13-1v-5c2-2 8 1 8-5l-5-6-7 5v-3l-4 2-2 3c-5 1-5 3-4 6l-7 1c3 5 1 9-1 12 3 3 5 1 8-1 4-2-1-5 1-8zm6 15-3-2-1 2 3 1 1-1zm8 63 2-8c-10 1-13 7-17 15l15-7zm-13 13 1-2h-2v1l1 1zm13-2h2l-1-4h-1v4zm-2-34c-1-3-3-4-6-3l1 16 5-6-3-5 3-2zm6-14c-5-1-5 0-6 7 5 0 3-5 6-7zm0-16h1l-1-1h-1l1 1zm5 2 2-3-1-1-3 2 2 2zm4 57c3 0 2-3 3-6h-6c0 3 0 5 3 6zm5-80-5-1c-2 1-2 3 0 5l4-4zm2-16-5 5 6 2-1-7zm1-24v-1 1zm2 41c0-3 0-3-8-8-2 3-2 3 8 8zm3 103 2-2-2-1v3zm4-13-2-1-2 2 2 1 2-2zm1-96c-5 0-4 2-5 5 4 0 5-2 5-5zm-1 114 3-1-2-2-2 2 1 1zm-3 23v1h4l-4-1zm-1 4-1 1 1 1v-2zm12-164c-6 0-6 4-6 7l6 4c5-5 0-8 0-11zm10-20 1-2-1-1-1 2 1 1zm5 109s-1 0 0 0zm0-51c1-4 0-7-3-9-2 3-2 3 3 9zm3 287 4-5c-6 0-8 4-12 8 4 1 6-1 8-3zm0 20h-1v1l1-1zm1 12 1-2-9 3v2l8-3zm11-5-5 1c-1 3-3 4-6 4v3l6-1c2-3 8-2 5-7zm-8-32c6 1 6 1 7-4-4-1-6 1-7 4zm1-322 3 2-2-2h-1zm0-84h1l-1-1v1zm3 92zm-5 38h2v-1l-2 1zm-1 158a365 365 0 0 0 0-1v1zm4-174 1-2-6-3h-3l1 3 7 2zm-5-103h-1v1l1-1zm-2 5 4 2 2-2-4-2-2 2zm20 49-5-4c0 4 1 6 5 4zm-2 47h2v-1h-1l-1 1zm1-27c-2-4-2-4-6-4l6 4zm4 311-1 1h1l1-1h-1zm3-326 1-1-3-1-1 1 3 1zm-1 372v1-1zm1-327-1-1h-1l1 1h1zm-5 333zm-6-22 1-1h-1v1zm8-304c-4-3-7-7-13-6 4 3 8 6 13 6zm-30-51c-7-2-10 0-9 8l9-8zm-4 41h-1zm-3 307 2-1-1-1-1 2zm2-146v-1l-3 1 1 1 2-1zm-5-12v2l2-2-2-1v1zm2-68-6-3-2 7c5 1 7-1 8-4zm-5 74zm-1 156h-1 1zm-6 3zm-1-151h-3v2l3-1v-1zm-2-6-1 1h1v-1zm-9 6h1-1zm-6 150v1l4-2v-2l-4-1v4zm4-148-8 5c4 3 7 3 9 1 2-1 2-1-1-6zm-10 105h1v-1l-1 1zm-4 48 1 1v-1h-1zm1-5 1-1-1-2-1 2 1 1zm-2-41-1 1 1 1 2-1-2-1zm-4 30-1 1 1 1 2-1-2-1zm0-121zm-1 71v1l1-1h-1zm-7 26-4 2 1 1 4-2-1-1zm-2-104-2 1v1l2-1v-1zm-6 14-16 5-8 5 2 5 6-3 2 4c3 0 5-1 7-4 2-2 1-3-3-4 2-6 7-2 12-3-4-1-3-3-2-5zm-18-1v2c6 0 9-4 13-7-5 0-9 3-13 5zm-4-12c-1 2-2 3-1 6 2-2 5-3 1-6zm-4 19 4-2-1-1-3 3zm-7 29h-2l1 1 1-1zm3 7v-1 1zm29 34h1v-3h-1v3zm-39-37-1-1-1 1 1 1 1-1zm2 7-4 1c-3 1-6 3-5 7l-2 3c2 2 4 2 5 1 1-3 3-3 5-4l6-2c4-5 9-6 14-8l2-1c5-6 14-7 17-14-3-1-5 1-8 3l-13 9-2 1c-2 4-6 4-11 3l-4 1zm10-24-3-1-2 1c0 2 2 5-2 7l2 1 7-4-2-4zm-7-5c2 0 4 1 6-3l-6 3zm-4-17c5 2 6 2 7-3l-7 3zm-1 3-2 2 2-1v-1zm-26 10-1 2 1 1 2-2-2-1zm103 180-2 1 1 1h2l-1-2zm81-11v1-1zm-3 6zm-13 12v1l1-1h-1zm-15 3-3 2 3-1v-1zm42 2 3-4c-4 0-3 2-3 4zm48-54h1v-1l-2 1h1zm9-14 1-1-1-1v2zm1 8h-1 1zm2 28 2-1h-2v1zm7 13-4 2c2 0 3 0 4-2zm3-95v-1 1zm2-9-1-1v1h1zm9 49 2-1-2-2-1 2 1 1zm1 65 1-1h-1v1zm0-113s1 0 0 0zm7-683 1-2h-2v1l1 1zm2 678zm2-681v1l1-1h-1zm3 723-1 1h2l-1-1zm1-731-2 3 1 1 2-3-1-1zm2-2 1-1-1-1v2zm5 740-4 4c3 0 5-1 4-4zm0 27v-1zm0-770-1 1h1v-1zm8 14h1l-1-2-1 1 1 1zm7-27zm1 773h1v-1l-1 1zm4-1zm4 21-1 1 1-1zm3-798c0-3-3-4-5-4l-8 1 6 8 7-5zm0 774 1-2v-1l-2 2 1 1zm2 19zm0-69zm13 68c-5 1-8 3-13 7 7 0 10-4 13-7zm-7 10 3-3h-1l-3 2 1 1zm10-11-1-1-1 2 2-1zm5-16 9-9 11-9c-9 3-25 15-27 20l7-2zm-3 104a1007 1007 0 0 0-1-1l1 1zm3-7-1 1v1l2-1-1-1zm-1-78v-2l-1 1 1 1zm0-13c3-1 5-1 6-4l-5-2-1 6zm10-7-1-1-1 1h2zm-7 14c2-3 5-4 8-2h2l-4-6-9 6v1l3 1zm10-11v-1 1zm2-30-2 4 2-4zm-24 14c2 3 4 2 6 1-2-2-4-3-6-1zm2-760-1 2 2 2 2-2-3-2zm-3 778h-1l1 1v-1zm-1-16-3 3c1 0 3 1 3-3zm-5 27v-1 1zm-2-21v1h4l-1-1h-3zm0-761v1h1l-1-1zm0 715v-1 1zm-1-734-8 2c0 4 0 4 9 2l-1-4zm44 17 2-1-2-2-1 2 1 1zm2 746h1l-1-1-1 1h1zm1 133zm6-56 2-1-2-2h-1l1 3zm2-84-1 1h1v-1zm7-736-2-6-4 3 6 3zm-3 745 1-2-1-1-1 2 1 1zm1 35h1v-1l-1 1zm3 25 1-1h-1v1zm6-133v-5h-2l-3 5h5zm-4 55 1-1h-1v1zm4 15c0-2-1-3-3-3l-1 4c2 2 3 1 4-1zm2-739 1-1-1-1-1 1 1 1zm0 880h-1 1zm1-66zm1-822h1l-2-2-1 1 2 1zm-6 104v1l1-1h-1zm-1-99-1 1h1v-1zm-8-20h1-1zm16 686 1-1h-1zm2 234 1-1h-1l-1 1h1zm3-8c1-2-2-3-4-4v6c2 1 4 1 4-2zm3-177 1-2h-2v1l1 1zm-1 194v1l3-1 1-3-4 3zm4-231h-1l1 1zm-2 206v1l1-1h-1zm-6-166zm-2 10h-1l1 1v-1zm11 161 3-2h-1l-2 1v1zm1 13h3v-3l-3 2v1zm6-29c-5 4-5 4-3 9 3-1 3-1 3-9zm2-11v-1l-3 2h1l2-1zm-1 36v1-1zm3-39v-1l-1-1v1l1 1zm33-7v-1l-1 1v1l1-1zm-33 26c4 0 8 2 10-4l3-2 5-2 3 1 5-2c2-3 5-5 8-6 6-2 11-7 16-11l18-12 18-13 1-3-3 1-22 13c-2 2-4 3-6-1 0 6-3 8-7 10l-12 6c-2 2-5 4-8 2v-4l5-6c-3 0-2-2-2-5l-4 4c0 3-2 3-4 4l-12 7-3 3v1l10-3-1 7-1 1c-5 3-9 8-15 10-2 0-2 2-2 4zm24 19-2 3c2 1 4 4 6 0l-4-3zm-9 19 9-1c-4-3-4-3-9 1zm2-9-1 3c2 0 2 0 1-3zm10 0v-1h-1l1 1zm4-11c-2 1-4 2-3 4 3 0 4-1 3-4zm0 15zm2-37 1-1h-1v1zm6-4 1-1-1-1-1 1 1 1zm44-34 1-2-2 2h1zm-2 28c-2-1-4-1-5 1-2 3-7 3-6 8 5 0 5 0 8 4l9-3-3-6-7 3 4-7zm3 20zm5-16zm7-5-3 6c5-1 6-2 6-7h-2c0-3 1-2 2 0l3 1h1c3-4 6-8 6-14l-1-4-4 1c-3 1-6 4-6 7 1 3-1 4-3 4-3 0-4 2-5 4l-6 6c5 1 8-2 12-4zm14-804 5-9c-3-3-6 0-8 0 0-4 0-5 3-4h1c6 1 8 1 8-4 1-7 7-8 10-12l2-1 8-16c-3-3-8-4-12-3l-3 3 5 2-7 10c-3-3-1-7-2-11l2-2-8-1-5 10 8 2c-2 4-2 4-6 3v4h-6l-2 3v-1c-3 3-5 6-1 10 2 2 2 5 1 8l3 4 4 5zm1 18 1 1 4-6-1-1c-2 2-5 2-4 6zm1 573zm2 116-1 1h1v-1zm2 84c2-2 2-4-1-7l9-3-3-3c-4 3-8 4-10 8l5 5zm-5 10h1-1zm4-6c4-2 8-5 11-9l-10 5-2 3 1 1zm12-50 1-1h-2l1 1zm2-730 1-3-2 2 1 1zm4-7c-3 0-2 2-2 3 1 0 3-1 2-3zm7-24-8-1-1 1c-1 4-3 7-6 9l-5 7 1 3h3l6-3 3-3c-1-6 5-9 7-13zm0 686c-1 0-3 0-3 3l3-3zm0 24v-1zm4-702c-4 0-3 2-3 4l3-4zm1 25-1-1-1 1h2zm9-58v-3l-2 2-11 18-1 7 14-24zm-7 27c3-1 4-3 4-6-4 1-4 3-4 6zm3 11 2-2-1-1-1 1-1 2h1zm9 27c2-2 2-6 1-9s-3-4-6-3l-4 14c3 1 6 0 9-2zm-1 768 1-1-1-1v2zm2-386-1-2-1 2h2zm2-13h-2l-1 1 2 1 1-2zm3-446 1-6c0-2-3-4-4-2s-4 4-3 8h6zm-2 28zm1 40zm0 374v-1l-1 1h1zm7-10c-2-1-5-3-6 2l6-2zm-4 27v-1 1zm1-14h-1 1zm10-22 2-1-4-2-2-2c-2 3 0 9-7 9l1 1 5 2 5-7zm-4 303v-1 1zm1-32v-1zm3-259zm0 289c3 1 4-1 5-3l-1-1c-2 0-4 0-5 2l1 2zm4 113 1-1h-1l-1 1h1zm3-430c-4-1-4 5-7 4l-1 5 1 1 3-5 4-5zm0 464v-1h-1l1 1zm22-16 5-3c-1-3 2-7-2-9v-4c-3 1-3 1-4 8-3 0-6 2-9-1-1 5-5 6-10 6l-2 7c5 2 9 1 22-4zm-6 24 1-1-2-1v1l1 1zm0 4 1-1-1-1-1 1 1 1zm7-27-1-1v1h1zm4 4c-4-1-5 1-6 2l-3-2-1 3c-1 2-1 2 3 3l-1-1 8-5zm-5 24v-1l-1 1h1zm13-193-6 3c3 0 5 1 6-3zm-1 39v-1zm-2 118 3-3-1-3-3 1-1 5h2zm9 10c-1-3-1-6-6-7 0 2 0 4-3 5v4l9-2zm1-9-1-1-1 1 1 2 1-2zm-3-4 1 1 2-1-1-1-2 1zm9-151-1-1-2 1c-2 3-8 2-7 8l10-8zm1 165 2-6c-5 1-5 1-2 6zm2-14c-2 2-1 3 2 5l-2-5zm2-111-1 1h2l-1-1zm2 109h2l-2-3-1 1 1 2zm8-130c-3-2-3-2-8 1 3 1 5 1 8-1zm-1 129v-2l-1 1 1 1zm1-4a653 653 0 0 0 1 0h-1zm1-24zm0-95 1-1h-1v1zm5 134c0-3 0-3-2-5-3 3-3 3 2 5zm1-131h1l-1-2-1 1 1 1zm6 93c-3-2-3-2-6 2 4 0 4 0 6-2zm-3 15-1 1v5c3 0 3 0 1-6zm10 1 11-9-10-1c-3 2-3 7-8 8 3 4 4 4 7 2zm14 7c-1-3-3-4-6-6 2 5 2 5 6 6zm-1-18h1v-1l-1 1zm-1-121v1h1v-1h-1zm-4-13h-1 1zm1-582v-1 1zm0 548-1 1h1v-1zm5-561v-1 1c4 0 5-2 6-5v-6c-2-1-4-1-6 1-5 4-6 6-5 10l-4 1c1 4 2 5 4 4l5-5zm2 599v-2l-1 2h1zm2 98h1-1s0 1 0 0zm9-713 9-18c1-3 0-7-1-11-7 4 1 8-3 12-2 0-6 3-9 6l3-7c-8 2-10 7-10 15-1 2-6-1-6 4l9 2c3 1 6 0 8-3zm-5 633 3 2c0-3-2-2-3-2zm3-613h-1v1l1-1zm1 734 3-1v-1l-4 1 1 1zm5-132v1zm2 66-1-1v1h1zm4 59-2-5c-3-2-3 2-5 4l7 1zm2-128-4 1 1 1 3-2zm5-560c-3-2-4-1-6 1 3 3 3 3 6-1zm6-5 6-12-7-1v-1 1l2-6c-7 0-9 2-11 11l6-5 4 6v2h-3c-2-3-6-1-8-2-3 0-4 2-2 5 4-3 8 2 13 2zm6 610h1l-1-1-1 1h1zm4-630 6-8 1-3v-4h-2l-1 4c-4 3-11 1-15 6v2c6-4 9-1 11 3zm0 582 1-1h-1v1zm9-613-3-2v1l3 2v-1zm2 45v-2l-1 1 1 1zm2 471 1-2-2-1-1 2 2 1zm2 190 1-2-2-1-1 2 2 1zm9 27 4-2c3 0 5-1 5-4 1-5 6-6 10-9l4-4-4-4c2-2 4-2 6-1 5 1 7 1 8-3 1-3 2-4 5-4l7-4 2-5c1-2 4-1 5-2l9-4 3-4c2-1 3-2 3-5l9-1c-1-1-2-3-5-3h-13c-3 0-6 1-6 4l-4 5 3 3-1 1c-3 1-6 4-10 3s-8 4-9 9c0 4 0 4-4 5-5 1-9 1-11 6l-2 1c-7 1-11 7-16 10 0 4-5 3-8 5v6c3 1 7-4 10 1zm45-16zm8 5c-5-5-14-3-18 3 8 0 15-1 18-3zm-2-5zm19-35 2-1-1-1-1 1v1zm14-11c2 1 2 0 4-2l-23-2-2 2 1 1c3 2 5 3 8 2 4-2 8-2 12-1zm-2 6 1-1-1-1-1 1 1 1zm8 0c-3-1-4 0-4 2l4-2zm-16-14v1h1v-1h-1zm22-3v-2c3 0 6 0 9-3l2-4 2-1-1-4-4 3 1-6h-2c-5-2-8-1-9 5-6 2-12 1-17-6l6 3 3-8-4-7c-5 4-11 5-13 12l-4 2c0 3 1 5 3 4l9 2c-4 0-7 2-10 0h-3c-7-1-8 0-11 7-1 2 0 4 3 3l10-1 6-1c3-1 4 0 6 3l4 5 4-3 4 1c5 2 5 2 6-4zm19 13 14 2c0-2 1-4-2-5l-3 1c-7-3-14-5-22 0 4 4 9 1 13 2zm17-9c4-1 4-3 4-6l-2-2-1-4c-4 1-5 2-4 5l3 7zm0 26 2-4-1-1c-2 1-3 2-1 5zm16-11-1-5-4 1c-2-1-3-6-7-4l-2 9c5-1 9 3 14-1zm-10 8c2 0 3 0 2-3l-3 2 1 1zm7 2 1-1 1-3-4-1 2 5zm8-28-4 5c4 1 7 5 12 1l-8-2c0-2 1-3 3-3 3-1 3-2 2-5l-6-6-2 3-6-3 3 9 6 1zm-2 10-1-1-1 2h1l1-1zm6 8-1-5-7 1c3 6 3 6 8 4zm1-637 1 1 1-1-1-1-1 1zm-2 4v-1 1zm-3 580v1h1l-1-2v1zm-1-575zm13-14v-2l5-8c-2 1-1-2-2-3-2 3-5 2-9 2l3-3-7-1c-1 6-3 6-12 7l-2-6-6 2c-2 1-3-1-3-4-2 3-5 6-6 10l-2 10c4 5 8 5 12 1l5-5-6-1-5-3c7-3 13 2 20 1-2 5-7 6-9 10l3 6-6-1c-3-1-6-1-8 1l-2 1c1 5-4 5-8 6l5 3c2 0 3 1 2 3v5l7-3-3-3h3c7 1 11-2 12-9 0-4 1-5 6-2v-1l2-2c-5-2-5-2-7-5l8-1-1-5h11zm1 16-1-2-1 1 2 1zm6-10c2-2 2-5 0-7-4 0-4 5-5 8 2 1 4 2 5-1zm-5 7 1-1h-1v1zm1 622h1l-1-1v1zm1 4v-1h-1v1h1zm3-582 9-7c-7-2-6 4-9 6v1zm11 616c0-3-2-5-3-7-5 0-5 1-6 8l9-1zm2-5 1-1-2-2-1 1 2 2zm3 8 9 1h15c0-5-4-7-6-11l-1 5c-2 2-4 0-5-1-2 1-4 3-6 0-4 3-4 3-8 1-2 3-1 5 2 5zm27-694v-6h-1l-5 5 6 1zm-1 25 1-1v-2l-1 2v1zm2 8c1-3-1-3-2-4l2 4zm3 657h2-2zm7-681-1-2 4-5 1-3c-3 0-8 0-8 6l-6-2c-1 1-2 3-1 4l6 4c2 1 4 1 5-2zm0 6v1l1 1v-1l-1-1zm6 687c-4-2-7-1-10 1 7 1 7 1 10-1zm-11-759h-1v1h1v-1zm-3 31c-3 0-3 2-2 4 2 0 3 0 3-3l-1-1zm-2-13h-1v1h1v-1zm-7 14 4 3c0-4 0-4-4-3zm0 44h1l1-1h-2v1zm-2-29 1 1 2-2-1-1-2 2zm-3 29-9 7c4 6 8 2 13 2l-3-2 2-3-3-4zm-5-1 8-3c-3-2-4-2-8 3zm-2-22-2 3 1 1 2-3-1-1zm1-14h-1 1zm-5 28c-1 0-2 1-1 2l2 3 1-1c0-2 0-4-2-4zm-6 34c-4 0-7-1-12 2l8 2c1-2 3-2 5-1l6 1 3-2c-4-1-8 1-10-2zm-1-8v-1 1zm2-26-3 3-8 7c-1 1-2 2-1 3 1 2 2 1 3 0l10-12-1-1zm-3-19v1h1l-1-1zm-8 18h-1 1zm-2 18v-1l-1-1v1l1 1zm19 649h-4l4 4v-4zm3-633zm2-3 5-3a2726 2726 0 0 0-8 0l3 3zm-5 648c3-1 1-3 2-5h5l-2-4-5 1c-5 3-5 3-1 7l1 1zm-6-5zm3-627c2-4 1-6-2-7h-6l2 1-5 2c3 5 8 0 11 4zm-8 614v1l1-1h-1zm2-606c-1-7-1-7-12-9l-3 6h10l5 3zm-12-56zm-3-10 2 2c2 2 3 0 4-3l-6 1zm-10-3-1 1 3 1v-1l-2-1zm-8 5-5-1c1 5 2 5 8 4-4-2-4-2-3-3zm1-6s0 1 0 0zm0-25 1-1h-1l-1 1h1zm-16 25c-1 2-1 3 1 5l3 1v-4l-2-4-2 1v1zm-7-6h1-1zm15 2 3-8c-8-3-15-8-23-5-3 3-4 3-7-1h3l1-5c-3 3-6 2-8 0s-5-1-8 0l2 5-5 2c1 3 3 4 6 3h10l-1 5c4 2 6-5 10-1l-2 2h4l3-4-3-4c6 0 6 0 7 5l3 3v5h3c2 3 4 1 7 0l-5-2zm0-16h1-1zm-24 2 4 1v-3l-4 2zm-5-8c2 1 3 2 6 1-2-3-4-2-6-1zm-4-3-17-3c7 4 14 4 20 6l-3-3zm-13-7v1h4l-4-1zm-6 53 4-2v-1h-4v3zm-6-45c-6-2-10 2-9 8 1 4 0 6-2 8l2 12-5-2 2-5c-7-2-9-1-11 5v5l4 1-1 2-1 9 9-4-2 5c5 3 5-4 8-3l3 10 1 2c4 1 3 3 1 6-1-3-6-2-5-7-4 0-1-4-3-5-5 3-6 6-1 9l-1 6 9 6h3c2 3 4 1 5-1 2-5 8-7 8-13 3-2 5-5 5-9-5 0-7 4-8 8l-6-2c-3 0-3-2-2-5-2-1-3-3-3-6l3-3 3 4c1-2 3-3 6-1h6l1-1c1-4 1-4-4-5-1-3-3-4-6-5 0-2 0-4 3-4 4-1 5 0 7 6l2-8c1-2-2-4-4-2-3 2-5-2-8-1s-5 0-7-3c-1-2-5-2-8-3 3-3 3-3 12 0l6-6 2-5c0-2-2-2-4-2l-10-1zm2-11v2l3 1v-1l-3-2zm-4 0v1-1c1 0 0 0 0 0zm-19 5c-4-1-7-4-11-2l6 5c-3 1-5 0-8-1v8c1 2 3 1 5 0l3-2c2-1 5 0 4 2 0 4 2 3 4 5v-5l3-3c-3-2-5-4-6-7zm-17 12c-6 4-10 10-12 18l7 1c4 1 5 0 5-4l-1-3 6-1 2-5c1-3 1-3-7-6zm0-21h1-1zm-8 4 3 4-6 1-1 7 3-1 4-3c4-1 4-2 4-7l-7-1zm2-7-1 1h1v-1zm-5 7-1 1h1v-1zm-3-1-4 5c5 1 5-1 4-5zm-5 8-1 2 1 1 2-1-2-2zm-5-7-1 3h1l1-2-1-1zm-9 42c6 3 8 2 12-2 3-2 5-4 6-7l5-14v-4l-6 1-2 5 3 2-2 6-3-1-5 1-8 13zm6-27v1h1l-1-1zm-7-76c-3 2-3 4-2 7 2 2 1 2 1 5-6-1-7-1-8 6l3-3c2 5-1 6-3 8l2 9 5-2v7c6-1 4-6 6-9l-5-2 4-14 1-1v-3l3-2-7-6zm-5-59v1l2-1h-2zm-2 64-1 2 1 1 1-1-1-2zm0-58-2 2 1 1 2-2-1-1zm-5 76c-6 0-6 0-8 8 6-1 9-4 11-8v-5l-3 5zm0-8-2 3h2a335 335 0 0 0 0-3zm0-7-1 1 1 1v-2zm-8 34 9-8-5-2-3 7-3-4c-2 0-1 3 2 7zm-3 11v-3 3zm-2 36 3-1-3-1-3 1 3 1zm0 5-1 1h1v-1zm0 500 1 1 1-1v-1h-1l-1 1zm4-452-1 2 6 1c1-4 1-4-4-5l2-1c4-5 4-5 10-4 3-6 3-7-3-10l-2 1-3 2v-4c-2 2-2 2-3 10l-2-2h-2l-4 8 6 2zm5 452c2 2 5 1 6-2-11-4-10-3-13 1 3 0 5-1 7 1zm-4 159v1h1v-1h-1zm7-82 3 2c0-3-1-3-3-2zm10-7-7-3c0 1 0 3 2 3h5zm0 77h1-1zm7-624c1-1 2-3 0-4h-2l2 4zm0 0-4 3c3 1 4-1 4-3zm-4 474zm-10-470c2 0 2-2 2-4-2 1-3 1-2 4zm-1-13-2 6c0 2-2 3-3 5l4-2h4l2-3 3-5-8-1zm5-70c0-1 0-4-3-2l-6 5-1 5 10-8zm-18 22 5 2c-2-2-2-2-5-2zm1-7c1 4 4 5 7 3l2-3 3-2c-3-2-5-2-7 0l-5 2zm24-9-1-1v1h1zm5 36-1 1v1l1-1v-1zm-4-17c3-2 3-5 4-8-4 2-4 5-4 8zm3-52v-1zm-3 82 4-3-7-4-2 2 3 4-3 2 1 1 4-2zm4 568-3-3 3-2-1-2c-5-1-12 2-15 7h16zm-6 119c4 3 4 3 7 0h-7zm2-26 1 1 2-1-1-1-2 1zm2-39c3 0 5-1 6-3-4-2-4 1-6 3zm11-7v-1l-2 1v1l2-1zm14 49-10-1-3 3c-2 2-2 5 0 6 1 3 4 1 6 0l10-6-3-2zm10-90v1-1zm-6-26-4-1v2l4 1v-2zm-4 13c3 3 6 0 10 1-3-5-3-5-10-1zm4 18v-1h-2v1h2zm3-2v1-1zm0 31h2v-1h-1l-1 1zm1-12-2-2c-2 0-2 2-2 3l1 2 3-3zm-11-31c2 3 4 2 5 0-2-2-3-1-5 0zm0-557c-5-3-6 0-7 7l7-7zm-1 633h1l1-1-1-1-1 2zm-2-78-1-1-2 2h1l2-1zm1 57-1-1-2 2 1 1 2-2zm-3 28-2 2 1 2 3-3-2-1zm3-80zm-6 68v-1c-2-1-3 0-3 2l4 2-1-3zm-11-152h-1v1h1v-1zm9 61h-1v1h1v-1zm-2 9 6 2c-4 0-8 2-10-2l-3 2 7 5c3 1 6-1 11-5-3-2-7-3-11-2zm25 56c2 1 2 1 3-2l-3 2zm1-6h1zm3-11-2 3c-1 1-1 3 1 3l2-2-1-4zm2 44h-1 1zm0-24c3 5 4 5 8 4l1-2-9-2zm4-44-2-2-1 1 1 2 2-1zm0 34v1l1-1h-1zm2-8-4 1c-1 2 0 3 2 3s3-2 2-4zm-6-50zm3-556-1-1v1h1zm-9 552 1 2 12 1c-3-5-7-6-13-3zm14 44-1-1c-4 1-4 5-5 7l2 2 2 2 4-1-5-7 3-2zm3 20-6 2 7 4-1-6zm6 0c4-1 4-3 3-6-6 0-6 0-9 4l6 2zm3 1-3-1c-3 1-4 3-3 7h4c2 1 3 0 3-2 1-2 0-3-1-4zm-4-560v-1l-2-1v2h2zm-2 533 7 2 1-4c-2 1-6-1-8 2zm14 13-2-2-3 4-6 1c5 2 8 0 11-3zm1-5-1-1-1 1 1 1 1-1zm3 6zm-4 23zm1-10v-1h-2v1h2zm6 25c-4-2-1-6-4-8l-5-1 4 12 4-2 1-1zm-1-20-3-2-1 1 2 3 2-2zm0 6c2 2 3 2 5 0h-5zm12-4-3-6c-2 0-5 1-7 4 4 4 4 4 10 2zm-2 10-2-1v2l2-1zm12 6-3-1c-4 2-9-2-12 1 3 3 10 3 15 0zm-2 28-1 1 2 1 2-1-3-1zm14-3-5 4h5v-4zm13-1-1-5-4 4 5 1zm-1 3zm-1-36 3 1v-2h-3v1zm-3-19v-1 1zm-9 6-5 3c3 4 8 6 13 4l1-5-6 2-3-4zm0-1h-2l-1 1h3v-1zm-3-22c0 2 0 4 3 5l-3-5zm-17 20v1-1zm6-29v-1l-1 1v1l1-1zm5-508-7-1v2l6 1 1-2zm6 3c-3-2-3-2-5 1l5-1zm-2 540zm-3 25v-1 1zm1-44v-1c-3 1-5 2-6 4l-1 3 2 1 5-7zm-10 17zm2-10h-5v2c2 1 3 1 5-2zm-11-6h1-1zm-2 14h-1l2 1-1-1zm6-4-1-2c-2-1-3 0-5 2 2 2 4 1 6 0zm7-544v-5c-3 1-3 3-5 5l-6 4 5 6c3 0 3-3 4-5l-2-3c3-2 5 0 6 1l13-4-11-3-4 4zm8-16-9 6c6 2 10-2 14-3-1-3-3-5-5-3zm3-33c0-4-2-4-6-3 2 3 3 4 6 3zm-2 7c-3 1-3 3-4 6l4-1c0-1 2-3 0-5zm-12 23h1l-1-1v1zm4-33zm-8 13c6 3 9 2 11-3l2-4c-6 0-9 3-13 7zm33 58c-2 2-2 2 0 5v-5zm0 536-3 1c1 2 4 2 5 1 2-1 3-3 4-6 1-1 0-3-1-5h-1l-1 3c1 4 1 4-3 6zm9-5v-1l-1-1v1l1 1zm-1 24-7 4 4 4c-2-4 7-3 3-8zm-16 6 2 2 1-1-1-2-2 1zm6-14c-3-3-7-4-11-5-3 4-3 4 0 7l4 5 7-7zm-11 26c-1-2 0-5-4-5l1 3-1 2h-2c-2-3-3-1-5 1 4 1 8 2 11-1zm-6 7zm0 0v4c3-2 3-3 0-4zm-10-13 2 1v-1h-2zm-4-7 10 5s2-1 2-3l-1-2c-3 0-5-2-8-3h-4l1 3zm-12-36c-2-4-4-5-11 0h11zm-9 17h2l-1-1-1 1zm1-3v-1h-1v1h1zm-26 14zm5-77-7-3c0 5 1 6 7 3zm-15 82v1l1-1h-1zm7-9-3-2-2-3-4 3c4 4 4 4 9 2zm-30 15h1v-1l-1 1zm5-64c-4-4-6-3-8 2l8-2zm-23 120c-1 0 0 0 0 0h1l-1-1v1zm-2-62 4-5-1-1-7 6 1 1 3-1zm-7 53v1-1zm0-30zm5-19-6-1c2 4 2 4 6 1zm-8 37 1 1v-1zm6-97c-2-3-4-4-6-2 1 3 4 2 6 2zm-16-597c-4 2-6 4-7 8 9 4 16-1 15-13h-5c0 2-1 4-3 5zm1-23c-4 2-5 4-5 8l4-3v4c4-3 0-6 1-9zm-5-58-5 7-1-1 1-12-2 2c0 5-3 7-6 9l-3 5c-4 0-4 0-3-6-3 1-4 3-4 5l5 4-7 1-5 8 9-2-1 6 6 2-1 4c2-1 3-5 7-3-2 3-3 4-7 5l4 6c2 0 3 0 3-2l5-15c1-2 1-4-2-5l4-2 1-8c0-3 4-4 2-8zm-1-13v1l1-1h-1zm-8 2-1 1 1-1zm-16 52zm8 7c-2-2-3-1-4 0v6l4-6zm0-5 1 1v-1h-1zm1 14 1-2-1-1-1 1 1 2zm5-13-1-1v1h1zm4 46c-4 0-3 3-4 5-2 1-6 0-6 4 6 0 6 0 10-9zm1 11h-1v1l1-1zm1 7-1 1v1l1-1v-1zm-3-26c-1 2-1 2 2 4l-2-4zm7-49c-3 2-3 2-2 5 2-1 3-2 2-5zm-2 41 3-3 1 3c2 0 2-2 2-4-6-2-8-1-9 6l3-2zm4 1-4 5c4 0 4 0 4-5zm-28-16 1 2 3-1v-2l-4 1zm-8-7c0 3-1 4-3 6h7l5-4-3-5 8-1c-2-3-5-5-8-3-2 1-5 4-6 7zm-2-78-2 7c5-2 3-5 3-6l-1-1zm-2 90-1 4c2-1 4-2 1-4zm-1-109c2 2 2 2 3 0h-3zm-11 122-1 2h1l1-2h-1zm-4-62zm4-58-4-2 3 4 1-2zm-4-97 1 4c2-2 2-2 3-8l-4 4zm-3-6h2-2zm-1 4-3 6c3 0 5-2 7-4-2-3-3-4-4-2zm-4 114 1-1h-1v1zm-1-23h-1 1zm2 33 2-1-1-1-1 2zm2-15 1-2c0-1 0-2-1-1l-1 1 1 2zm3 50h1l1-2-2 2zm-2-4zm-4 21v-1l-1 1zm1 82h-1l1 1v-1zm-2 668h1l2-1h-2l-1 1zm3-110-1-1-2 1v3l3-3zm-5-666c-5 2-6 4-3 9l5 4-2 6 4 1c-2-6 1-10 3-15-3-2-3-5-1-8l4-6c-5-2-5 4-9 3v5l-1 1zm-5-15-1 3c2 0 2-1 1-3zm-2-13-1 2 2 1v-3h-1zm-1 810-1 1 1 1 3-1-3-1zm3-67 3-2c-3-1-3 1-3 2zm0-14h-2v2l2-2zm0 14v1-1zm-2-678-1 2 1 1 3-3-1-1-2 1zm1-12v-1 1zm2 644c-5 2-5 2-2 8l5-3-3-5zm1-172v1h1l-1-1zm1-310 1-2v-1l-2 1 1 2zm-10-150h5v-3c-3-1-5-2-5 3zm2-15-2 3 3-2-1-1zm-1-32-1 2h1v-2zm-3 54 1-2h-1l-1 2h1zm-1 807h1v-1h-1v1zm2-855c-3 2-5 5-6 9h5c-1-3 4-5 1-9zm-5 679h1l-1-1v1zm2-627-1-2-3 2 1 1 3-1zm-5 664h-1l1 1h1l-1-1zm-1-656c-2 2-2 3-2 6 3-1 4-3 2-6zm-4-72h-1l-3 7c4-2 4-4 4-7zm0 74 1-1h-1v1zm1 631 1 1 1-1-1-1-1 1zm0-8v-1l-1 1h1zm-3 41v-1 1zm-1-650c3-2 3-3-1-7-4 3-3 8-3 12l4-5zm0 614h-1l-1 1 1 1 1-2zm-2 11c3 1 3-1 3-3-2-1-4 0-4 2l1 1zm0 32s1 0 0 0v-1l-1 1h1zm7-806-5 5-1-7c-5 3-2 7-3 11l3-1-2 7 3-2c3-3 4-6 6-10l-1-3zm-1-13v1-1zm-1-70-1 1 1 1 1-2h-1zm-8-14-6 9v8l4 3c4-4 3-11 10-12l-8-8zm-1 114-1 1h3v-1h-2zm-2 146zm-5 287 6 3c-1-4-1-4-6-3zm-2-328h1-1zm0 352-1 2 2 1 2-2-3-1zm-5 29v-1 1zm1 289-1 1h1v-1zm1-290-1-1v1h1zm-5-358h1zm4-16-3 4-5 2 5 6 4-11-1-1zm-11 339-2 4h7v-1l-5-3zm0-317h-1l-1 2 2 1v-3zm-4 316 4-2c-3 0-4 0-4 2zm-6 2c4 1 4 1 5-2l-5 2zm1 6c1 0 3 0 4-3l-5 2 1 1zm10 2c-3-1-6-1-8 2 3 1 6-1 8-2zm-1 21v-1h-1v1h1zm0 423v2h1l-1-2zm2-91h1zm0-47-1-1-1 1 2 2v-2zm-13-297 7 3c1-3 0-4-2-5s-4 0-5 2zm0-322v1zm2 356v-1l-1 1h1zm-5 403v4c0 3 1 3 6 3l1-6-4 1c0-2-1-3-3-2zm0-405v1l1-1v-1l-1 1zm1-37-1 3h1l1-3h-1zm-2 6h1-1zm1 436v-4h-1l1 4zm-2-158zm1-595-1 4 2-1v-3h-1zm-3 764 1 1v-2l-1 1zm-2-441c-1 2 0 3 3 4l-3-4zm1 344zm0 19v1l1-1h-1zm-1-31zm-2-321v1l4 1v-1l-4-1zm0-321v1zm-2 750 4-5c-5-2-5-1-4 5zm1-434-1 1h1v-1zm-13-363-6 5c-1 2 1 4 4 5l5-10h-3zm-5-19v1h1l-1-1zm1-34-4 3v4c5-1 5-1 4-7zm-12 51h1v-1zm0-12-2 3 1 1 2-3-1-1zm-1-33v1h1l-1-1zm-3 27zm0 25 1 1 1-3h-1l-1 2zm-13-5-2 3c2 0 2-1 2-3zm0 24-2 5c3-2 3-2 2-5zm1 25h-1v1h1l-1-1zm-26-124v-3l-2 2 2 1zm-3 14zm-3 10v2h1v-2h-1zm0-28c-2 0-3 1-2 4 2 0 3-2 2-4zm0 22v1-1zm-5 31h1l-1-1v1zm-1-18-1 1 1 1 1-1-1-1zm-2 7v1-1zm-4 6-2 3 1 1 3-3-2-1zm-3-15c-4-3-5 5-10 1 0 4-2 7-5 9l-5 5 6 3 5-7c1-4 4-6 7-7 6-1 6-1 6-8l-4 4zm-10-5zm-10 13-3 2 3-1v-1zm0 11-2 1v1h1l1-1v-1zm9 24h-1zm-2 1c0 1 0 1 0 0zm8 17-1-8c-3-1-5 0-5 3l3 3 3 2zm-1 26 1-1h-1v1zm1 306-1 1 1 2h1l-1-3zm1-372c-1 4-1 9-4 12l5-1-2 7 1 1 3-2-1-16-2-1zm8 12-2-1 2 1zm0 788a22765 22765 0 0 0 0 0zm1-734h-1zm-4-26 3 1 2-3-2-2-5-1 2 5zm2 4h-1v1l1-1zm-1 685h-1v3h1v-3zm-5 62v1l1-1h-1zm2-765c4-3 4-3 9 0l-6 2c3 1 6 3 9 0l-3-9-5-6c-1 4-1 6-4 8-2 2-4 4-7 4 2 2 4 3 7 1zm-11 734zm0-715c3-2 4-4 0-6-1 2-2 4 0 6zm-18-56-1 4c0 2 0 4-4 4v-6c-2-1-5-2-5-6l7-2c3-1 3-2 1-7l-5 2v-5l-6-1c-5-1-5-1-7 4l-2 3-13 18c1 2 3 3 3 1 2-3 7-3 6-8l4 1 1 3-8 6 8 2 5 9-3 6 4 4c2-1 4 0 4-4-1-4 2-6 8-6l-2 7 6 2 3-3c3-3 3-4 7 0l1 1 14-18v-5l-13 13-1-1 2-7-6 5-1-5-7 3v-2c2-4 5-7 5-11l2-1 3-8-10 8zm4-12-1 1 1 1 1-1-1-1zm-10-10c3 2 3 0 4 0h-4zm-25 39-2-3v1a471 471 0 0 1 2 2zm2 12 2-5-1-3-3 1-3 2-3 2c2 5 5 2 8 3zm-13 763v1c3 0 2-1 3-2-2-1-3-1-3 1zm7-724 2-5c-3-2-5-1-7 2l5 3zm-2 707-1-1-1 1 1 1 1-1zm3-93h-1zm2 100-4-2-1 3h1l4-1zm17-738 1-3h-1a2168 2168 0 0 0 0 3zm0 23h-1 1zm-12 710 5 4 7-6c-5 0-9-4-12 2zm6-727 1 1a728 728 0 0 0 1-5l-2 4zm-1-9v1l2-1-1-1-1 1zm-2-17 2-1c1-1 0-2-4-5-1 3 0 5 2 6zm-2 17 2-4h-2l-1 3 1 1zm-3 576zm-2-580-1-1-1 1 1 1 1-1zm-3 17c5 0 5-6 8-8-5 0-7 4-8 8zm22 725h2c2-1 1-2 0-4-2 1-3 2-2 4zm6-151h1v-1h-1v1zm1-572-1-2-2 3 2 1 1-2zm-6 589h-1 1zm-1 104v3l3-1v-5l-3 3zm6-710-2 1c-3 4-1 7 1 12l6-9-3 1-2-5zm1-10zm6 37c0-4 0-7 4-9-4-1-6-1-6 2l-1 8 3-1zm-1 715h1l1-1-2 1zm5-709-1 1h1v-1zm-2 708c2-1 5-1 5-4l-5 4zm5-22 1 1v-1h-1zm0-684 1 2 1-2-1-1-1 1zm-3-29-3 5c3 0 5-1 3-5zm0 19 1 4h2l-1-5-2 1zm9-18 2-1c-3-3-4-1-6 1h4zm-6 729c2 0 4 1 5-3-2 2-3 3-5 3zm-10 40h1v-1l-1 1zm2-50-7-5-2 2-3 6-1 3 4 1 2-1 7-6zm-28 58 3 6c5-2 4-6 6-9-4-1-5 3-9 3zm6-25 9-6c4-1 6-2 8-5l3-3-9 1c-3 1-6 3-7 5l-7 6-10 6 4 2c3-2 8-1 9-6zm-17-744-4 5c3-1 5-2 4-5zm-5 754v1l1-1h-1zm-4-13zm3-12-4 3v2h4c2-1 1-3 0-5zm-1-762c-3 2-3 4 1 6l-1-6zm-3 23 1 2 1-1-1-2-1 1zm0-7h1l1-1h-1l-1 1zm-1-23-4 5c4 0 4-3 4-5zm0 779c-2-1-2-1-4 2l4-2zm1 18h-1v3h2l-1-3zm-2-125-1 1 1 1 1-1-1-1zm-2-159 1 1v-1h-1zm2-437 1-2-3-2v1l2 3zm-6-44v1-1zm-1-23v1-1zm0 618 1-1h-1v1zm0-27 1-1h-1v1zm-3 188v1h1l-1-1zm-3-795-1 1 3 1v-1l-2-1zm-5 795c6 0 6 0 4-5l-4 5zm1-777zm-1 628h-2l1 3 1-1v-2zm-2 81-1 1v1l1-1v-1zm-2 51-2 3 1 1 2-2-1-2zm-1-784h1-1zm0 18v1-1zm22 870-1 1h1l2-1h-2zm24-9h1l-1-1v1zm4 4zm6-8zm14-2c-8 0-10 0-14 7l14-7zm164-4-2-1-1 1h3zm234-73v-1c-6-3-13-3-17 0l17 1zm-11 5h-5 5zm17-6a2947 2947 0 0 1-1-2l1 2zm8 4h1-1zm11-7-3 2c3 0 3 0 3-2zm102-716zm1 711h1l-1-3h-1l1 3zm3-713 1-2-1 1v1zm8 713 2-2-1-1-8 2c2 4 5 2 7 1zm-2-14-3 3 1 1 3-2-1-2zm-1-706-2-1-2 2v4l5-2-1-3zm6-10zm4 720 1-1-1-1-1 1 1 1zm2 66h-1 1zm-2-854-1 1h1l2-1h-2zm6 843 1-2h-5c1 4 3 2 4 2zm2-16h6v19c0 5 3 7 10 6l1-4 5-6 4 1 2-3c4-4 4-4 1-9-1-2 0-3 2-5l3 8c2 0 4-1 3-3l-1-5c1-2 1-3-1-5v-3l6 4-2-10c-4-1-6 2-7 5-3-3-3-3-7-1-3 2-5 4-6 7 0 2-4 4-6 7l-4-4 2-6-7 1c-4 1-5 3-4 6zm4 28 2-1-1-1-1 1v1zm1 9s1 0 0 0v-1l-1 1h1zm27 0c2-1 1-2 0-4-3 1-1 6-6 4 3 2 5 2 6 0zm7-61v1h1v-1h-1zm5 4v1l3 1c2-2 4-5 8-3l-1-6-1-1c-7 1-7 1-5-6 0-3-1-5-5-5l-5-1c0 2 4 4 0 5l-3-3-3-1-2 4 2 2h3c2 0 4 1 3 5l4-1-1 5h6l-3 4zm15-24 8-1-4-7-2-2-2 2-2 5 2 3zm3 12 9-5-3-6-7 10 1 1zm5 39zm1-35c0 1 0 0 0 0h-1 1zm3-2v-1 1zm3-10zm4-7 8 5 9-5c0-3-2-6 0-9 1-1-4-7-6-7l-2 1-8 9-3-2c-3 5-2 6 2 8zm0 5c-1-2-1-2-4-1l4 1zm5 66zm3 8h1l-1-2-1 2h1zm10-45 4-2c-1-3-2-4-4-3l-1 5h1zm6-9 2-4-9-1 4 3 1 3 2-1zm4-36c-2 1-5 1-6 4 3 0 5 0 6-4zm1-11 1-2-1-1h-1l1 3zm10 42-5-5c-4 3-2 8-4 12 3 0 3 0 9-7zm-1-56c-1 2-2 5 1 7 1-3 1-5-1-7zm7-196 2-1c-2-3-2-7 0-11l-7 1 5 11zm3 198c1 3 3 5 2 9l1 2 2 4c8 5 16-3 14-10h4l3-3c1-1 3-2 5-1 3 1 1 3 2 5 4 0 2-4 4-6 2-1 3 0 4 2 1 0 4 1 5-1l-3-4c3-3 6-2 9-2v2c-1 3 1 3 3 3s2-2 2-4l-4-6 10-6c-1-2-3-3-3-5-1-3-3-1-5-2 0-2 0-3 2-3l4 2 6 2v4c2-2 3 0 4 2l4-4c3-2 4-4 4-9l-3-2-1-4 5-11-2-1c-4 2-10 2-13 7l-1 6h-3c1-4 1-4-4-6l-1 3c-6 1-7 1-12 6v8c-5-1-9 0-13 2l-15 9c-5 2-10 4-15 3-2 3-2 6-1 9zm10 28h-1v1l1-1zm-1 17 1-1-4-4-2 4 5 1zm3-2 1 1 2-1-1-2-2-1v3zm6-18h-6l2 11 3 3 1-14zm0 21zm5-35 1-4h-2v4h1zm18-5-1-4-2 2 3 2zm-2 6v-1l-1-1v1l1 1zm32-26 2 2 2-2v-3l-4 1v2zm7-58zm-11-23h-1l1 2h1l-1-2zm-2-166-3-8c5 0 6 7 13 4l-2-2h-1 1l4-3-9-4 1-1 3-1c-4-4-9-5-15-6 3-4 7-2 10-3-4-2-7-3-10-2l-7 5 1 4-4 6c-2 4 0 8 4 9l14 2zm11-57 1 1v-1h-1zm-1 26h1v-1h-1v1zm3-73c-3 0-3 0-4 3l4-3zm4-168v-5l2-3v-1l-7 3 5 6zm3 30c0-2 0-2-3 0h3zm-1 87zm3-85v-1h-1l1 1zm0-56h1v-1h-1v1zm3-22c0-4-1-7-3-10-3-5-7-4-11-6-2 0-9 6-9 8l1 3 8 4v-8l3 3 4-2-3 4c1 5 3 11 0 18 6-4 5-12 10-14zm-24 12h-5l4 4 3-1-2-3zm-5-15-4 2v1l5 1 2-3c-1 0-2-2-3-1zm1-14v2l2-1-2-1zm-7-7-1 6 7-2c-1-3-3-3-6-4zm1 53h-1v1l1-1zm2-7-1-1-1 1 2 1v-1zm-8 26c1 0 3 0 2-2-1-4 0-6 2-9l3 2 4-5c-7-2-11 3-11 14zm1-17-1 2 1 1 1-3h-1zm-2-52-9-3 2 4c3 2 4 3 5 6l3 2 1-2-2-7zm-10 47 4 1 1-1-1-3-4 2v1zm-7 13 7 2c-1-4-2-4-7-2zm-8 7c2 1 5 1 6-1-3-2-3-2-6 1zm1-18-1 2 5 1 1-2-5-1zm-3-49-6 1c6 4 7 4 11-1-2-2-3 0-5 0zm3-9c-3 1-3 3-2 5l3 1-1-6zm-6-23-4 2-8 9h10l-4 4h3l5-5c-4-3-5-6-2-10zm1-13-5 1c3 3 3 3 5-1zm-5-2-2 1c-1 2 1 2 2 2v-3zm-8 7v1l1-1h-1zm0 19-1 4c3-1 2-2 1-4zm0 12v-2l-2 3 2-1zm-6 213-1-1c-2 0-6-1-8 3h7l-1 3 8-4-5-1zm-2-244 1-2-1 2zm-7 31 5-2c-2-1-2-1-5 2zm0-25v1l1-2-1 1zm10 265zm-6 14 2 1v-1l-1-1-1 1zm6-21-2-3c-2 0-3 1-5 4l7-1zm0 130zm2-126h-1v1h1v-1zm6 106v-2l-2-5-3-2-3 3 1 5 7 1zm-4 58v-1l-1 1h1zm9 111h1-1zm0-104v-2l-1 1 1 1zm-2-48c-2 5 0 7 6 7l-6-7zm31 146c1 3-3 6 1 9l3-4-4-5zm9-14v-1zm-2 5v1h1v-1h-1zm-4 2v1l1-1h-1zm1-3h-2l-1 1h1l2-1zm-5-86c4 0 8 2 10-1l1-3c-1-2-2-2-4-1l-7 5zm2-111 4-1 1-7c-5 0-5 0-5 8zm5-16h-1v1h1v-1zm2-36h4l-2 3h1c4-1 4-1 3-5l-6-1-2 1 2 2zm2 8-1-1c-1-1-2 0-2 3l3-2zm1 34h-1l1 1v-1zm4-4-1-1-1 1h2zm1-59-1-1v1h1zm2 48h-1v1l1-1zm-2 29v1l3 1v-1l-3-1zm1-228c0-2-2-4-5-4l-2 10c3-1 7-1 7-6zm-9 23c3 0 5 0 6-2l-1-3h-2l-3 5zm1-8c1-1 4 1 4-3l-9 1v1l5 1zm-11 137 5 2-1 2-1 2h3l2-5c-3-2-5-4-8-1zm0-125v5a913 913 0 0 0 6-2l-6-3zm5-41zm0 6v-1l-2-1-1 1 3 1zm-2 15v-1h-2l2 1zm-9 7c-3 4-1 7 2 12l7-7-9-5zm5-25v-1h-1l1 1zm-6 17c2-1 4-1 6-4l-2-1-5 4 1 1zm4 154v3-3zm1-16zm2 35c0-2-2-3-1-5l-2-4-1-5c-1-1-3 0-4 1 3 5 3 10 0 15l8-2zm-10 4h1v-1l-1 1zm0-30-2 6c3-3 3-3 2-6zm-12 11-2 2 1 3c8-6 8-6 7-8l-6 3zm0-151v1l4 1c-1-3-2-3-4-2zm3-21h5c-1-3-3-2-5 0zm-6-18 4 2h3l1-2-2-2h-7l1 2zm-5 42h5v-1h-5v1zm7 159-1-1v2l1-1zm-1-16 1 1 1-1-1-1-1 1zm4-166c-1-3-2-2-4-1v1h4zm-2 9-3 2c5 3 6 2 7-3l-4 1zm-3 211c3 2 3 2 5-1l-2-2v1l-3 2zm8 15-2 1 1 1 3-1-2-1zm1-28-2-1-1 1 1 1 2-1zm3-9-1-1-1 1 2 1v-1zm3 11c-3-1-6 2-9 8l5-3 4-5zm3 11c-3-2-4 0-6 0v1l6-1zm-2 6v-1h-1v1h1zm-2 9 1 1 8-5 2-4c-7-2-7 6-11 8zm6-15 5 2c-1-4-1-4-5-2zm6-12v1l-1 7 1 1 2-1-2-8zm-8-10zm5-3v-1 1zm-6 12c5 2 7-2 10-3v-5c-2 0-5 3-10 8zm14-39-1-1v1h1zm0 6h-5l1 2c1 1 2 0 4-2zm-2 23h1v-1l-1 1zm0-12v4c2-2 2-2 0-4zm-24 46 1 1v-1h-1zm-1 9-2-1h-4c0 6-4 11 0 17 3-2 4-5 3-8-2-5-2-5 3-8zm-9-77zm-1 15h1-1zm-3 66-1 2 1 2 2-2-2-2zm1-50h-1 1zm-1-42-1-1-1 1h2zm4-2c2-6 2-6-1-9 2 3-3 6 1 9zm17 30-5 3c2 3 4 1 7 2l-2-5zm-2-42h2l-1-1-1 1zm3-116v-1l-3 1v1l3-1zm33 14-4 2c3 0 4 0 4-2zm1 108h1l-1-1h-1l1 1zm1 38 2-3-1-1-3 2 2 2zm2 67-2-1-1 3 4 3 2-1-3-4zm4-96-1-1-2 1 1 1 2-1zm1 101-2 3 1 1c1 1 1 0 1-1v-3zm0-213-3 1v1l3-1v-1zm-1-32 3 1 1-3-2-1-2 3zm-2 11-1-1h-1l1 1h1zm-4 22 1-1-1 1zm4-6c-3-3-4-1-5-1l5 1zm7-75-6 2 1 9c9 0 9-5 5-11zm8 17v-1l-2 1 1 1 1-1zm2 12c-7-5-14-3-18 3 3 1 5 3 2 6l-3-1v3l2 2c4 0 7-5 7-8l1-3c4 2 7 1 9-2zm-4 22 2 2 2-2-1-2-3 2zm3-16h-2v1h1l1-1zm-10 32c3-1 2-3 0-4l-5 5 2 4 3-5zm0 8 1-1-1-1-1 1 1 1zm0 117-2 1 2 1v-2zm-17 95 1 1 1-1-1-1-1 1zm5-8c-3 1-7-1-10 4 7 2 7 2 10-4zm-10 209 1 1 1-1-1-1-1 1zm2-8c-1-3-2-5-6-4l-1 6c3 1 5 1 7-2zm-15-40 1 1 1-1-1-2-1 2zm-2 48v1l1-1zm-1-12h1zm-2-37 1 1 1-1-1-2-1 2zm-14 49 1 2 1-1-1-2-1 1zm1-171h2l1-2 5-12 4-4c2-1 4-1 5-4l6-4v-6l-7-1-6-2-2-4-4 2v5c3 3 7 3 11 1l2 2c-4 4-6 10-13 7l6-6c-6-1-6-1-8 3l-1 4-1 5-12-4c-1 4-1 4 2 4 2 0 4-1 6 1l-2 2c-2 2-2 4 0 5l7 6-1 2zm-7 188h1v-1l-1 1zm2-19-6-3 1 4v3c3 0 4-1 5-4zm-6 30 1 1v-1h-1zm1-14 2-1v-1h-4l2 2zm-7 3h1-1zm5-122c-1-4-3-3-5-2l5 2zm-18-20 1 1c1 1 2 2 3 0l-1-1h-3zm-3-76c-3 0-1-6-6-5l4 9c7 2 8 2 8-5l7 3 1-1-4-9c-1-2-3-1-4 0l-1 5-5 3zm-5 25-2-1v1h2zm7-15v-1l-3 1v1l3-1zm-2 82v1-1zm2-60-2-6h-3l-3 4 8 2zm-4 9h-1zm-3 3v2l4-1-4-1zm-4 255zm-1-291-1 6 2 3 3-2v-5l-4-2zm-1-10v1l1 2v-1l-1-2zm-2 35h1-1zm-1 274-4-1c-1 8-1 9 3 10 2-2-1-5 2-7l-1-2zm0-700zm-3 386h1v-1l-1 1zm-1 5h-1 1zm-6 196h1-1zm-1-194-2 1 2 1 2-1-2-1zm-6-389h-1 1zm-6 381-1-3h-1l1 3h1zm-1 41-1 1 1 2 1-1-1-2zm-13-335 2-1h-1l-1 1zm14-83c-2 4-7 6-10 9l-7 8c6 1 9-1 13-9 5 1 6 0 7-4l1-4c-1-3-4-2-4 0zm-5-6zm-2-15h1zm-20 742v1-1zm-7-608h1l1-1-2 1zm-2 601 1 1v-1h-1zm0-606 6-1c-2-2-3-2-6 1zm-19 624c2 0 3 1 2 2-1 3-3 4-5 6 4 5 9 5 13 0 2-2 2-7 0-9-3-2-7-2-10 1zm5-692-1 1h1zm-5 683v1h4v-1h-4zm0-786v1-1zm-4 806v-1 1zm0-1 1-1h-1v1zm1-9c-2 3-5 2-8 2l4-3c-4-2-8-2-9 0l-9 16c3 1 6 1 6 5l7-4-2-1c-2 0-4 2-5-1 0-4 3-7 6-7h9l4-7h-3zm-3-687 4 2c0-4-1-5-4-2zm-7 673-4 3-3 2 3 2c4 0 8-1 11 3-1-4 3-6 4-9-5-4-6-4-11-1zm-10 4v1zm-3-659-1 1v1l2-1-1-1zm8 750v3h1l-1-3zm59 31v1l1-1h-1zm-10 13-4-2-1 1c4 5 5 10 10 14-2-5-5-8-5-13zm0-2v1h1l-1-1zm-9 12-2-1c-4-3-5-3-9 2l9 9c4-1 2-4 3-6l5 4c-1-5-2-8-6-8zm-7-6 8 2c0-5-2-6-8-2zm10 24v-1 1zm10-1zm58-68zm8-3 1-4h-4l-1 4c1 2 3 1 4 0zm1 2-1-1v1h1zm3-4-2-4h-1v2l2 3 1-1zm2-10zm5-19-1-1v1h1zm9 12v-1h-2l2 1zm7-20c-2-1-2-1-4 1l4-1zm38-4 1-1-1-1-1 1 1 1zm19-4v-1l-1 1h1zm0 14h-1 1zm18 5 1-3c-2-4-1-7 2-10v-1c-1-1-2-2-3 0l-4 10c0 2 1 4 4 4zm10-46-2-1c-2 1-4 2-5 6l7-5zm-4 44 1-3-1-1-2 2 2 2zm17-30 4-2c-4-1-4-1-4 2zm-137 50 1 1v-1h-1zm97-125h1l-2-3-1 1 2 2zm0-22v1-1zm5 20 3-4c-3-1-4 1-3 4zm-7-101zm4 13v-1l-1 1h1zm4 17 1-1h-1v1zm2-8 1-2-1-1v3zm3-468h1l-1-1-1 1h1zm6 19-4-3c1 4 2 4 4 3zm3-60 1-1h-1l-1 1h1zm5 15zm5-7 2-4c-3 1-5 1-2 4zm7-13v-1h-1l1 1zm23 37c-3-2-5-1-8 0 3 2 5 1 8 0zm-6 20-1-1v1h1zm1-9zm11 64 1-2h-2l1 2zm-3-85 3-6c-4 1-4 1-3 6zm-154-98h-1 1zm-189-68h-2l-1 6c4-2 3-4 3-6zm-12-47v2l1-2h-1zm-25 26zm11 62c-3 0-5 2-6 5 2-1 6-1 6-5zm-98-77 1-1-1-1v2zm1-5zm-27-19v-1 1zm1-3-1 2 2-1-1-1zm4-22 1-1-1-1-1 1 1 1zm-37-14 1-1-1-1-1 1 1 1zm-1-7v1l1-1h-1zm-144-17v3h1l1-3h-2zm-4 48-2 6c4-3 5-6 6-11-4 0-3 3-4 5zm0-45c-2 4-7 3-11 4l5 5-3 5c-3 3-5 5-5 10 1 3 0 5-2 8l-5 9c5-1 9-4 10-8l2-5 1-4c0-5 2-9 5-12 4-3 4-7 3-12zm-11-8v1-1zm0-12zm-3-31-1 1 1 1 1-1-1-1zm-4 16c-3 3 2 5 1 7 3-3 1-5-1-7zm-2 11 1 4c1-1 1-3-1-4zm5 33h2v-2l-2 2zm-8-7c-1 1-1 5-3 7-3 2-4 3-3 7 1 1 0 3-1 5h3c2-2 4 0 7 0l-3 9c5-2 5-2 6-7l-2-9-3 2c1-5 2-10 5-14l4-7h-2c-2 2-3 6-8 7zm-10 15-1 2h1l1-2h-1zm12 29 1-2-3-1-1 2 3 1zm19-23-4 7c4-2 4-2 4-7zm-24-48 3-6c-3 2-3 2-3 6zm-3-10zm2 14zm1-4-1 4h1v-4zm-7-82-2 3 1 3 3-2-2-4zm-8 10 4-1c-3-2-3 0-4 1zm-10 33-1 7c3-3 3-3 1-7zm-5-8-1 4 2-3-1-1zm22 36-2 5 3-4-1-1zm-4 8 2-2-2 2zm-37 90v1-1zm-2-15 2-3-3-2v4l1 1zm-289 67h1-1zm-292 235h-1l1 1h1l-1-1zm-5-22-1 2 2 1v-2l-1-1zm-5 9h-1 1zm-4 15c0 3 2 4 5 3-1-3-3-4-5-3zm-4 10c2 3 2 3 7 2l-7-2zm-7-1c1 1 2 2 5 0h-5zm20 51c5 4 5 4 9 1l-9-1zm-5 43 5-2c-4 0-4 0-5 2zm13-4zm-25-7zm3 4-1-1h-2l3 1zm7 105v1l10 1 1-1c-4-2-7-2-11-1zm-11 0v1h1l-1-1zm-7-1-2 1h2v-1zm-16-3-1 1h2v-1h-1zm52 98 1 3 1-1-2-2zm-2 12c3 1 3 1 4-1l-4 1zm-2-55h-1l1 1v-1zm-2 47-1 1h1l1-1h-1zm0-41zm-7 22-1 1 1 1v-2zm-4-46h-1v1l1-1zm-2 47v1l1 1 1-2h-2zm-10-15 9-2c-5-5-5-5-9 2zm5-24v1h1l-1-1zm-12 33-6 6c6 2 11 1 17 0l-11-6zm-7-4-2 4-2-3-21-3H71l-10-3h-3c-2 2 0 4 2 5l5 1c-2 4-9-2-9 5 5 2 10 1 15 2l5 1c4 1 8 3 12 1h5l7 5c0 3-7 3-3 7 6 2 8-3 12-4v-3l-4-7c4-1 7-2 9-6l-5-2zm-57 9c-8 0-12 5-16 10l-4-2-1 2c2 3 5 4 9 3l12-2 3-2c3 2 5 2 7-1l4-3-14-5zm-16-9c2 2 4 1 5-1l-5 1zm40 13-4 3c3 1 5 1 4-3zm17 8c-3-3-4-1-5 0h5zm15 2 2-1-1-1-1 1v1zm17 0 6-1c2-1 2-1 3-5l-13-2c-2 0-3 2-4 3 2 2 6 2 8 5zm-63-49h1zm-21-9zm95 76v1h1zm-41 52-4 1v1h4v-2zm-50 51v-4c0-2 2-3 4-3l12 1-4 5 11-3 5-1 14 3c2 0 4 1 7-1 2-2 3 1 3 3 6-3 6-3 8 2l5-2c-1-5 0-9 3-13-3 0-5 4-8 1l4-3v1l7-7-13-1v3l-8 2 1-5h-5c-3 2-6 1-8 2v-4c-4 0-6 5-10 2l2-1 3-1-8-3-10-1-1-2 8-2c9-1 18-3 26-8l-1-1 1 1c2-1 4-2 3-5-1-2-4-1-6-1h-5c-4-4-8-3-12-2l1-9-6 3-6-5 3-5c3 0 8 2 11-3l2 2c4 4 6 4 11 0l8-3 3 1c5-1 8 1 11 5l8-3 3-6c6 2 11 5 17 6l17 4-2 10 3 1c-1 3 3 3 6 4-8 4-9 10-10 16l11-6c5-1 9-4 12-8l3 8c5-2 5-7 8-10 5 2 7-1 9-4 1-3 4-4 6-5l10-2 6-8 4 3c1-3 1-7 5-5v5l14-10-4-1 1-4 4 1c2 3 5 2 8 3l-3 2-4 5c-4-1-7 1-10 5l14-1c1 0-1-3 3-2l2-2 3-4 3 3c0-3 1-5 4-6 5-2 11-4 14-7 4-4 9-6 14-9l2-1-1-1c-10 2-19 5-29 10l5-5c2-1 4-2 4-4 1-5 4-7 8-9l6-5h-7c-1-4 6-4 6-9-3 1-6 2-8-1 0-1 2-3 1-4-3-2-1-6-1-9-7 1-2 6-4 9l-2-1c0-2 0-3-2-3l-8-1 8-5c2-3 0-6-2-9l5-3-2-5-9 5c-2-3-2-3-7-3l-1-4c-6-1-6-1-6 8l-5-2-4 3-3-4c-4 4-2 11-7 14l-1-4h-5c1-3 0-6 3-6 3 1 0 5 4 5v-10h-15c1-3 6-5 2-8h-8l5-2v-4l5 1h9l1-7-17 2c3-3 6-3 10-4l6-2v-1c-3-1-6 0-8-3-1-4-2-4-7-2l5 3c-3 3-8 2-12 1l4-1-1-5c-5-1-4-7-8-9l-5 5 2 4-4 1c5 2 9 5 10 10l4 2-10 7c3 2 5 3 6 7 0 3 0 6-3 10l13 2c-4 2-8 2-11 2h-17l-2-5-19 2v1l5 2 6 1-3 4c4 1 3 6 7 5 4-2 4 5 8 2l-3-4h6l6 5c4 3 13 2 15-2v-2l9-2 1 4 1 4c-6 1-11-3-16 2l5 1-1 2-10 1-3 3-6-6v-4l-5 2-5-3c-6 0-6 0-9 6l-1 1-3-4c-4 3-9 5-13 9h7l-2 4c2-1 5 0 5-3h3c2 0 3 2 3 3l-4 2h-9c-4 0-9 0-13 3 1 2 4 3 6 2 6-3 9 0 14 3l-6 1 4 5-5 2c-5 0-9 1-13 3h-5l-1-5-9-4c-2-1-5-1-7 1-2 3-4 2-6 1l-6-1v-1h7c1-4 4-4 8-4 3 1 6 0 10-3l-8-1v-2c4-1 9-3 14-3 5 1 8-1 10-5h-7l-6 4-7-7c1 0 4 0 4-3l-24 2-24-3 1-4-7 3 1-4c-5 1-8 2-11 7l7-1-2 3 4 2-4 1c-5-1-9 0-13 2h-1v-3c-11 0-15 0-19-2l5-2-5-1c-1 1-3 2-4 1-5 0-9 0-13 4-1-4-3-4-6-3l-3 5-7-3 3-3c-4-2-9 1-13-3 4-2 7-4 6-9l5 4c3 4 4 4 8 2l4-4-6-5c-1-2-3-4-2-5 1-3 3-4 6-3l-1 3c4-4 10-3 12-7l-14-3 3-2 3-1c-3-5-3-5 1-9-14-2-14-2-16-5l9-1c4 0 9 2 14-1l1 1c3 2 6 1 10 1l8-2c2 0 4 0 6 2s5 2 8 2c0-4-1-6-5-7-4-2-9-4-13-9l-4 3c-3 6-11 8-16 4-2-2-3-2-5-2l-1-1 2-3-5-2 1-1h9l1-4c2 1 5 2 7 1 3-2 5-2 8-1 4 1 8-2 12 2 4-3 8 1 12 1 2-1 3 1 5 1v2l-4 2 1 2 11 1c3 0 7-1 10 3v1l-4 3c1 2 4 4 0 5-4-7-7-6-17-5l-1 6 9 3-5 3c10 2 20 5 28-2l7 5c3-2 3-2 4-5-6-1-11-4-16-7l6-2 4-5c1-2 3-2 5-1l-3 4h5c0-4 5-4 8-6l-7-6c-1-3-4-4-6-6 4-1 9 0 14-3l-9-4-1-5 9-2 2 3h7l-5 4c-3 2-2 6 2 7h15l-3 4c4 3 8 5 13 1l-8-2 15-2c-8-5-17-7-26-7-1-6 3-5 6-6l-1-3h8l-3-3h-11l-4 1h-7l-6 1c0-3 2-4 5-4s6-1 8-3c-10-2-13-2-19 0l-1-5H93c-5 0-8-4-9-9H73c-4 0-7 2-11-2l9-1 13 1h6c5 3 10 1 16 1l-3-7c5-3 5-3 9 0l-6 2c5 4 10 6 16 7h11c2-3 6-7 12-5l1 4c2-2 4-5 7-6 3 0 5-1 7-3l-2-4-3-4h-7c9 1 9 2 5 8h-5c-7 0-14 2-22-1l-2 1h-9c0-2-2-4-1-6 0-2 2-3 4-4-5-2 1-4-2-6l-9-2v-1l15-1v-1l-14-2 3-5c3 4 8 2 11 3 5-5 5-5 14-5h3l9-4c-2 0-5 1-7-1 7-2 7-2 9-6l-18-1-18-3 4-3-2-2 6-3v-1l-7-1-7 1c-4-2-6 0-7 2l-13-4v-2c-3-2-7 1-10-2l5-1c10 1 19 0 28-3l9-3h8c3-2 6-2 10-1l10-2 8-4c4-2 5-5 7-9-11 5-44 7-51 4l2-5 3 2c2 1 4 0 5-2a923 923 0 0 1 1-9l-7-4 10-6-2-3c4-4 7-1 11 1l-8-8-8-1-1-2h3l19-4-7-4-6-1-6 1c-5 0-10 0-14 2l4 6c-6 0-11-2-18-5 4-2 7-4 10-4 10-2 20-2 28-8h2l17-6 2-1-4-4h5l-6-5c-6 3-9 5-17 3l-1-5h12l-9-2c-3-1-5 3-8 0 5-5 5-5 6-10-4-1-10 2-14-2l13-1c-2-3-5-2-7-2-6 2-10-3-15-5 5-2 8-5 14-4l-2-4-7-2c-1-5-4-3-7-3h-4l-3-2 3-3 5 2c6 0 11-2 17-1h9c1-4 4-2 7-3l-3-4c-8 1-9 1-9-5 5 2 5 2 8-2l-1-6h-5l-1-1 5-3-5-3 7-5-6-2c-2-2-5-4-2-7h11l8 7 7-5c3-2 3-6 8-5 0 3-5 5 0 9l2-5 2 1c-2 5 2 9 5 13 2 5 7 8 13 10-2-5-4-10-3-15l5 3-1-4-1-3 7 5c-3-9-3-9 0-11l2 4 1-1c1-5-3-11 3-14l-2-5c3 3 9 2 11 6h3l5-2-3-12c6-3 2-9 6-13l4 2 4 3-3-7 1-1 7 7-2-15 7-1 7 4-4-13h5c-2 3-2 6 0 5 5 0 6 3 9 5h4l-3-8c-1-4-3-6-6-5l-3-14c5 4 11 8 18 9l-4-11 4 3c2 1 3 4 5 4l3-18c5 2 7-2 9-3-2-5-5 2-8-2-2-4 3-6 5-9l6 6 5-6c2-2 3-2 5-1l4 3-1 3 10 8c3-4 4-5 3-7l-9-14-4-4c4-5 9 1 13-2-2-5-3-10-6-14-2-4-2-5 2-6l10 1c0 6 6 6 9 11l3-10-12-6c-4-2-5-5-4-9l4 1 4-8 10 10 1 1 2 9 8 2v-7l6 2v-7l-4-2 2-2 6 4c6-1 6 0 7 6 1 2 1 3 4 3 0-3 0-6 3-7l7 4h1l-2-4c2-2 4-3 6 0l2 3 4 4c2-1 4-3 3-6-1-12-8-21-17-29l-7-8c1-2 3-1 4 0l11 13c2 2 3 4 7 3h-1l1 3c0 4 1 5 6 6l6-8-11-4c-2-1-4-2-4-5l15 3-1-6 4-3c0-6-5-7-8-9 2-3 2-3 8 0l1-2 13 2 3 7 8-9 2 9c4 0 2-7 7-4l-2 6 8 2 3-7 3 3c5-3 6-10 12-12v-3c-4 1-4 1-8 5-3 2-6 2-8-1-1 2-1 5-4 6l2-8 5-1-3-6h6v5l2 1 1-4 6-1c5-1 8-5 12-8 1-1 2-2 4-1 3 0 6 0 9 3l3 1 1-2c-3-3-6-6-7-11-1-2-5-3-8-2-3 0-4 2-5 5l1 4-1 1-3-3-1 5c-6-3-6-3-3-7l6-7c-5 1-9-4-11 2-2-1-3-3-5-3l-9-2c-6-1-13-1-19-5-2-1-4-2-7 0-2 2-5 0-6-3l2-1h16c5-1 10 2 15 1l3 1c5 5 10 3 15 1 4 3 8 6 14 4h6c11 2 8 3 13-6h5c2 0 4 2 4 4 2-2 3-2 6-2l12 2 2-7c0-3 1-4 5-5h4l2 4c5 1 6-6 11-4l2 11-5-2c-4-2-5-1-7 3l6 3h3l9 2c4-5-1-10 0-15 6-3 11-4 18-3l-7-6h7c3-2 6-1 9 0l3 3 2 3-3 2h-4c1 2 3 3 2 4-1 4 0 7 1 10l-8 3c5 5 9 5 16 1l7 7-20 8c4 3-1 8 3 11l8-4c-2-2-2-4 1-6l3 9c1 4 6 2 7 5 3-1 5-5 9-4l-1 4h3l-6 6 4 6c1-3 2-4 5-3l3-2c3-2 3 3 5 3 2-4 2-4 0-8l11-10 2-2-1-5-3 1c-1-3-4-4-7-4l-8-1v-2c4 0 7-2 11 0 3 2 7 1 9 1v-5l4 1v1c5-6 13-10 15-18l-6-3c4-2 7-3 11-3 0-5 2-9 6-11l3-4c1-5 6-8 9-12 1 6-2 10-5 13l-3 7c-3 1-6 2-4 5l-1 3-5 6c-4 4-6 8-5 12l10 9 7 5 2-3h5l5-7c1-1 3-1 3 1 1 2 2 4-1 5l-3 2 3 1c3-2 7-3 10 0l2-2c7-2 10-7 13-13l-6-7-4 7c0 3-2 3-4 2-3-1-3-2-2-5l4-5h-4c-1 4-6 6-4 11l3 1 4 1-7 3c-2-4-7-7-2-11-1-6 3-8 7-10l2-4 6 6 4-2c2-2 4-3 6-2l5 1v-1 1c3 1 5 0 5-3 1-3 2-6 0-9l4-10-1-1-4 1 1-4c4 2 7 0 10-2 0-3 1-5 5-5 1 9-3 15-10 20l2 7c6-3 5-11 11-13l5 8c0 3-4 2-5 3l-6 6 1-5c-3 2-5 4-6 7l-4 8c-2 2-3 5-2 7l-8 8c-2 3-1 6 3 7l4 1c3 3 5 4 9 3h3c7 3 13 0 18-5l-4-3 1-1h6l-4-4c-3-3-5-5-2-9 2-2 4-5 9-5-2 5-1 9 0 13 3 0 5-1 5-4 0-2 2-2 3-2l-1 8c3 0 5 3 5 6 5-1 4-5 4-8l8-4 5-2-1 5c-3 3-7 6-3 12v3c-2 5-1 10 0 16-3 0-5 2-6 5-1 2-3 4-6 4l-2 1 3 2c0 4-6 7 0 10l-1 8c7 1 7 1 9-4l4-2v4c2-1 2-4 3-6l1-4c2-4 6-7 5-12l1-2c1-2 4-2 3-5l1-1c4 0 5-4 6-6 2-3 2-5-1-7s-4-5-3-9c3 2 5 1 8-1h-1l4 3c3-8 9-13 9-22v-1l10-12-5-1 2-4 6-5c2-4 2-8 0-13l-4 2-1-7 4 1 3-9-2-2-6 7-3-2-4 15c-2 5-6 9-12 10v-4l-4 4-12 18-3 2c2-8 6-12 9-18l7-18c-6 1-6 1-8 4l-13 18-1 1h-1l5-13-5-1c-4-3 1-5 2-7l-4-3 6-7-1-6-4 7-3-8-9 2 2-6 10-17c1-2 2-4 1-6-4-1-5 6-9 2l-4 5c-2-4 2-6 3-9 3 2 5 1 6-2l1-2c1-3 3-4 6-5l4-5c-1-1-2-4-5-2 0 2 1 4-2 5l-3-7c-4 2-4 8-10 6l-1-4c-2 4-7 5-6 10l7 2-3 3h-7l-4 6h-3l8-14c5-10 9-20 18-28l1-2c-4 2-3-6-7-4l-4 10c-3 7-3 7-6 6 2-4 2-10 6-14 2-1 2-3 0-5-2 3-1 8-6 9v-6h-4l-6-8-4 1 4-11-6 2c2-5 7-10 3-15l-10 4-6-5c-3-2-4-3-3-6l3-8 7-11c0-1 4-2 5-1l8 2c5 0 5 0 7-4l5 4-3 4 6-1v-5l3 1 6-2c0-3 5-4 4-8-1-1 0-3 2-3l4 2c2 4 1 7-1 10-5 5-5 19 5 23-1 2-2 5 2 6l5-7-1-5c5-4 5-4 3-11h-13l5-4c5 1 9 1 13 3s9-1 13 3c-2 2-7 3-14 4v4l-2 10 1 1 5-3c-1 6 2 9 5 13l7-11c5 7 5 7 10 4-1-3-3-4-6-4l6-4-7-4c-3-2-3-3 0-5 4 2 11 2 12 8h4l1 4h1l3-7 5 5-3 15 14-18 3-3 1 4a4264 4264 0 0 1 5 13l7-2 1 2 1 13c5 1 8-2 11-5l4 2 4-5c-1 6 2 10 6 14l5-9 1 4c-1 3 1 6 2 9 1 2 2 3 4 3l6 1c2 6-1 12 4 18l4-6 6 6 2-1c2-3 5-2 7-1 3 2 7 3 10 1 2 5 2 10 5 14l7 1-2 9c-2 4-3 7 1 10l1 3 4-1-4 11-4 11-5-2v1l4 3 3 3c1 0 3 2 4 0-5-5-4-11 2-14 4 1-2 7 4 8l1-1 2-4c2-7 6-11 13-9l4 4 2 3c1 4 0 7 3 10l1 2v9l5-1-3 9-4 9-9 20 1 1c3 0 7 3 10-1h-1 1l-1-4 2 2-1 1 1-1 1-6c3-1 5-4 6-8 0-3 3-6 6-7l-2 10c5-2 7-8 14-8l-4 9v1-1l1 1h-1v1-1c-1 2-1 3 1 4 3 0 4 3 4 6 0 6-2 11-5 16l-8 12c4 4 6-2 11-2l-10 10-2 5c1 3 0 6-2 8v5l4-1 1 3h6c-6 6-14 9-12 18l22 6 1-1c-3-1 0-5-3-6l-7-2 2-1c5 3 10 3 14-3l3-2v3c-2 5-1 5 4 5l4 2c2 3 4 2 6 0l4 5h-4l5 3 5-8c2-3 3-2 6 1l-5 2-1 6h4c2 2 5 2 7 2 2 2 3 0 5-1 2 4 2 4 5 2 4-3 5-2 8 1l2 3 5-5-4-1c1-5 5-1 8-2l3-6 8-1v5c0 5 0 5 5 6 1 1 3 1 2 4l-8-1-7-1 2 5h2l2 1c1 5-4 2-5 3l1 3-5 1-2 5v2c4 2 6 4 10 4h6c3-2 3-3 6 1l5-2 2-3c-1-1-3 0-4 1l-2 1c-2-4 0-5 2-7l1-1a4703 4703 0 0 1-4-3h7c-1-5 0-5 3-7l2-2 4-4h1l-2 5c7 2 9 2 11-2h-6v-2c5-2 11-3 14-7 4-4 6-9 9-14h-5c-1-6-1-6-5-7l1-6c-4-2-9-2-14-1l4-5c-2 1-5 2-7-1l-9 9c-3 5-6 8-12 8l3-3 4-4c0-3 1-5 3-7l1-3c0-4 2-7 4-10 1-1 3-2 2-5l-3 3-3-1v1l-3 1-5-9h-3c-3 1-5 3-6 6 0 2 0 5-4 4-1-3 4-6 1-9-5 2-5 2-7-2-4-1-4-1-3-5l1-1-1-2c1-1 3-3 1-5-4 0-3 3-4 4l-17 7 4-5 9-6 1-5-2-1 5-7v1-1c4-2 6-6 8-11 1-5 4-6 9-4l-1 4 7-4-1 6c5-2 11-2 17 0l-4 5c2 2 4 5 8 3 2-1 3 0 5 1l-4 4 8 4c2-1 4-5 8-4l-1 4-2 4 3 5c1 1 3 2 5 1 0 3-1 6 3 7l7-1 2 6 3 1v3c4 0 5 3 8 5 0-6 5-3 8-6l-4-4 9-4v1c3-3 2-7 3-10 5 0 7-5 11-8l2 4 7-8 3 3 6-2c1 5-3 6-4 8v6c-3 3-2 6-2 10 1 3 4 5 6 3s6-3 5-7l3-4 8 1c0 3-1 5-4 6-4 0-5 3-7 5h10c4 1 6-4 9-5l4 5c-8 2-10 5-6 12 3 1 2-3 4-4 12-1 12-1 15 2-5-1-5 0-7 4l11-1c3 4 5 7 9 7l4 7-6 11c-2 1-3 2-1 4l4-5c4-5 9-3 14-4 1 0 2 2 1 4l-1 4c0 4-2 7-4 10l-1 4 5 3c4-3-2-7 3-9 3 3 4 3 7 1l2-1c3-2 6-1 7 3l1 6-4 2c3-2 6 1 9 1 1-2 2-5 5-6 3 4-2 6-2 10l2 1c4 2 5 7 3 10l-4 6c-3 3-4 8-8 10-3 2-5 5-4 9l5-1c1-6 5-10 10-12l3-3 9-1c-1 2 1 6-3 6l-2 1-3 8 4-1c4 0 6-1 6-5 0-3 4-5 6-3 4 4 8 2 12 2 3 1 5 0 7 3l-4 1-4 1-3 4c-1 1-3 3-2 4 1 3-1 4-2 7v5l3-3c1-3 2-4 5-1l5 2 8 2a442 442 0 0 1 35 11l2 1-10 1c-4-4-6-5-8-4l-8 1h-3c2 4 3 5 6 4h4l11 6c5 2 9 3 15 0l-6-4v-1l14 5-4 4c-2 1-2 4-2 6h1l3-4-2-2h1l1 1v1c3-3 3 2 5 2l2-5c4 4 7 6 11 5 6 2 7 1 9-4l-3-2 4-1-1-6 5-2-3-3c7-3 8-4 4-8l6-9 2-6c2-7 7-7 12-5 0 2 3 4 2 7l1 3c2 1 2 4 2 6l1 9c1 6 0 11-4 15l-4 5 1 6c0 5 2 6 7 7l3 1c-2 4-8 1-9 5 2 5 9 1 10 7-6 6-6 7-2 14l-1 1c-4 3-4 3 0 7l1 1c0 3-3 7 1 10l-1 1 2 2-2 4h4c4-4 7-2 12 0l-18 8 1 13h-6c4 2 5 5 3 8h3c5 2 9 2 13-1v3l-21 5c7 4 13 2 21 3-4 2-7 4-7 9l8 1c1 4-3 4-5 6l-2 5 3 2 3 1c1 11-3 20-9 27v2c1 5 1 6-3 8l-7 6c-2 3-5 5-9 5-3 0-4 1-5 4l-3 7c-1 4 1 8 5 9l5 1c-6 2-11 2-14 8h1c-7 6-7 7-1 11 1 6-5 7-8 10l5 9-4 3 8 4-5 3-5 2c2 3 4 4 7 4 0 2 0 4-3 4s-6 1-7 4l1 4c-5 2-6 3-6 10 0 2 0 3-2 5-2 4-4 8-1 12v4l-2 10c-5 0-6 4-8 7l-8 12 3 5-5 1-6 1v1c3 1 5 4 9 3 2-1 4 0 5 2 0 5-4 7-6 10 3 5 6-1 9 1l2 5c-6-2-7 4-11 5 2 3 4 7 0 10l5 4c-3 5-7 7-12 9l1 1 6 1-8 2c-2 0-5 0-6 2-3 2-6 3-10 2-1-1-3-1-4 2l5 1 4 1 5 1 6 2 4 1c-1 3-1 6 2 8l-4 3 1 1-3 10 5 8c-1 5-3 10-7 14-5 3-7 8-11 12l4 5-3 4h-2l1 2c2 4-3 5-4 8 2 5 7 3 10 5l-5 3 3 4c4-3 6-5 6-10-1-1 0-3 2-2 2 6 2 6 7 5l-2 3-4 3 18 5 5-5 1 5c2 2 3 0 5-1 5 1 6 5 4 9l-1 1c-1 2-1 4 1 6 3 2 4 6 3 10l-8-9c0-1 2-4 1-5-2-2-4-6-9-6l1 6-1 5c-2 3-2 6 0 8l-2 3 3 7-3 5 1 2 2 5 6-5 7 4-5 2c2 5 2 6-3 8-3 0-3 1-3 3l-4-3-9 4v4l-3-1-4 4c-1 2-2 4-1 5 2 3 0 5-2 8h6c4-1 4-1 7 3l-4 4c1 2 2 1 4 1 2-2 4-1 6 1l2 2c1-3 4-5 4-8 3-2 7-1 9-5 2 2 2 2 0 8h-2l-5 8 7 3-1 2-8 1c-4-1-5 0-5 4 0 3-1 5-4 5-4 1-7 5-10 6l-4 2c-1-2-2-5-6-4v6l-2 3c0-2-1-3-4-3-1 2 1 3 2 5l2-2-2 2v2c-5-2-9-2-13 1l-4 1-1 1 3 3-3 2c2 5 1 8-6 11v-5h-6l-1 1c-4 2-6 5-4 10v5l-6-1c-6 3-12 5-19 4 1 5 7 8 4 13l-6-2-2 5c-3 3-5 8-10 7-6-1-10 7-17 6l-2 3c-3 2-3 2-7 2l-2 2v7l-1 4c-4 3-3 7-4 10h-4l7 8c4 3 1 8 7 9l-1-6c-1-2-4-2-3-5 6-1 7 0 6 5 4 2 6 7 8 11l5 7 2 4v-6c-6-2-6-8-8-12l3-5c2 3 5 3 8 1-1 4-3 9 3 11 2-1 2-3 2-5l-2-8v-7c0-2 2-5 3-5 4 0 2-2 2-4l-1-2 6 4 5-3c3-1 3-2 3-5 0-4-3-7-3-10v-3l7 9c7-2 6-2 9 4l-2 4 3 1 4-7c5 1 5 1 5 6-1 1-5-2-4 2h5l-1 5-4-2 4 10 1-5c5-2 6-6 6-10h1l3 5c4-3 6 0 9 2l-4-11h-1c-4 1-4-3-6-4l-5 3c-3-3-4-5-2-9l7 4 2-7 1-1 2 5h2l1-4 6 2 1-9 2 1 8-4c1 2 0 5 4 5l1 2c-1 3 0 6-4 8-1-3-2-8-8-9 2 3 1 4-1 5l-1 1c-1 3-2 5-5 3h-3c5 3 10 3 15 1l3 5c1-5 4-5 7-4 4-5 0-10 1-15 4 2 7 4 11 1l1-6 5 3 7-11c-3-2-5-2-7 1-1-1-3-2-2-4s2-1 4-1h4c3-2 7-1 11 0l1-1 1-2 9-4 3 6c-1 3-5 1-5 5l4 6h-5v2l6 2c2 1 4 2 5 5-4 3-8 5-10 9-4 4-7 4-13 5l4-6c-1-1-6 2-3-3l5-1c2 0 4-2 3-4l-4-2c-2 0-5 1-5 4l-3 1c-3 2-3 5-1 7l3 2v4c1 3-1 8 3 9l1 3c-2 3-2 7-2 10l-2 3-6-5-3-2-4 4c0 3 0 6-4 9l-2-3v-7h-4c-6 3-5 8-5 12h-3l-1 6h-1 1l-7-6c-7 4-2 8-2 12l-1 1c-3-3-7-4-10-8-2-4-6-5-10-3v16l-13-1-4 2c-1 2 1 3 2 3l2 2-7 2c0 3 0 6-4 6l-3 4-2 2c-3-2-2 2-4 2-2-2-3-5-7-6-1 3 1 4 2 5 3 2 3 4 0 6l-2 1-4 8-7-2v5l-2-1 1 7c-7 3-6-4-9-6l-2 9c-3 3-3 6-1 9-4-1-6-3-4-7l-6 3c-5 0-1-7-7-7 1 6-1 10-4 14 1 2 4 3 3 5l-8-2-3 6h-1l-1-7h-1v5c-6-2-9 0-11 3l-8 1c-3 2-4 0-6-1l-3 2c1 4-3 3-4 5s3 4-1 7l-3-5-2 2c-6-4-9-9-7-16v-2c-3-2-3-6-5-10l-6-5-1-3c3-2 0-3 0-4 6-4 7-4 11 2l4-1c-2-4-3-7 0-10l5-1 9-6c0-2 2-4 5-5l4-2c4-2 5-3 3-6l-2-7c-1-2-3-3-1-6 3 1 4 2 5 5 1 4 1 4 5 3 1-3-2-6 0-10l4 6h1l-1-4h5l-6-15h6c1 2 3 5 7 6 4-5-1-10 2-14l-8-4c-4 2-9 3-15 1v4h-3l-3 2-11 9-1 1c0 3-2 4-5 4l-4 1c-2 2-3 2-5 1l-2-2-1 5-6 1 2 5-7-2c-3-1-3 2-4 5-1-4-4-3-6-3-3-3-6-2-9 0 0-6 2-9 7-10l4-5c7 1 10-6 16-9l-4-4c-4 3-7 3-11 1l-4 7-3-3-6 2-2-5c3-4-1-3-2-4l-4 4c-2-3 2-6 1-9-3-3 2-6 1-9-3-2-6-2-10-1s-8 2-12 0c-4 4-4 4-9 0l6-3-1-5 16-1c6-1 9-6 7-12l-6 1 6-6c2-3 2-3-1-5l-1-1 1-3c-2-2-4-2-7-1s-7 0-9 4h-2l-4 2-4-4c0-3 0-5 3-5l3-2 1-2-6 3-6-7h-18c-4 1-7-2-11-3-1-5-7-4-9-8l-6 3 2 4-3 1c-1-2-1-2-3-2l1-2h-3c-3-2-6-3-9 0l-5 1c2-4 1-6-5-10 5-1 5-1 9 1l2-5c1-1 0-3-1-5l5-2 7 2 5-4-9-3c-1 2-3 1-5 0l-5-6-1 4c-3-2-6 1-9-2l-5 1c-2 2-4 4-7 2-2-1-5-1-5-4-3 1-6 2-7 1-4-3-9-4-15-3l4-5 4 1c4-2 8-1 12 0 4 0 4 0 4-4-7 2-13-4-19 0v-2h-2c-7-2-14-2-19 4l-2 1-2-1c0 4-5 5-6 8 3 3 5 2 7-1l2-1v4c4-4 7-1 11-1l12 1-1 2h-3c-9 2-18 1-26 1-4 0-8 0-11 2l-6 1c-2 0-5 1-7 3l-4 7 6 4h-6c-3 0-5 2-6 4 0 2 2 2 3 3l3-5 3 5 3-1 2 4c6 2 12 4 18 2 3 0 4-2 3-4l-13-5c4-3 6 0 9 0l19-1c3 0 6 0 10 2h-3c-5-1-9 4-15 3l-3 3c-1 1-1 3 1 3l10 1 9 2 9 4-3 2 1 1h7c1-2 0-5 3-5l7 1 2-1 9 4c1 3 0 4-3 6-1 1-2 2-3 1v-4h-3c-4-2-7-1-10 2-2 1-7 2-9 1-5-2-10-1-15-1l2 3-6 1-5 2-2-1c-8-2-17-1-24-6h-2l-12 1-1-5h10c-4-5-9-4-14-5s-9 0-14 1c-1 0-3 0-4 2 5 3 11 1 16 1-3 7-10 2-13 6l1 3h-8c-6-3-10 0-15 3l-5 3-2 3c3 2 8-2 9 4l-18 1c-2-4-5-1-7 0-4 3-7 5-8 9-10 2-16 9-23 14-2-3 0-4 1-5 7-5 15-10 20-17l2-3 15-11 4-5c-5 1-6-4-11-2l-10 2c-3 1-7 1-8 5l-4-1-3 4-6 5-8 4c-3 2-5 2-8 0l-1 1 1 2c2 4 2 4 7 2l2 2v1l-11 2c-1 2-4 5-6 4-2-2-5 0-7-2l-8 9-1-6c-2-1-4-1-4 1 0 3-1 4-3 5l-2 2c2 3-2 4-1 7h-4c-2 3-4 2-6 2l1-6c-6 1-11 1-13 7-4-4-8-3-13-1 0 3 0 5-3 6l-3-3-4 5 5 2c-1 2-1 4 1 5 3 1 5 2 7 1 4-4 8-3 12-3l1 2 1 2c0-3-2-5 1-7 2 2 7 1 9 5l-2 1c-3 0-7 1-6 6l-4 2c1-4-1-5-5-5l-2 7-4-1 2 4-3 1-4-3-1-2-3 2 4 4-3 1-2-1h-6v-4c-3-1-6-4-9-2l-3-1 1-3-3-1 1-6-2-1-1 4-1-1-3-3c0-2-2-2-4-2l-6 1-1-1 5-3-6-3-3-6h6l-6-7-3 7-8-2c-2-1-4 0-5-2l1-2 4 2-1-7c0-2-2-2-4-1l-5-3c-2 1-4 1-6-2-1-2-3-2-5-1l-6 4-9 5 3-9-6 3-5 2c-2 1-5 0-4 4l5-2c2-1 3-2 5 0l-5 3-5 5c-1 3-3 4-5 5l-1-3-7 6c-3 1-4 3-6 6l-3 2c-1-4-2-1-2 0h-1l1 1c-3 4-8 6-13 9l6-6-2-6c-4 0-7 6-13 6l5-6c-1-4-5-2-7-3v-3h-5c7-7 15-10 21-16l-1-1-10 6-3-3-4 6-1 2-7 5-24 13-2 2c4 0 7 0 9-2l12-7 6-3c-2 3-5 7-8 8-8 2-9 7-12 13 6 0 9-7 15-4l7-6 1 3 6-3 1 1-3 2-4 4 8-3v2c-3 2-8 3-7 8l-1 1-12 6-1-1 3-3c-3 1-6 1-7 4-2 4-6 6-10 7l-3-3c-1 4-2 6-6 7l-9 4h-2c-4-3-9-1-12-4l-4 4-5-2c7-6 14-11 22-14 4-2 4-4 2-7 2-3 5-5 9-4l1-7-14 8c-8 6-16 10-26 13-1 3-5 3-7 4l4-8-11-1 4-9h-4l2-6c0-2 1-4-1-6l-1 2-8-2-7 4-4 1c-2-4-4 0-7 0 1-3 3-6 1-9l-6 2-2-6-6 2c-2 0-4 3-5-1 1-2 6-2 6-7l-14 4-12 4-1-1c5-2 9-5 11-9-5-6-6-6-12-3l-4 2 3-4c3-2 2-4 1-5-2 1-4 2-5 1l-4-2c-4 1-7 3-11 1l5-5c-2-1-7-2-8-1l-17 4-5-1c-2-6 7-4 7-9l-12 5c0-5 6-7 7-10l-5-3c-4-3-8-6-13-4l-6 1c3-4 3-4 0-6l-5-3 3-4h-5c-2-4-5-2-8-2 3-2 7-2 7-6l-7-2 2-5-4-6-11 6-26 15-17 9-7 4c-4 1-8 2-11 5l-2 2-13 3-4 1 1-3 8-3c4-2 8-3 9-6l-3-2 13-7-7 8v-1l-1 1c9-2 16-7 23-12-5-3-6 2-9 1v-3l-8 4c-9 4-16 10-26 11l-5 2-5 2c-6-2-11-1-14 4-4-3-1-6 1-8l6-4 1 3 1 3c4 0 5-2 6-5l-2-1v-1l9-2c3 1 5 0 7-3l3-6h3l6-7c3-5 8-7 14-7l2 4 6-7h-4l2-3-2-1c-5 2-12 1-15 6l-2 1-8 5-11 6-27 10-6-1-1 2c-5 3-10-1-15 3v-1l-6-2 11-4c-6-2-12 5-16-2l2-2 8-5 4-7h-7l1-2h-10c-4-3-5-1-7-1-2-2-3-4-5-4-3-1-4-6-8-6 0 0 1-3-1-4-2 0-3-2-5-3-3 0-6 3-9 0l2-3h-8c2-4-3-3-5-5l4-5-7 3c-3-3-5-7-10-6l-1 4c-3-2-6-3-6-7-6-1-11-2-16-5l4-2c-3-5-6 0-10-1-1-5-5-7-10-7 0-6-4-9-9-13-6 2-13 4-20 3l-4 4h-8l-10-2h-2l-3 2-13 1h-9l-1 5c-3 2-6-1-9-1s-6 2-9-1l2-6h6l-4 3 1 1c6 1 14-5 12-12-1-3 1-5 3-6l7-4v-1H81c-4 0-9 2-13 0 0-6 0-6-6-9l-3-2-2-3h16l4-1c3-2 6-2 10-2l10 9c4 2 7 3 12 0l-6-2v-6c3 0 7-1 10 2h4c6-1 8-5 10-11-6 2-10 1-14-2l-4 4c0-5-4-4-7-5h-5l7-8c-4-1-7 0-10 1-4 1-7 4-12 2l6-11-5-1-7 6-5-4-11 1v-3H48l-1 5-9-2 8-7c-8 0-16-2-23 2-3 1-7 2-10-1 8-1 16-4 23-9 3 3 5 4 9 2" fill="currentColor" fill-rule="nonzero" stroke="none" stroke-width=".151679"  transform="matrix(.13333 0 0 -.13333 0 4000)" />
</svg>
