<svg width="269" height="49" fill="none" xmlns="http://www.w3.org/2000/svg">
  <g fill="#89D9C6">
    <path d="M73.47 30.48a17.02 17.02 0 0 0 6.77 1.8c2.17 0 3.29-1.04 3.29-2.3 0-1.26-.85-2.15-3.23-3.3-3.01-1.48-5.5-3.63-5.5-6.83 0-5.3 4.71-8.8 11.37-8.8 2.3-.11 4.58.34 6.67 1.31l-1.8 5.35a12.05 12.05 0 0 0-5.19-1.19c-2 0-3.4.93-3.4 2.26 0 1.05 1.05 1.95 3.16 2.94 2.79 1.42 5.77 3.46 5.77 7.03 0 5.88-5.02 9.12-11.85 9.08-3.28-.12-6.4-.93-7.94-2.05l1.88-5.3ZM94.5 37.24 101.6 0h7.64l-2.86 14.84.1.05a10.76 10.76 0 0 1 8.26-3.88c4.02 0 6.5 2.52 6.5 6.92-.05 1.56-.21 3.11-.5 4.64l-2.77 14.68h-7.63l2.7-14.07c.23-1.05.36-2.12.37-3.2 0-1.67-.74-2.88-2.65-2.88-2.64 0-5.34 3.2-6.34 8.4l-2.23 11.74h-7.7ZM151.61 21.56c0 9.4-6.5 16.27-15.45 16.27-6.56 0-10.95-4.26-10.95-10.6 0-8.92 6.24-16.21 15.45-16.21 6.94 0 10.95 4.72 10.95 10.54Zm-18.55 5.5c0 3 1.49 4.99 4.13 4.99 4.18 0 6.5-6.03 6.5-10.43 0-2.37-1.01-4.88-4.08-4.88-4.31 0-6.56 6.34-6.52 10.33h-.03ZM153.84 37.24l3.23-17.3c.59-3.26 1-6.09 1.33-8.35h6.57l-.47 4.15h.1a10.5 10.5 0 0 1 8.84-4.72c4.13 0 5.93 2.57 6.14 4.83a10.67 10.67 0 0 1 8.88-4.83c4.03 0 6.35 2.52 6.35 6.87-.03 1.48-.2 2.95-.47 4.4l-2.78 14.95h-7.35l2.6-14c.22-1.03.34-2.09.36-3.14 0-1.8-.8-3.05-2.6-3.05-2.53 0-5.02 3.4-6.02 8.55l-2.17 11.64h-7.35l2.64-14.1c.22-.97.34-1.95.37-2.94 0-1.74-.58-3.15-2.43-3.15-2.6 0-5.3 3.62-6.25 8.65l-2.1 11.54h-7.41ZM197.85 37.24l4.91-25.65h7.65l-4.92 25.65h-7.64Zm9.62-28.85a3.5 3.5 0 0 1-3.65-3.7 4.3 4.3 0 0 1 4.33-4.3h.06a3.58 3.58 0 0 1 3.82 3.7 4.21 4.21 0 0 1-4.5 4.26l-.06.04ZM213.56 40.81c2.13.95 4.43 1.43 6.76 1.42 3.82 0 6.67-1.68 7.73-6.82l.43-2.16h-.11a8.8 8.8 0 0 1-7.42 3.79c-5.14 0-8.26-4.15-8.35-9.13 0-8.5 6.08-16.9 17.35-16.9 3.3-.05 6.58.56 9.64 1.8l-3.92 21.15c-.92 4.72-2.32 8.92-5.45 11.38-2.78 2.2-6.56 2.89-10 2.89-3.44 0-6.66-.63-8.4-1.63l1.74-5.79Zm17.77-23.55a7.71 7.71 0 0 0-2.78-.48c-4.64 0-7.88 5.1-7.88 9.97 0 2.57 1.17 4.46 3.5 4.46 2.48 0 5.02-2.72 5.8-7.08l1.36-6.87ZM268.69 21.56c0 9.4-6.5 16.27-15.45 16.27-6.57 0-10.96-4.26-10.96-10.6 0-8.92 6.25-16.21 15.45-16.21 6.93 0 10.95 4.72 10.95 10.54Zm-18.55 5.5c0 3 1.47 4.99 4.13 4.99 4.17 0 6.49-6.03 6.49-10.43 0-2.37-1-4.88-4.07-4.88-4.35 0-6.58 6.34-6.52 10.33h-.03ZM1.54 4 .02 9.65a.57.57 0 0 0 .56.72h7.46L5.12 21.18a9.53 9.53 0 0 0 9.21 12h21.28a9.83 9.83 0 0 0 9.51-7.29l2.67-9.96a.64.64 0 0 0-.62-.8H25.3l.66-2.5a3.06 3.06 0 0 1 2.96-2.26h19.8a.74.74 0 0 0 .7-.55l1.48-5.51a.6.6 0 0 0-.57-.75H29.48a10.52 10.52 0 0 0-10.16 7.8l-2.58 9.59a.7.7 0 0 0 .68.87h21.67l-.66 2.49a3.07 3.07 0 0 1-2.96 2.27H16.14a4.48 4.48 0 0 1-4.32-5.64L16.3 4.23a.53.53 0 0 0-.51-.67H2.1a.59.59 0 0 0-.57.44ZM36.16 42.9a3.92 3.92 0 1 0 0-7.84 3.92 3.92 0 0 0 0 7.85ZM15.39 42.9a3.92 3.92 0 1 0 0-7.84 3.92 3.92 0 0 0 0 7.85Z"/>
  </g>
</svg>
