<svg xmlns="http://www.w3.org/2000/svg" viewBox="0 0 32 32">
  <path fill="#334D4B" d="M26 32H6a6 6 0 0 1-6-6V6a6 6 0 0 1 6-6h20a6 6 0 0 1 6 6v20a6 6 0 0 1-6 6z"/>
  <path fill="#89D9C6" d="M22.667 8H9.333C8.597 8 8 8.597 8 9.333v13.333C8 23.403 8.597 24 9.333 24h13.333c.737 0 1.334-.597 1.334-1.333V9.333C24 8.597 23.403 8 22.667 8zm-3.713 8.946-2.927 2.13a2.273 2.273 0 0 1-2.263 2.049 2.281 2.281 0 0 1-2.223-1.788L10 18.72v-2.863l2.603 1.049a2.222 2.222 0 0 1 1.393-.307l1.902-2.714c.013-1.662 1.379-3.01 3.054-3.01A3.044 3.044 0 0 1 22 13.909v.001a3.04 3.04 0 0 1-3.046 3.036z"/>
  <path fill="#89D9C6" d="M13.763 17.186c-.121 0-.241.013-.362.04l.697.28a1.319 1.319 0 0 1 .742 1.721 1.327 1.327 0 0 1-1.733.734c-.273-.107-.549-.221-.822-.326.281.525.835.886 1.479.886.93 0 1.674-.741 1.674-1.667a1.666 1.666 0 0 0-1.675-1.668zm5.191-5.31a2.042 2.042 0 0 0-2.049 2.033 2.04 2.04 0 0 0 2.049 2.033 2.035 2.035 0 0 0 2.041-2.033c0-1.12-.918-2.033-2.041-2.033zm.256 3.657c-.905 0-1.634-.729-1.634-1.628s.731-1.627 1.634-1.627c.897 0 1.634.726 1.634 1.627s-.737 1.628-1.634 1.628z"/>
</svg>
