<svg viewBox="0 0 24 24" fill="none" xmlns="http://www.w3.org/2000/svg">
  <path d="M24 0H0v1.3h24V0Z" fill="#89D9C6"/>
  <path d="M24 0h-1.3v4.28H24V0ZM1.3 0H0v24h1.3V0Z" fill="#89D9C6"/>
  <path d="M12.39 22.7H0V24h12.39v-1.3ZM7.91 5.64v5.31a3.32 3.32 0 0 0 3.31 3.32 3.32 3.32 0 0 0 0-6.64 3.2 3.2 0 0 0-2 .71v-2.7h-1.3Zm3.29 3.27c1.1 0 2.03.92 2.03 2.04 0 1.11-.92 2.04-2.03 2.04a2.04 2.04 0 0 1 0-4.08ZM24 5.64v5.31a3.32 3.32 0 0 1-3.3 3.32 3.32 3.32 0 0 1 0-6.64c.75 0 1.44.26 2 .71v-2.7H24Zm-3.28 3.27c-1.11 0-2.04.92-2.04 2.04 0 1.11.93 2.04 2.04 2.04a2.04 2.04 0 0 0 0-4.08ZM24 17.32h-1.3V24H24v-6.68ZM16.6 5.64h-1.3v8.63h1.3V5.64ZM23.35 16.67a.65.65 0 1 0 0-1.3.65.65 0 0 0 0 1.3ZM14.4 24a.65.65 0 1 0 0-1.3.65.65 0 0 0 0 1.3Z" fill="#89D9C6"/>
  <path fill-rule="evenodd" clip-rule="evenodd" d="M20.63 23.3a3.34 3.34 0 1 1 1.3-2.64V24h-1.3v-.7Zm0-2.6a2.01 2.01 0 1 1-4.02 0 2.01 2.01 0 0 1 4.02 0Z" fill="#89D9C6"/>
</svg>
