<svg width="16" height="16" fill="none" xmlns="http://www.w3.org/2000/svg">
  <path d="M8.85 15.542c-.09-.108-.247-.305-.348-.44a12.863 12.863 0 0 0-.555-.652c-1.059-1.171-1.23-1.337-2.078-2.006-.569-.45-.292-.128.355.414.648.54 1.583 1.494 1.613 1.645.014.07.164.273.395.533.378.43.503.609.447.643-.042.026-.312-.26-.648-.688-.624-.791-2.099-2.196-3.059-2.911-.3-.225.26.303.897.843.69.583 1.459 1.356 1.459 1.464 0 .043.145.232.341.443.344.37.555.631.555.69 0 .115-.166-.038-.571-.52-.542-.645-1.645-1.73-2.417-2.376-.833-.699-1.161-.967-1.161-.95 0 .066.258.314.748.72 1 .827 1.944 1.702 1.944 1.801 0 .028.178.248.395.489.39.43.53.626.483.675-.025.024-.208-.164-.745-.759-.442-.488-1.483-1.455-2.633-2.442-1.9-1.63-3.124-2.778-3.272-3.064-.114-.22.015-.174.308.11.444.43.502.459.145.069-.18-.195-.326-.376-.326-.402 0-.109.204-.032.408.154.07.065-.042-.068-.25-.294C.63 8.025.323 7.63.426 7.63c.008 0 .24.247.514.55.275.304.716.784.98 1.067.424.453.6.699.35.492-.045-.038 0 .017.103.125.211.222.205.218.181.125-.029-.113.053-.13.204-.043.086.05-.145-.208-.612-.679-1.292-1.306-2.161-2.31-2-2.31.021 0 .448.466.95 1.037.95 1.083 1.53 1.668 2.297 2.324.407.347.507.45.436.45a.344.344 0 0 1-.093-.037c-.13-.07-.077-.014.162.17.155.12.2.143.13.069-.165-.18-.088-.272.134-.16.045.023.014-.015-.069-.084A55.075 55.075 0 0 1 2.4 9.217C1.603 8.46.038 6.645.038 6.48c0-.095.189.1.515.532.156.205.476.567.712.803.53.531 1.09 1.157 1.09 1.218 0 .1 1.373 1.275 2.355 2.017.333.252.407.425.092.218-.157-.103-.1-.033.076.093.102.074.159.098.145.063-.068-.18.096-.185.35-.013.297.2.162.079-.232-.21-1.12-.822-2.433-1.942-3.022-2.579C1.317 7.754 0 6.167 0 6.07c0-.09.084-.004.398.405.153.199.318.389.368.42.049.034.403.417.786.855.422.48.865.941 1.327 1.383.347.323.64.62.652.657.029.093.334.334 1.329 1.051.463.334.883.647.935.695.067.063.12.083.18.067.065-.017.155.025.364.17.153.107.277.182.275.165 0-.017-.256-.207-.567-.423-2.628-1.82-3.424-2.55-5.331-4.893-.723-.886-.731-.897-.701-.927.035-.035.167.1.385.393.112.15.237.292.278.317.04.025.38.408.754.85 1.047 1.237 1.646 1.828 2.69 2.654.22.175.401.334.402.355 0 .036 1.039.799 1.72 1.261.194.134.404.25.466.26.062.01.146.032.188.049.04.016.066.021.055.01a50.092 50.092 0 0 0-1.42-1.019C3.478 9.414 2.616 8.602.82 6.384.162 5.57.018 5.373.073 5.354c.064-.02.134.052.359.375.115.162.233.306.264.316.03.013.43.47.89 1.017 1.219 1.456 1.987 2.175 3.383 3.168.28.199.55.409.601.465.197.217 1.567 1.13 1.718 1.144.05.005.166.06.255.124.09.063.155.1.142.08-.03-.048-1.03-.763-1.76-1.256C3.543 9.174 2.719 8.407.9 6.115a20.876 20.876 0 0 1-.736-.962c-.088-.168.023-.127.153.057.062.086.223.275.357.419.135.144.581.672.992 1.175 1.36 1.665 2.013 2.252 3.972 3.571.48.323.881.611.892.64.03.079 1.17.875 1.252.875.04 0 .126.026.191.06.159.08.119.043-.347-.312-.392-.3-.667-.487-2-1.363C3.64 8.968 2.734 8.11 1.134 6.02c-.306-.4-.639-.832-.738-.959-.234-.302-.204-.39.036-.103.108.127.221.25.339.37.084.083.297.352.473.6.176.246.442.566.59.709l.268.262-.252-.316C1.47 6.103.3 4.542.3 4.514c0-.086.122.011.274.217.097.133.207.25.244.263.038.011.167.159.286.328l.314.442c.053.074.228.275.39.448l.292.315-.297-.385c-.455-.596-.9-1.2-1.334-1.81-.13-.202.035-.112.188.102.08.112.175.214.21.225.062.021.202.203.908 1.176.508.704.7.933.986 1.184l.248.218-.275-.317C2.217 6.32.56 4.1.562 4.008c0-.04.04-.017.116.07.12.133.242.264.365.394.203.23.391.472.565.725.729 1.064 2.112 2.595 2.878 3.186.702.542 2.224 1.504 2.532 1.602a.498.498 0 0 1 .197.115c.03.038.267.197.523.354.605.369.961.634 1.03.766.058.114.274.296.351.296.078 0 .207.121.527.49.167.193.332.366.367.384.034.019.111.077.172.131.08.072.07.05-.043-.089-.9-1.093-1.655-1.684-3.581-2.8-2.085-1.21-2.838-1.845-4.208-3.553C1.857 5.46.655 3.785.685 3.754c.056-.055.611.59.966 1.121.492.737.556.82.971 1.25.192.2.33.338.307.308l-.462-.596c-.297-.387-.588-.779-.871-1.177-.249-.35-.525-.733-.614-.85-.088-.116-.16-.23-.16-.251 0-.084.078-.035.189.118.055.08.125.15.205.207.05.026.303.368.563.76.288.436.568.809.718.961.212.215.229.225.123.081-.36-.491-1.323-1.848-1.478-2.081-.212-.319-.213-.452-.001-.17.08.108.175.205.213.217.037.012.275.336.528.72.373.564.771 1.06.771.962 0-.025-.889-1.304-1.203-1.731-.235-.318-.292-.42-.232-.42.072 0 .456.456.723.858.42.635.556.817.645.864.047.025-.014-.086-.158-.29-.383-.544-.971-1.435-.971-1.473 0-.165.356.222.675.732.166.266.379.56.474.653l.17.168-.22-.316c-.805-1.165-.863-1.266-.756-1.332.06-.037.204.143.485.608.244.406.425.648.482.648.019 0-.09-.18-.241-.402-.395-.578-.513-.831-.384-.831.069 0 .132.08.34.43.211.353.358.555.385.527.011-.01-.08-.176-.204-.367-.267-.414-.309-.491-.309-.569 0-.168.158.012.612.699.662 1 .895 1.302 1.244 1.616l.292.261-.276-.317c-.586-.675-1.723-2.32-1.723-2.493 0-.127.053-.106.192.073.08.102.161.202.246.3.068.076.123.166.123.2 0 .206.733 1.164 1.442 1.883.278.278.552.562.82.85.174.21.7.605.911.683.251.094.411.206.453.314.052.136 1.066.694 1.26.694.163 0 .857.389 1.909 1.07.73.475.86.5.268.054-.452-.342-.907-.608-1.977-1.16-2.74-1.418-3.813-2.4-5.306-4.86-.282-.463-.233-.65.06-.23.22.317.25.267.045-.076-.102-.17-.18-.326-.172-.347.03-.092.126-.025.28.193.233.336.261.288.041-.073-.102-.169-.18-.332-.175-.361.023-.119.105-.074.246.133.082.12.187.25.234.292l.087.075-.083-.131c-.31-.488-.395-.71-.269-.71.021 0 .114.116.204.258.155.242.232.328.264.296.008-.007-.078-.156-.19-.33-.195-.307-.238-.422-.17-.464.042-.026.158.104.304.343.066.109.151.214.19.235.103.055.09.02-.074-.2-.274-.366-.381-.644-.237-.617.036.006.136.12.223.251.189.288.307.43.336.4.011-.01-.091-.186-.227-.389-.229-.339-.304-.53-.21-.53.052 0 .153.122.381.464.109.164.239.323.29.355.11.07.115.081-.192-.379-.12-.179-.218-.36-.218-.402 0-.164.123-.061.354.296.131.204.275.389.316.411.105.057.1.041-.071-.216-.219-.33-.286-.484-.234-.536.055-.055.127.002.24.188.2.333.336.523.391.544.054.021.054.014 0-.07-.157-.236-.327-.583-.306-.617.047-.075.134-.036.226.101l.503.757c.225.34.535.777.69.972.155.196.282.378.283.406 0 .086.233.349.353.4a.727.727 0 0 1 .209.147.97.97 0 0 0 .241.175c.144.073.14.065-.115-.2C5.817 2.66 4.764 1.23 4.9 1.066c.058-.07.178.035.32.283.055.093.33.49.61.88.28.39.533.765.56.831.053.132.308.384.39.384.027 0 .117.066.202.15.083.081.177.149.208.149.072 0 .287.18.287.24 0 .024.178.17.396.322.218.151.439.331.49.398.073.095.113.118.179.102a.374.374 0 0 1 .21.041c.188.095.098.024-.379-.298a10.487 10.487 0 0 1-2.9-2.938c-.214-.329-.277-.623-.102-.478.093.078 1.193 1.61 1.263 1.76.073.154.29.365.378.365.03 0 .169.106.307.235.138.13.44.373.67.543.23.17.45.352.488.405.053.073.107.098.221.103.15.008.147.004-.357-.362-.878-.636-1.207-.946-1.983-1.873-.538-.642-.765-1.047-.615-1.096.05-.017 1.008 1.25 1.122 1.488.085.176.298.375.454.425.048.014.217.146.377.294.175.16.357.312.547.455.141.102.274.22.296.261.055.104.088.122.183.105.102-.02.492.245.493.335 0 .1.797.625.948.625.099 0 .435.221.591.387.17.183.536.445.685.492.228.071 1.495 1.141 1.495 1.261 0 .069.342.432.448.475.208.087 2.281 2.689 2.281 2.864 0 .175-.252-.064-.6-.564a26.225 26.225 0 0 0-1.987-2.457c-.448-.478-1.552-1.367-2.501-2.013-1.25-.849-1.727-1.14-1.4-.852.073.064.133.148.133.187 0 .04.038.088.084.106.046.019.218.12.382.224.163.104.333.19.375.19.096 0 .424.202.453.279.03.077.481.404.711.514.379.182 1.309.956 1.492 1.242.112.175.26.323.6.597.388.314 2.092 2.594 2.003 2.683-.06.06-.226-.103-.466-.458-1.065-1.575-1.812-2.392-3.464-3.79l-.091-.077.058.093c.032.052.2.208.372.348.56.454.78.664.906.86.128.193.294.358.488.484.258.18 1.966 2.432 1.966 2.593 0 .172-.233-.05-.513-.487-.352-.548-1.27-1.721-1.71-2.186-.272-.285-1.507-1.371-1.532-1.346-.029.029.12.174.484.467.383.31.579.51.796.815.074.101.164.19.265.262.316.2 1.949 2.317 1.949 2.527 0 .183-.154.04-.49-.459-.88-1.308-1.578-2.112-2.539-2.924-.613-.517-.594-.503-.466-.362.06.069.297.283.525.475.227.192.437.396.467.454.089.176.296.415.424.491.29.17 1.811 2.156 1.83 2.388.014.165-.134-.002-.864-.98-.84-1.123-1.213-1.547-1.837-2.083l-.486-.42-.09-.077.084.117c.047.065.235.24.419.388.183.148.36.322.394.387.101.196.245.365.389.455.308.195 1.754 2.079 1.754 2.286 0 .149-.17-.036-.732-.801-.68-.925-.9-1.2-1.285-1.599-.317-.329-.961-.88-.905-.775.024.043.166.18.317.305.15.125.298.274.327.33.085.177.214.329.375.442.364.23 1.69 2.007 1.622 2.176-.033.082-.062.046-.865-1.039-.596-.805-1.43-1.726-1.69-1.866-.149-.079-.081.026.121.19.11.09.254.25.318.356.065.107.171.234.235.281.549.402 1.853 2.167 1.595 2.159-.027 0-.34-.392-.694-.869-.675-.91-.996-1.285-1.406-1.646-.278-.244-.344-.23-.081.017.092.086.168.177.168.2 0 .068.258.352.372.41.263.137 1.422 1.678 1.422 1.89 0 .124-.166-.062-.74-.822-.674-.895-.94-1.206-1.24-1.459-.217-.18-.231-.176-.076.02a.578.578 0 0 1 .113.186c0 .05.35.393.402.393.121 0 1.28 1.546 1.28 1.708 0 .142-.157-.023-.678-.707-.635-.836-.953-1.215-1.133-1.352l-.12-.092.04.13a.85.85 0 0 0 .19.274l.416.407c.425.416 1.085 1.34 1.01 1.414-.052.053-.16-.065-.664-.722-.678-.888-1.128-1.37-1.093-1.172.026.147.154.303.355.432.277.176 1.117 1.274 1.117 1.458 0 .156-.05.107-.557-.545-.838-1.078-1.196-1.453-1.11-1.167.04.134.16.27.492.55.44.375 1.102 1.354.866 1.282-.026-.008-.253-.275-.506-.592a30.888 30.888 0 0 0-.643-.787c-.212-.244-.633-.609-.496-.43.046.059.084.144.084.189 0 .092.225.322.39.4.067.03.256.244.477.537.203.266.384.491.405.498.02.007.142.15.267.317.126.169.24.318.254.334.013.015.017-.031.008-.104-.033-.285.192-.116.42.315.213.409.176.633-.057.33a7.083 7.083 0 0 0-.15-.191c-.074-.087.028.31.107.414.05.067.08.138.067.16-.038.06-.08.02-.279-.264l-.182-.26v.13c0 .092.042.186.146.325.146.195.187.314.1.285-.027-.009-.161-.181-.3-.384-.265-.385-.33-.468-.255-.325a.312.312 0 0 1 .037.15c-.01.113 0 .136.19.396.103.141.186.292.185.335-.002.117-.208-.128-.49-.583a5.654 5.654 0 0 0-.236-.365c-.04 0 .177.517.284.678.156.234.256.424.256.479 0 .116-.112-.016-.435-.512-.366-.565-.479-.718-.372-.507.033.067.06.137.06.158 0 .02.042.1.093.175.052.075.094.16.094.187 0 .028.084.179.187.336.181.278.225.39.152.39-.02 0-.207-.257-.416-.57-.438-.66-.462-.688-.425-.534a.855.855 0 0 0 .14.256c.067.09.122.188.162.292.03.084.12.25.2.37.14.204.203.409.109.351-.022-.013-.25-.342-.509-.73-.446-.676-.566-.837-.442-.597.032.061.057.13.057.154 0 .023.093.169.206.324.113.154.205.317.205.36 0 .044.077.188.169.32.162.233.205.34.133.34-.052 0-.21-.218-.686-.94-.239-.364-.454-.673-.479-.688-.024-.015 0 .037.055.116.053.08.098.174.098.207s.109.206.24.383c.132.177.252.377.266.444.015.067.092.213.172.325.129.18.186.339.12.339-.035 0-.083-.065-.653-.906a14.94 14.94 0 0 0-.56-.797c-.064-.039.241.484.46.788.118.164.224.349.238.41.039.114.094.22.163.318.161.237.2.326.153.354-.042.027-.17-.141-.666-.877-.229-.34-.458-.667-.51-.729l-.094-.112.045.13c.023.073.155.283.293.467.308.417.407.579.408.669 0 .037.048.13.107.205.13.166.242.379.213.407-.042.044-.184-.132-.593-.736-1.238-1.826-1.915-2.443-4.213-3.833C5.272 9.16 4.727 8.79 4.093 8.27l-.336-.277.261.258c.403.395 1.389 1.103 2.309 1.657 1.339.807 2.155 1.352 2.158 1.442.002.066.243.279.317.279.091 0 1.254 1.177 1.254 1.27 0 .038.123.226.275.418.33.42.472.641.472.735 0 .039.057.144.125.234.195.256.248.37.171.37-.057 0-.127-.089-.61-.785-1.219-1.753-1.917-2.385-4.134-3.739C4.843 9.21 4.247 8.76 3.217 7.763c-.194-.187-.29-.264-.214-.172.586.713 2.192 1.938 3.942 3.009.717.438 1.147.751 1.238.903a.557.557 0 0 0 .345.25c.06.014.25.187.486.44.213.23.45.456.525.504a.371.371 0 0 1 .175.22c.02.075.161.29.313.478.355.442.551.736.551.825 0 .038.05.131.11.208.13.163.211.33.178.363-.043.044-.123-.055-.583-.71-1.195-1.706-1.86-2.319-4.01-3.704C5.1 9.622 4.558 9.25 4.055 8.855c-.206-.162-.29-.217-.187-.121.462.426 1.211.986 1.903 1.423 1.103.697 1.625 1.055 1.717 1.182.115.157.545.476.679.503.079.017.252.167.599.52.267.275.508.5.534.5.026 0 .08.07.122.158.04.087.216.335.389.551.295.367.543.759.543.857 0 .023.067.127.15.232.082.104.15.224.15.266 0 .133-.15-.038-.677-.776-.555-.775-.989-1.301-1.402-1.7l-.292-.28.292.315c.16.173.306.354.323.401.019.048.06.087.092.087.033 0 .083.055.112.122.029.066.189.29.356.495.364.449.59.779.622.91.013.053.098.195.187.317.17.23.185.268.126.304-.035.022-.165-.141-.949-1.196-.465-.625-.958-1.182-1.337-1.508l-.276-.237.327.319c.18.175.327.341.328.368 0 .028.119.184.264.35.638.725 1.08 1.323 1.08 1.458 0 .043.076.166.17.275.09.108.166.233.166.278-.003.11-.232-.14-.602-.655-.618-.863-1.329-1.667-1.92-2.173l-.225-.193.188.22c.102.12.38.423.618.672.742.779 1.344 1.551 1.344 1.725 0 .043.042.118.092.166.127.119.298.371.27.399-.054.055-.158-.059-.645-.702-.804-1.063-1.378-1.695-2.028-2.233-.335-.279-.1.016.401.5.638.616 1.536 1.687 1.536 1.83 0 .034.09.168.2.3.223.271.31.418.273.456-.043.043-.239-.172-.652-.715-.796-1.046-1.404-1.706-2.083-2.263-.448-.366-.255-.107.287.386.613.558 1.56 1.64 1.563 1.782 0 .03.116.195.256.364.275.33.412.55.37.594-.042.042-.194-.12-.563-.6-.94-1.226-1.68-1.998-2.603-2.714l-.166-.13.09.122c.049.067.258.269.465.449.704.611 1.703 1.683 1.703 1.825 0 .032.14.225.308.43.37.446.513.669.428.669-.031 0-.131-.089-.222-.196Zm1.425-3.398c-.602-.719-1.203-1.259-1.902-1.707-.583-.375-.515-.27.113.172.218.157.424.332.614.522.143.15.286.272.318.272.032 0 .26.21.507.468.458.479.64.62.35.273zm.26-.134c-.54-.666-1.508-1.541-2.03-1.836l-.15-.085.113.087c.061.048.205.171.318.274.11.1.226.194.347.28.077.052.15.131.161.177.028.108.293.347.386.347.043 0 .168.11.308.27.236.271.735.776.767.776.008 0-.09-.13-.22-.29zm.288-.093a9.053 9.053 0 0 0-1.173-1.236c-.473-.405-.558-.463-.295-.205.118.116.215.242.215.281 0 .094.208.292.383.364.094.04.217.155.373.348.197.246.655.719.695.719.007 0-.082-.122-.198-.27zm.125-.262c-.494-.651-1.512-1.675-1.142-1.148.035.05.063.12.063.154 0 .06.225.262.393.353.041.022.175.165.299.317.208.257.566.634.604.634.008 0-.09-.14-.217-.309zm.88.262c-.715-1.236-2.031-2.32-4.239-3.493-.942-.5-1.42-.772-1.813-1.029l-.225-.147.159.137c.088.075.16.166.16.201 0 .038.08.112.196.18.107.062.296.174.418.25.122.074.261.136.309.136.159 0 1.483.714 2.46 1.328.152.099.31.19.471.275.163.062.607.465.613.556.007.099.22.334.333.367.118.037.195.116.495.51.153.2.317.39.365.422.05.032.134.125.19.206.097.138.168.206.108.101zm-.671-.442c-.409-.54-.734-.903-.944-1.054l-.183-.13.053.154c.069.197.13.265.338.365.123.06.235.167.416.403.216.28.547.64.59.64.009 0-.114-.17-.27-.378zm-5.25.254c0-.026-.055-.067-.122-.092l-.122-.044.113.092c.13.107.13.107.13.044zm5.939-.24c-.32-.443-.676-.86-1.063-1.244-.2-.195-.336-.314-.302-.263.033.05.06.13.06.175 0 .083.307.387.391.387.057 0 .226.183.45.486.159.214.538.635.572.635a.993.993 0 0 0-.108-.175zm.283-.04c-.313-.486-1.18-1.483-1.379-1.585-.063-.033-.07-.031-.03.01a.224.224 0 0 1 .047.13c0 .087.262.353.347.353.066 0 .229.178.513.56.2.27.508.62.555.633.008.001-.017-.044-.053-.1zm-8.54-.173c0-.008-.106-.102-.233-.209l-.234-.194.22.208c.212.201.247.229.247.195zm5.503-1.041a.8.8 0 0 0-.164-.117c-.146-.084-.122-.05.051.073.142.1.168.11.113.044zm-1.335-.188a2.149 2.149 0 0 1-.17-.14.298.298 0 0 0-.15-.065c-.063-.007-.015.037.152.14.27.164.338.19.168.066zm.746-.172c-.02-.018-.566-.335-1.213-.703-.648-.368-1.228-.702-1.29-.74-.203-.126-.043.002.275.22.632.438 2.46 1.44 2.227 1.223zm.469-.041c-.164-.13-.879-.55-1.563-.922C5.854 8.067 5.46 7.825 4.887 7.37A10.93 10.93 0 0 1 3.41 5.898c-.554-.67-.596-.714-.43-.445.549.89 2.43 2.662 2.826 2.662.091 0 .159.03.235.106.088.089 2.702 1.589 2.892 1.66.114.043.13.024.038-.048zm.486.02c0-.08-.938-.647-2.08-1.255-1.326-.707-1.786-.992-2.426-1.506-.453-.365-1.34-1.296-1.733-1.82a61.23 61.23 0 0 0-.363-.48.78.78 0 0 0 .049.15c.08.214.168.33.687.91.238.267.478.557.533.643.225.36 1.988 1.693 2.237 1.693.109 0 2.043 1.068 2.745 1.516.106.066.223.13.262.139l.08.022c.005.004.01-.003.01-.012zM7.146 9.67c-.068-.071-.342-.196-.342-.155 0 .014.383.24.408.242.009 0-.021-.038-.066-.087zm.535.038c-.239-.161-.655-.364-.614-.3.024.04.115.101.203.138a.834.834 0 0 1 .23.137.275.275 0 0 0 .163.072c.089.003.09 0 .018-.047zm2.433-.059c-.083-.136-1.1-.757-2.208-1.349a46.428 46.428 0 0 1-1.85-1.04c-.051-.031-.022.006.066.084.087.076.158.164.158.194 0 .098.87.575 1.048.575.152 0 1.484.75 2.265 1.275.126.086.257.164.393.234.158.07.153.067.128.027zm.148-.227c-.205-.228-1.142-.787-2.74-1.638-1.191-.635-1.978-1.148-2.53-1.65-.146-.134-.129-.106.081.125.31.34.585.557.86.679.284.125.534.308.534.388 0 .128.8.565 1.241.677.212.053.864.42 1.75.983.562.358.791.494.856.507.008.002-.015-.03-.052-.071zM6.053 9.07c-.008-.008-.293-.2-.633-.425-.712-.475-1.257-.902-1.748-1.369-.19-.18-.345-.317-.345-.304 0 .1.97.966 1.645 1.47.312.233 1.209.754 1.081.628zm4.34-.213c-.359-.312-1.217-.827-2.169-1.303C6.71 6.798 5.91 6.27 5.086 5.48c-.344-.329-.348-.331-.15-.095.43.514 1.167 1.129 1.569 1.31.32.145.355.17.367.246.013.094.448.335.504.28.049-.05.211.03.188.09-.027.07.535.39.685.39.172 0 .644.262 1.602.88.595.387.773.476.541.275zm.168-.2c-.434-.358-1.09-.752-2.243-1.347-2.3-1.183-3.241-1.975-4.483-3.77-.197-.285-.358-.508-.358-.494 0 .163.479.865.887 1.304.367.392.72.823.72.878 0 .157 1.532 1.303 1.88 1.407.035.011.081.062.1.113.044.114.402.308.46.25.056-.056.322.09.364.2.038.102.586.393.74.393.117 0 .444.178 1.012.55.422.279.973.609 1.013.609.011 0-.03-.042-.092-.094zm.187-.19c-.414-.344-1.067-.74-2.187-1.325C6.648 6.144 6.227 5.86 5.383 5c-.637-.649-.66-.667-.644-.535.017.138.48.697.578.697.021 0 .278.193.57.428.292.235.673.514.846.619.172.104.358.238.414.298.132.143.395.277.528.268.105-.008.544.2.553.26l.01.075c.006.057.619.369.725.369.12 0 .333.115.833.45.237.158.53.34.653.402.123.063.257.14.298.172.121.094.121.065 0-.036zm-7.122.048c0-.006-.105-.111-.233-.234l-.234-.223.223.233c.208.218.244.252.244.224zm1.757-.169c-.533-.363-.933-.708-1.63-1.41-.629-.633-.765-.755-.672-.601.252.418 1.55 1.607 2.097 1.924.271.156.366.196.205.087zm5.477-.105c-.262-.219-1.094-.743-1.72-1.08-2.354-1.272-2.728-1.52-3.575-2.367-.615-.617-.972-1.056-1.49-1.837-.305-.462-.338-.49-.167-.15.2.403.525.88.674.995.096.073.128.126.128.21 0 .18.805 1.07 1.14 1.26.083.047.352.233.598.413.247.18.552.389.679.462.126.074.239.16.25.19.029.074.317.218.386.192.075-.03.798.34.798.408 0 .03.037.078.083.105.461.28.628.363.727.363.079 0 .228.076.483.249.186.126.378.244.575.351.114.057.273.155.356.217.18.138.23.15.075.02zM5.308 7.99c0-.008-.164-.138-.364-.29-.427-.323-1.362-1.224-1.74-1.678-.373-.447-.388-.46-.215-.18.32.514 1.388 1.6 1.832 1.864.135.08.295.179.356.22.117.08.131.086.131.064zm5.442-.133c-.075-.12-2.376-1.489-2.376-1.412 0 .01.117.087.262.173.167.1.262.18.262.222 0 .039.055.091.14.131.076.037.267.14.423.231.157.092.317.166.356.166.039 0 .146.052.239.114.092.064.252.154.355.202.103.047.22.113.262.146.086.068.106.075.077.027zm-.283-.504c0-.03-.587-.392-.975-.602l-.595-.327c-.26-.145-.231-.11.072.085.13.083.244.185.254.225.011.04.031.073.045.073.014 0 .244.125.51.28.403.233.69.343.69.266Zm.245-.133c-.029-.045-.82-.544-1.16-.731l-.262-.144.124.118c.068.065.114.135.1.156-.012.022.024.058.082.083s.263.146.456.27c.21.134.414.234.506.25.083.013.158.027.164.03.006.002.002-.012-.01-.031zm-5.085-.235a12.21 12.21 0 0 1-.957-.803l-.3-.283.117.19c.134.214.646.653.992.85.26.147.303.16.148.046zm5.096-.062c-.207-.148-1.095-.7-1.265-.786-.063-.031-.048-.008.047.072.077.065.14.15.14.188 0 .04.036.08.083.095.047.014.262.14.479.28.235.152.445.261.523.27l.164.022c.018.003-.058-.06-.17-.14zm.38-.02c0-.025-.938-.648-1.178-.784-.103-.058-.24-.138-.306-.177l-.118-.07.042.109c.055.147 1.221.887 1.38.875.056-.004.113.009.124.029.024.037.055.047.055.017zm-6.566-.515c-.359-.347-.862-.937-1.554-1.823l-.102-.13.042.13c.131.419 1.58 2.008 2.04 2.239.005.002-.187-.185-.426-.417zm6.678.288c0-.016-1.485-.983-1.663-1.083-.149-.083-.174-.09-.122-.03.036.04.066.098.066.127 0 .076.415.333.58.36.085.013.146.046.156.083.04.156.983.675.983.543zm.128-.21c-.042-.068-1.397-.941-2.016-1.3l-.15-.085.125.102c.067.056.115.124.104.152-.022.056.568.41.784.47.125.034.25.127.282.208.035.092.669.485.775.482.06-.003.103-.015.095-.029zm-3.087-.087a6.95 6.95 0 0 0-.369-.208c-1.569-.854-2.426-1.658-3.62-3.397C4.12 2.559 4 2.395 4 2.41c0 .07.214.434.422.715.226.305.293.416.418.695.07.157.417.557.482.557.058 0 .51.448.51.507 0 .056.262.316.319.316.065 0 1.331.867 1.466 1.005.104.104.142.12.244.103.068-.013.169 0 .233.03.113.052.194.072.162.04zm.341-.108c0-.018-.773-.447-.868-.482-.783-.292-2.264-1.732-3.177-3.09-.2-.297-.365-.528-.365-.513 0 .08.253.507.525.885.168.236.351.505.406.598.055.092.361.42.683.728.32.309.595.6.61.645.016.049.07.095.126.11.148.037 1.015.612 1.193.792.137.14.17.155.278.136.092-.016.18.006.347.089.258.127.243.12.243.102zm.256-.154c-.01-.01-.281-.17-.603-.354C6.67 4.86 5.82 4.068 4.747 2.51c-.19-.278-.334-.472-.319-.43.016.041.045.129.064.196.04.138.407.642 1.056 1.45.17.206.335.418.492.635.039.055.09.1.15.13.225.116.375.223.52.37.083.084.35.275.594.423.245.148.478.316.52.37.081.11.261.203.322.166.02-.014.186.051.366.143.325.166.378.19.342.153Zm.045-.283c-.031-.02-.34-.205-.687-.41-.882-.525-1.338-.874-1.953-1.5-.541-.55-.591-.613-1.225-1.508-.297-.421-.364-.497-.343-.391.033.163.242.475.753 1.12.22.278.473.618.562.756.113.175.192.259.262.277.055.013.188.105.296.203.111.1.234.185.367.254.094.041.243.149.33.238.122.115.254.218.396.306.129.077.27.19.315.25.083.112.19.167.297.15.035-.003.195.06.355.142.28.143.395.19.275.112zM4.22 5.728l-.4-.477a14.332 14.332 0 0 1-.59-.756c-.162-.227-.277-.359-.277-.317 0 .092.748 1.09 1.058 1.413.236.247.373.336.208.137zm4.64-.206c0-.008-.172-.116-.383-.238-.211-.124-.497-.3-.636-.394-.195-.13-.236-.148-.179-.075.042.052.147.141.234.198.088.057.206.157.26.22.076.09.122.114.187.098.057-.013.159.019.292.091.223.12.225.122.225.1zm.223-.188c0-.009-.113-.083-.252-.165a30.62 30.62 0 0 1-1.411-.95c-.062-.048-.01.016.113.139.127.126.265.242.412.344.103.067.242.18.306.253.09.102.138.129.204.114.058-.014.17.028.347.129.276.156.281.158.281.136zm-4.625-.536c-.223-.26-.634-.815-.905-1.225-.24-.36-.281-.408-.225-.26.128.342.555.95.95 1.352.391.4.44.435.18.133zm2.906-.248c0-.009-.15-.134-.333-.278C6.523 3.87 5.61 2.82 5.1 2.047c-.08-.12-.151-.2-.158-.177-.03.085.152.375.555.881.228.288.464.609.524.714.129.225.358.464.444.464.033 0 .135.075.225.168.092.092.185.168.208.168.023 0 .133.066.244.146.22.159.221.16.221.139zm-2.789-.444c-.09-.13-.18-.257-.275-.383-.152-.206-.3-.415-.446-.626-.239-.35-.267-.365-.111-.056.202.4.482.808.663.963.187.16.212.175.169.102zm1.968 10.54c-.422-.466-1.072-1.066-2.692-2.486C2.303 10.805.748 9.302.748 9.163c0-.13.171.01.908.733.798.785 1.083 1.043 2.813 2.54 1.258 1.089 1.564 1.372 1.633 1.509.035.07.222.288.414.484.377.385.55.585.55.64 0 .108-.155-.017-.523-.423zm-.655-.264c-.48-.471-.973-.93-1.477-1.374-2.4-2.13-3.85-3.53-3.803-3.673.036-.106.164 0 .987.826.628.62 1.273 1.223 1.936 1.806 1.339 1.17 1.89 1.672 1.89 1.725 0 .025.218.264.486.534.422.428.56.614.458.617-.017 0-.23-.208-.478-.46zM5 13.914a59.018 59.018 0 0 0-1.43-1.332C1.339 10.57.28 9.497.53 9.497c.026 0 .434.383.908.853.594.582 1.2 1.153 1.815 1.714.35.312.694.63 1.034.951.045.049.385.389.758.756.37.367.675.683.675.7 0 .109-.18-.03-.72-.557zm-.817-.386c-2.508-2.33-3.103-2.9-3.536-3.394-.695-.79-.145-.35 1.241.993.44.43.888.853 1.345 1.265.306.257.58.537.58.592 0 .016.097.118.215.224.375.336.837.79.874.857.097.18-.123.015-.719-.538zm-1.344-.532c-.695-.641-2.371-2.333-2.341-2.363.042-.043.234.135 1.615 1.496 1.311 1.292 1.734 1.796.725.866zm.411.026c-.876-.82-2.447-2.358-2.7-2.644-.386-.437-.24-.414.177.027.187.196.369.371.404.39.097.047 2.047 1.914 2.047 1.959 0 .02.135.165.3.319.164.155.299.297.299.315 0 .093-.138-.003-.527-.366zm-1.032-.268C1.506 12.1.9 11.44 1.01 11.44c.076 0 1.754 1.652 1.757 1.73.001.073-.102-.005-.549-.416zm13.42-2.294a7.266 7.266 0 0 1-.46-.589c-1.592-2.219-2.606-3.182-5.149-4.887C7.817 3.5 7.31 3.069 6.453 1.948c-.566-.742-.666-.934-.491-.934.059 0 1.178 1.473 1.178 1.551 0 .079.414.467.498.467.038 0 .164.088.28.198.117.108.292.26.39.338.098.077.178.163.178.19 0 .07.18.18.248.155.108-.042.424.19.372.272-.026.043.507.436.781.578.104.052.305.15.449.217.167.077.328.19.448.312.251.258.447.403.698.523.341.16 1.527 1.146 1.527 1.268 0 .05.392.454.655.676.31.261 2.223 2.675 2.223 2.804 0 .098-.091.06-.25-.103zm.117-.243a5.235 5.235 0 0 1-.363-.458 34.374 34.374 0 0 0-1.777-2.192c-.89-.976-2.28-2.063-4.642-3.63-1.15-.764-3.133-2.95-2.84-3.13.052-.032.165.072.308.28.062.093.292.397.512.674.219.278.444.584.5.681.172.3 1.11 1.113 1.284 1.113.139 0 .235.068.235.166 0 .125.979.843 1.15.843.116 0 .604.328.839.564.137.141.294.261.467.356.426.205 1.5 1.087 1.683 1.384.062.1.208.266.326.368.118.103.318.289.445.413.403.396 2.118 2.546 2.118 2.655 0 .094-.105.056-.245-.087zm-.117-.564a45.262 45.262 0 0 1-.702-.868c-1.483-1.875-2.382-2.694-4.748-4.332C8.27 3.125 7.704 2.61 6.701 1.286c-.385-.508-.466-.677-.3-.625.045.014.116.07.158.124.042.054.317.4.612.768.294.37.556.722.583.785.107.257 1.81 1.64 2.29 1.857.3.137 1.092.668 1.232.825a.85.85 0 0 0 .227.18c.315.148 1.561 1.202 1.673 1.416.075.14.534.6.639.64.146.055 2.147 2.479 2.147 2.6 0 .114-.119.04-.325-.203zm-.37-.837c-1.566-1.941-2.635-2.955-4.536-4.296-1.605-1.134-2.13-1.555-2.787-2.24C7.575 1.895 6.607.7 6.532.537c-.06-.132.01-.152.1-.03.043.06.144.17.223.243.192.175 1.22 1.4 1.22 1.453 0 .065.227.306.288.306.031 0 .227.146.435.326.529.456.87.717 1.988 1.525 1.567 1.13 2.208 1.669 2.687 2.255.114.142.246.271.391.383.188.125.25.187.683.692.628.733 1.341 1.638 1.341 1.702 0 .155-.128.035-.62-.576zm.074-.278-.887-1.04c-.932-1.092-2.03-2.063-3.782-3.345C8.71 2.717 8.057 2.123 7.22 1.005 6.834.49 6.713.307 6.742.28c.05-.05.143.033.295.265.087.135.187.254.221.265.034.01.342.335.684.722.87.984 1.241 1.306 3.087 2.683 1.448 1.08 2.28 1.775 2.28 1.903 0 .022.162.192.36.375 1.134 1.05 2.284 2.394 2.157 2.522-.03.03-.162-.1-.484-.477zm-.433-.863c-1.392-1.6-2.005-2.16-4.105-3.746C9.6 3.018 9.102 2.604 8.561 2.062 7.949 1.45 7.103.43 7.103.305c0-.115.148.006.33.27.109.158.244.312.299.341.055.03.309.283.565.564.825.905 1.223 1.255 2.787 2.448 1.412 1.077 2.262 1.785 2.262 1.883 0 .025.172.209.383.407C15.011 7.423 16.016 8.6 15.763 8.6c-.026 0-.411-.417-.854-.925zm-.01-.37c-1.287-1.447-1.976-2.07-4.157-3.761C9.288 2.417 7.828.987 7.517.384c-.078-.15.001-.144.124.01.31.39.555.656.601.656.029 0 .276.236.55.525.603.637 1.256 1.206 2.46 2.147 1.478 1.154 1.928 1.546 2.284 1.99.125.15.264.288.416.41.53.413 1.825 1.842 1.825 2.014 0 .131-.145-.006-.879-.831zm.055-.281C13.537 5.48 13.218 5.19 10.88 3.313 9.415 2.138 7.89.616 7.89.33c0-.126.136-.004.431.385.156.205.345.414.42.462.078.048.426.36.775.695.538.497 1.093.975 1.663 1.434 1.477 1.19 1.682 1.373 3.011 2.698 1.329 1.324 1.71 1.775 1.504 1.773-.026 0-.359-.34-.739-.754zm-.103-.47c-.997-1.079-1.262-1.334-2.234-2.142C9.901 2.155 8.3.66 8.3.39c0-.129.142-.005.5.43.242.294.442.502.52.539.07.033.385.302.703.598.316.296.879.789 1.25 1.094 1.652 1.367 2.11 1.764 2.11 1.834 0 .025.195.227.434.451 1.553 1.46 2.07 2.033 1.833 2.033-.027 0-.388-.367-.8-.813zm.194-.15c-.756-.805-1.61-1.647-1.933-1.904-.367-.291-2.023-1.714-2.642-2.27C9.563 1.418 8.732.545 8.755.43c.008-.045.152.087.48.437.476.51.678.707.73.707.042 0 .316.229.82.687.248.224.794.694 1.216 1.044.505.424.992.87 1.458 1.335.38.384.835.817 1.012.964.452.374 1.23 1.233 1.23 1.358 0 .107-.168-.036-.656-.557zm.545.217c-.032-.018-.357-.352-.725-.743-.832-.884-1.547-1.55-3.05-2.838C10.621 2.02 9.234.68 9.234.55c0-.105.05-.064.532.447.509.541.8.808 1.043.96.09.055.464.366.833.691.369.325.856.748 1.084.94.424.356.579.513.58.59.002.05.871.862 1.255 1.172.604.488 1.412 1.489 1.028 1.271zm-.754-1.118a35.85 35.85 0 0 0-2.486-2.346C11.385 2.337 9.96 1 9.81.77c-.167-.255.05-.079.723.586.407.4.815.777.907.836.442.283 1.402 1.138 2.154 1.918.304.316.69.68.856.81.473.37 1.25 1.2 1.252 1.335 0 .106-.199-.066-.867-.752zm-.262-.603c-.569-.575-1.017-1.056-.996-1.07.021-.012.2.136.399.331.155.157.319.305.491.442.317.21 1.234 1.17 1.234 1.292 0 .126-.152-.008-1.128-.995zm1.067.722c-.088-.03-1.738-1.768-1.68-1.768.033 0 .13.074.218.164.086.089.18.168.282.237.228.138 1.278 1.206 1.278 1.3 0 .061-.04.088-.098.067zm-.638-.974c-.688-.708-.696-.72-.554-.72.153 0 1.328 1.176 1.328 1.328 0 .144-.179.004-.774-.608zm.545.197c-.246-.21-.744-.767-.744-.831 0-.15.233.026.738.556.416.435.419.627.006.275zm.207-.165c-.137-.083-.502-.485-.502-.553 0-.17.406.128.619.453.089.136.029.189-.117.1zm.063-.27c-.087-.094-.105-.22-.031-.22.094 0 .218.119.206.197-.016.11-.085.12-.175.023zm-2.64-.852a2.684 2.684 0 0 1-.487-.452 1.45 1.45 0 0 0-.223-.205c-.373-.277-2.075-1.892-2.075-1.968 0-.102.163.01.463.32.187.192.619.602.958.908.253.225.5.458.738.698.067.076.137.13.155.12.086-.054.747.53.695.614-.033.055-.099.045-.224-.035zm-.006-.362c-.55-.461-2.031-1.866-2.031-1.926 0-.098.152.005.441.295.348.338.703.67 1.064.994.685.617.847.786.8.833-.01.01-.133-.078-.273-.196zm.11-.234c-.42-.352-1.144-1.072-1.127-1.122.025-.075 1.416 1.178 1.416 1.275 0 .063-.081.02-.289-.153z" fill="#89d9c6" style="stroke-width:.0833333"/>
</svg>
