<svg width="217" height="174" fill="none" xmlns="http://www.w3.org/2000/svg">
  <path d="m74 170 3 1s-19-13-28-29l17 12 3 2 3 2s-26-20-24-60c0 0-1-37 34-59l1-1 26 78 3 4s9-36 14-45v16s11-28 27-48c0 0 24 30 25 64 0 0 2 15-1 25l4-2s-10 18-20 24l8-3s-16 16-25 20l7-1 15-5c50-22 41-156-54-157C26 7 1 138 74 170Z" fill="#A80E33"/>
  <path d="M74 170s-55-3-54-77c0 0 2-26 12-41 0 0-8 2-21 9 0 0 35-58 100-57 0 0 91-2 95 89 0 0 2 70-55 77 0 0 15-9 24-21 0 0-11 5-14 5 0 0 28-13 31-42 0 0-4 13-11 17 0 0 10-51-30-95 0 0-14 15-25 57 0 0-3-19 6-41 0 0-10 18-23 66 0 0-24-28-27-83 0 0-39 19-39 69 0 0-1 30 26 54 0 0-17-9-23-18 0 0 6 19 28 32Z" fill="#E50914"/>
</svg>
