<svg viewBox="0 0 24 19" fill="none" xmlns="http://www.w3.org/2000/svg">
  <path d="M.72.2.01 2.88a.27.27 0 0 0 .26.34H3.8l-1.37 5.1a4.5 4.5 0 0 0 4.34 5.65h10.03a4.64 4.64 0 0 0 4.48-3.43l1.26-4.7a.3.3 0 0 0-.3-.38H11.93l.31-1.17a1.44 1.44 0 0 1 1.4-1.07h9.33a.35.35 0 0 0 .34-.26l.7-2.6a.29.29 0 0 0-.28-.35H13.9a4.96 4.96 0 0 0-4.8 3.68L7.9 8.2a.33.33 0 0 0 .31.41h10.22l-.32 1.17a1.44 1.44 0 0 1-1.4 1.07h-9.1A2.11 2.11 0 0 1 5.57 8.2L7.68.32A.25.25 0 0 0 7.44 0H1a.28.28 0 0 0-.27.2ZM17.05 18.55a1.85 1.85 0 1 0 0-3.7 1.85 1.85 0 0 0 0 3.7ZM7.25 18.55a1.85 1.85 0 1 0 0-3.7 1.85 1.85 0 0 0 0 3.7Z" fill="#89D9C6"/>
</svg>
